<svg xmlns="http://www.w3.org/2000/svg" version="1.1" xmlns:xlink="http://www.w3.org/1999/xlink" xmlns:svgjs="http://svgjs.dev/svgjs" width="100" height="100" viewBox="0 0 2000 1500"><rect width="2000" height="1500" fill="#282634"></rect><g transform="matrix(0.75,0,0,0.75,249.090909090909,282.7536437246963)"><svg viewBox="0 0 396 247" data-background-color="#282634" preserveAspectRatio="xMidYMid meet" height="1247" width="2000" xmlns="http://www.w3.org/2000/svg" xmlns:xlink="http://www.w3.org/1999/xlink"><g id="tight-bounds" transform="matrix(1,0,0,1,0.2400000000000091,-0.09999999999999432)"><svg viewBox="0 0 395.52 247.2" height="247.2" width="395.52"><g><svg></svg></g><g><svg viewBox="0 0 395.52 247.2" height="247.2" width="395.52"><mask id="ca47101d-0a3b-4404-980d-f39780071da3"><rect width="640" height="400" fill="white"></rect><g transform="matrix(1,0,0,1,0,77.28737342310347)"><svg viewBox="0 0 395.52 92.62525315379305" height="92.62525315379305" width="395.52"><g><svg viewBox="0 0 395.52 92.62525315379305" height="92.62525315379305" width="395.52"><g><svg viewBox="0 0 395.52 92.62525315379305" height="92.62525315379305" width="395.52"><g><svg viewBox="0 0 395.52 92.62525315379305" height="92.62525315379305" width="395.52"><g id="SvgjsG1266"><svg viewBox="0 0 395.52 92.62525315379305" height="92.62525315379305" width="395.52" id="SvgjsSvg1265"><g><svg viewBox="0 0 395.52 92.62525315379305" height="92.62525315379305" width="395.52"><g transform="matrix(1,0,0,1,0,0)"><svg width="395.52" viewBox="-4 -41.11000061035156 196.22000122070312 46.720001220703125" height="92.62525315379305" data-palette-color="#39cccc"><path d="M23.34-11.72L23.34-11.72Q22.9-9.52 21.95-7.15 21-4.79 19.51-2.83 18.02-0.88 15.97 0.37 13.92 1.61 11.28 1.61L11.28 1.61Q9.33 1.61 7.76 0.83 6.2 0.05 4.93-1.27 3.66-2.59 2.73-4.3 1.81-6.01 1.2-7.84 0.59-9.67 0.29-11.47 0-13.28 0-14.84L0-14.84Q0-17.04 0.42-19.56 0.83-22.07 1.66-24.54 2.49-27 3.76-29.27 5.03-31.54 6.76-33.28 8.5-35.01 10.67-36.06 12.84-37.11 15.53-37.11L15.53-37.11Q17.24-37.11 18.7-36.45 20.17-35.79 21.24-34.69 22.31-33.59 22.92-32.08 23.54-30.57 23.54-28.91L23.54-28.91 23.54-28.47Q23.54-27.59 23.46-26.29 23.39-25 23-23.83 22.61-22.66 21.83-21.8 21.04-20.95 19.63-20.95L19.63-20.95Q17.92-20.95 17.04-21.73 16.16-22.51 16.16-24.32L16.16-24.32Q16.16-25 16.21-25.68 16.26-26.37 16.26-27.05L16.26-27.05Q16.26-28.08 15.92-28.64 15.58-29.2 14.5-29.2L14.5-29.2Q13.28-29.2 12.3-28.42 11.33-27.64 10.6-26.37 9.86-25.1 9.33-23.49 8.79-21.88 8.45-20.24 8.11-18.6 7.96-17.09 7.81-15.58 7.81-14.5L7.81-14.5Q7.81-13.62 7.91-12.48 8.01-11.33 8.33-10.28 8.64-9.23 9.28-8.5 9.91-7.76 10.94-7.76L10.94-7.76Q12.7-7.76 13.77-8.86 14.84-9.96 15.23-11.67L15.23-11.67Q14.55-11.77 13.89-11.99 13.23-12.21 12.67-12.62 12.11-13.04 11.77-13.65 11.43-14.26 11.43-15.09L11.43-15.09Q11.43-16.6 12.45-17.46 13.48-18.31 14.87-18.75 16.26-19.19 17.72-19.31 19.19-19.43 20.07-19.43L20.07-19.43Q20.7-19.43 21.92-19.34 23.14-19.24 24.34-18.92 25.54-18.6 26.42-18.02 27.29-17.43 27.29-16.5L27.29-16.5Q27.29-14.65 26.29-13.31 25.29-11.96 23.34-11.72ZM60.89-5.32L60.89-5.32Q60.74-4.05 60.47-2.83 60.2-1.61 59.81-0.66 59.42 0.29 58.81 0.85 58.2 1.42 57.42 1.42L57.42 1.42Q56.64 1.42 56 0.22 55.37-0.98 54.81-2.95 54.25-4.93 53.78-7.42 53.32-9.91 52.95-12.48 52.59-15.04 52.34-17.48 52.1-19.92 51.95-21.73L51.95-21.73Q51.66-19.87 51.27-17.58 50.88-15.28 50.34-12.92 49.8-10.55 49.17-8.28 48.53-6.01 47.8-4.22 47.07-2.44 46.24-1.37 45.41-0.29 44.48-0.29L44.48-0.29Q43.65-0.29 42.82-1.42 41.99-2.54 41.21-4.37 40.43-6.2 39.74-8.45 39.06-10.69 38.47-12.96 37.89-15.23 37.45-17.26 37.01-19.29 36.77-20.65L36.77-20.65Q36.77-19.63 36.74-18.38 36.72-17.14 36.72-16.6L36.72-16.6Q36.72-16.36 36.69-14.99 36.67-13.62 36.52-11.72 36.37-9.81 36.08-7.64 35.79-5.47 35.23-3.61 34.67-1.76 33.84-0.49 33.01 0.78 31.78 0.88L31.78 0.88Q30.81 0.44 30.15-0.61 29.49-1.66 29.05-3.08 28.61-4.49 28.37-6.1 28.12-7.71 27.98-9.25 27.83-10.79 27.81-12.11 27.78-13.43 27.78-14.26L27.78-14.26Q27.78-15.72 27.95-17.94 28.12-20.17 28.51-22.61 28.9-25.05 29.54-27.49 30.17-29.93 31.08-31.86 31.98-33.79 33.18-35.01 34.37-36.23 35.94-36.23L35.94-36.23Q36.67-36.23 37.5-35.4 38.33-34.57 39.16-33.23 39.99-31.88 40.77-30.22 41.55-28.56 42.26-26.88 42.97-25.2 43.5-23.66 44.04-22.12 44.38-21.04L44.38-21.04Q44.77-22.22 45.36-23.78 45.94-25.34 46.65-27.03 47.36-28.71 48.22-30.35 49.07-31.98 50-33.28 50.93-34.57 51.88-35.38 52.83-36.18 53.81-36.18L53.81-36.18Q55.52-36.18 56.74-34.91 57.96-33.64 58.79-31.62 59.62-29.59 60.1-27.08 60.59-24.56 60.86-22.09 61.13-19.63 61.2-17.48 61.28-15.33 61.28-14.01L61.28-14.01Q61.28-13.48 61.28-12.55 61.28-11.62 61.25-10.45 61.23-9.28 61.13-7.96 61.03-6.64 60.89-5.32ZM89.4-7.23L89.4-7.23Q89.4-6.25 89.23-4.88 89.06-3.52 88.57-2.27 88.08-1.03 87.25-0.17 86.42 0.68 85.05 0.68L85.05 0.68Q83.25 0.68 82.34-0.63 81.44-1.95 81.05-3.78 80.66-5.62 80.59-7.52 80.51-9.42 80.46-10.55L80.46-10.55Q76.95-9.96 73.53-9.52L73.53-9.52Q73.43-8.4 73.12-6.74 72.8-5.08 72.14-3.54 71.48-2 70.43-0.88 69.38 0.24 67.87 0.24L67.87 0.24Q66.69 0.24 66.04-0.61 65.38-1.46 65.03-2.64 64.69-3.81 64.62-5.05 64.55-6.3 64.55-7.13L64.55-7.13Q64.55-9.91 64.99-12.62 65.42-15.33 66.01-18.02L66.01-18.02Q66.3-19.43 66.79-21.34 67.28-23.24 67.99-25.27 68.7-27.29 69.65-29.27 70.6-31.25 71.82-32.81 73.04-34.38 74.6-35.35 76.17-36.33 78.07-36.33L78.07-36.33Q79.93-36.33 81.29-35.5 82.66-34.67 83.69-33.3 84.71-31.93 85.4-30.2 86.08-28.47 86.54-26.68 87.01-24.9 87.32-23.19 87.64-21.48 87.89-20.17L87.89-20.17Q88.52-16.99 88.96-13.75 89.4-10.5 89.4-7.23ZM79.98-17.68L79.98-19.09Q79.98-19.68 79.9-21.02 79.83-22.36 79.58-23.71 79.34-25.05 78.83-26.1 78.32-27.15 77.44-27.15L77.44-27.15Q76.95-27.15 76.51-26.49 76.07-25.83 75.73-24.83 75.39-23.83 75.12-22.61 74.85-21.39 74.65-20.26 74.46-19.14 74.36-18.24 74.26-17.33 74.21-16.94L74.21-16.94Q77.14-17.19 79.98-17.68L79.98-17.68ZM116.01-28.56L116.01-27.93Q116.01-23.88 115.81-19.8 115.62-15.72 115.32-11.67L115.32-11.67Q115.28-10.94 115.23-9.69 115.18-8.45 115.03-7.01 114.89-5.57 114.64-4.1 114.4-2.64 113.88-1.44 113.37-0.24 112.57 0.51 111.76 1.27 110.59 1.27L110.59 1.27Q109.56 1.27 108.76 0.83 107.95 0.39 107.41-0.32 106.88-1.03 106.58-1.93 106.29-2.83 106.29-3.81L106.29-3.81Q106.29-5.42 106.39-7.06 106.49-8.69 106.68-10.3L106.68-10.3 101.85-9.81Q101.7-8.54 101.53-6.76 101.36-4.98 100.85-3.34 100.33-1.71 99.31-0.54 98.28 0.63 96.48 0.63L96.48 0.63Q95.35 0.63 94.62 0.12 93.89-0.39 93.45-1.2 93.01-2 92.81-2.98 92.62-3.96 92.62-4.83L92.62-4.83Q92.62-7.76 92.86-10.67 93.11-13.57 93.21-16.5L93.21-16.5Q93.3-19.58 93.28-22.68 93.25-25.78 93.35-28.91L93.35-28.91Q93.4-29.93 93.43-31.3 93.45-32.67 93.77-33.86 94.08-35.06 94.84-35.89 95.6-36.72 97.11-36.72L97.11-36.72Q99.21-36.72 100.29-35.62 101.36-34.52 101.8-32.89 102.24-31.25 102.24-29.42 102.24-27.59 102.24-26.12L102.24-26.12Q102.24-24.17 102.14-22.29 102.04-20.41 101.95-18.51L101.95-18.51 107.17-19.29Q107.22-21.68 107.27-24.02 107.32-26.37 107.46-28.71L107.46-28.71Q107.51-29.83 107.56-31.1 107.61-32.37 107.95-33.45 108.29-34.52 109.1-35.23 109.9-35.94 111.52-35.94L111.52-35.94Q112.88-35.94 113.74-35.16 114.59-34.38 115.1-33.25 115.62-32.13 115.81-30.86 116.01-29.59 116.01-28.56L116.01-28.56ZM143.4-7.23L143.4-7.23Q143.4-6.25 143.23-4.88 143.06-3.52 142.57-2.27 142.08-1.03 141.25-0.17 140.42 0.68 139.05 0.68L139.05 0.68Q137.25 0.68 136.34-0.63 135.44-1.95 135.05-3.78 134.66-5.62 134.58-7.52 134.51-9.42 134.46-10.55L134.46-10.55Q130.95-9.96 127.53-9.52L127.53-9.52Q127.43-8.4 127.11-6.74 126.8-5.08 126.14-3.54 125.48-2 124.43-0.88 123.38 0.24 121.87 0.24L121.87 0.24Q120.69 0.24 120.03-0.61 119.37-1.46 119.03-2.64 118.69-3.81 118.62-5.05 118.54-6.3 118.54-7.13L118.54-7.13Q118.54-9.91 118.98-12.62 119.42-15.33 120.01-18.02L120.01-18.02Q120.3-19.43 120.79-21.34 121.28-23.24 121.99-25.27 122.7-27.29 123.65-29.27 124.6-31.25 125.82-32.81 127.04-34.38 128.6-35.35 130.17-36.33 132.07-36.33L132.07-36.33Q133.93-36.33 135.29-35.5 136.66-34.67 137.69-33.3 138.71-31.93 139.39-30.2 140.08-28.47 140.54-26.68 141.01-24.9 141.32-23.19 141.64-21.48 141.88-20.17L141.88-20.17Q142.52-16.99 142.96-13.75 143.4-10.5 143.4-7.23ZM133.97-17.68L133.97-19.09Q133.97-19.68 133.9-21.02 133.83-22.36 133.58-23.71 133.34-25.05 132.83-26.1 132.31-27.15 131.44-27.15L131.44-27.15Q130.95-27.15 130.51-26.49 130.07-25.83 129.73-24.83 129.38-23.83 129.12-22.61 128.85-21.39 128.65-20.26 128.46-19.14 128.36-18.24 128.26-17.33 128.21-16.94L128.21-16.94Q131.14-17.19 133.97-17.68L133.97-17.68ZM167.22-33.35L167.22-33.35Q167.22-32.13 166.27-31.13 165.32-30.13 163.98-29.37 162.63-28.61 161.22-28.13 159.8-27.64 158.87-27.44L158.87-27.44Q158.48-23.68 158.26-19.95 158.04-16.21 158.04-12.45L158.04-12.45Q158.04-10.45 158.14-8.5 158.24-6.54 158.24-4.59L158.24-4.59Q158.24-3.71 158.07-2.66 157.9-1.61 157.48-0.68 157.07 0.24 156.34 0.88 155.6 1.51 154.53 1.51L154.53 1.51Q153.26 1.51 152.5 0.81 151.75 0.1 151.33-0.93 150.92-1.95 150.77-3.1 150.62-4.25 150.62-5.18L150.62-5.18Q150.52-8.11 150.48-11.06 150.43-14.01 150.43-16.99L150.43-16.99Q150.43-19.48 150.45-21.88 150.48-24.27 150.48-26.76L150.48-26.76Q149.79-26.66 149.08-26.61 148.38-26.56 147.64-26.56L147.64-26.56Q147.06-26.56 146.11-26.68 145.15-26.81 144.27-27.12 143.4-27.44 142.76-28 142.13-28.56 142.13-29.44L142.13-29.44Q142.13-30.91 143.27-32.01 144.42-33.11 146.2-33.91 147.99-34.72 150.16-35.28 152.33-35.84 154.46-36.16 156.58-36.47 158.36-36.62 160.14-36.77 161.12-36.77L161.12-36.77Q162.05-36.77 163.1-36.69 164.15-36.62 165.08-36.28 166-35.94 166.61-35.25 167.22-34.57 167.22-33.35ZM175.86 1.61L175.86 1.61Q172.89 1.61 170.69 0.12 168.49-1.37 167.05-3.88 165.61-6.4 164.9-9.72 164.19-13.04 164.19-16.7L164.19-16.7Q164.19-20.12 164.95-23.63 165.71-27.15 167.27-29.98 168.83-32.81 171.23-34.62 173.62-36.43 176.94-36.43L176.94-36.43Q180.16-36.43 182.33-34.69 184.51-32.96 185.8-30.2 187.09-27.44 187.66-24.02 188.22-20.61 188.22-17.19L188.22-17.19Q188.22-13.38 187.46-9.99 186.7-6.59 185.17-4 183.63-1.42 181.31 0.1 178.99 1.61 175.86 1.61ZM176.45-25.63L176.45-25.63Q175.52-25.63 174.86-24.9 174.2-24.17 173.76-22.97 173.32-21.78 173.13-20.29 172.93-18.8 172.93-17.29L172.93-17.29Q172.93-15.58 173.15-13.87 173.37-12.16 173.81-10.79 174.25-9.42 174.91-8.59 175.57-7.76 176.5-7.76L176.5-7.76Q177.57-7.76 178.21-8.84 178.84-9.91 179.21-11.43 179.57-12.94 179.7-14.55 179.82-16.16 179.82-17.24L179.82-17.24Q179.82-18.55 179.65-20.02 179.48-21.48 179.09-22.73 178.7-23.97 178.06-24.8 177.43-25.63 176.45-25.63Z" opacity="1" transform="matrix(1,0,0,1,0,0)" fill="black" class="wordmark-text-0" id="SvgjsPath1264" stroke-width="7" stroke="black" stroke-linejoin="round"></path></svg></g></svg></g></svg></g></svg></g><g></g></svg></g></svg></g></svg></g></mask><g transform="matrix(1,0,0,1,0,77.28737342310347)"><svg viewBox="0 0 395.52 92.62525315379305" height="92.62525315379305" width="395.52"><g><svg viewBox="0 0 395.52 92.62525315379305" height="92.62525315379305" width="395.52"><g><svg viewBox="0 0 395.52 92.62525315379305" height="92.62525315379305" width="395.52"><g><svg viewBox="0 0 395.52 92.62525315379305" height="92.62525315379305" width="395.52"><g id="textblocktransform"><svg viewBox="0 0 395.52 92.62525315379305" height="92.62525315379305" width="395.52" id="textblock"><g><svg viewBox="0 0 395.52 92.62525315379305" height="92.62525315379305" width="395.52"><g transform="matrix(1,0,0,1,0,0)"><svg width="395.52" viewBox="-4 -41.11000061035156 196.22000122070312 46.720001220703125" height="92.62525315379305" data-palette-color="#39cccc"><path d="M23.34-11.72L23.34-11.72Q22.9-9.52 21.95-7.15 21-4.79 19.51-2.83 18.02-0.88 15.97 0.37 13.92 1.61 11.28 1.61L11.28 1.61Q9.33 1.61 7.76 0.83 6.2 0.05 4.93-1.27 3.66-2.59 2.73-4.3 1.81-6.01 1.2-7.84 0.59-9.67 0.29-11.47 0-13.28 0-14.84L0-14.84Q0-17.04 0.42-19.56 0.83-22.07 1.66-24.54 2.49-27 3.76-29.27 5.03-31.54 6.76-33.28 8.5-35.01 10.67-36.06 12.84-37.11 15.53-37.11L15.53-37.11Q17.24-37.11 18.7-36.45 20.17-35.79 21.24-34.69 22.31-33.59 22.92-32.08 23.54-30.57 23.54-28.91L23.54-28.91 23.54-28.47Q23.54-27.59 23.46-26.29 23.39-25 23-23.83 22.61-22.66 21.83-21.8 21.04-20.95 19.63-20.95L19.63-20.95Q17.92-20.95 17.04-21.73 16.16-22.51 16.16-24.32L16.16-24.32Q16.16-25 16.21-25.68 16.26-26.37 16.26-27.05L16.26-27.05Q16.26-28.08 15.92-28.64 15.58-29.2 14.5-29.2L14.5-29.2Q13.28-29.2 12.3-28.42 11.33-27.64 10.6-26.37 9.86-25.1 9.33-23.49 8.79-21.88 8.45-20.24 8.11-18.6 7.96-17.09 7.81-15.58 7.81-14.5L7.81-14.5Q7.81-13.62 7.91-12.48 8.01-11.33 8.33-10.28 8.64-9.23 9.28-8.5 9.91-7.76 10.94-7.76L10.94-7.76Q12.7-7.76 13.77-8.86 14.84-9.96 15.23-11.67L15.23-11.67Q14.55-11.77 13.89-11.99 13.23-12.21 12.67-12.62 12.11-13.04 11.77-13.65 11.43-14.26 11.43-15.09L11.43-15.09Q11.43-16.6 12.45-17.46 13.48-18.31 14.87-18.75 16.26-19.19 17.72-19.31 19.19-19.43 20.07-19.43L20.07-19.43Q20.7-19.43 21.92-19.34 23.14-19.24 24.34-18.92 25.54-18.6 26.42-18.02 27.29-17.43 27.29-16.5L27.29-16.5Q27.29-14.65 26.29-13.31 25.29-11.96 23.34-11.72ZM60.89-5.32L60.89-5.32Q60.74-4.05 60.47-2.83 60.2-1.61 59.81-0.66 59.42 0.29 58.81 0.85 58.2 1.42 57.42 1.42L57.42 1.42Q56.64 1.42 56 0.22 55.37-0.98 54.81-2.95 54.25-4.93 53.78-7.42 53.32-9.91 52.95-12.48 52.59-15.04 52.34-17.48 52.1-19.92 51.95-21.73L51.95-21.73Q51.66-19.87 51.27-17.58 50.88-15.28 50.34-12.92 49.8-10.55 49.17-8.28 48.53-6.01 47.8-4.22 47.07-2.44 46.24-1.37 45.41-0.29 44.48-0.29L44.48-0.29Q43.65-0.29 42.82-1.42 41.99-2.54 41.21-4.37 40.43-6.2 39.74-8.45 39.06-10.69 38.47-12.96 37.89-15.23 37.45-17.26 37.01-19.29 36.77-20.65L36.77-20.65Q36.77-19.63 36.74-18.38 36.72-17.14 36.72-16.6L36.72-16.6Q36.72-16.36 36.69-14.99 36.67-13.62 36.52-11.72 36.37-9.81 36.08-7.64 35.79-5.47 35.23-3.61 34.67-1.76 33.84-0.49 33.01 0.78 31.78 0.88L31.78 0.88Q30.81 0.44 30.15-0.61 29.49-1.66 29.05-3.08 28.61-4.49 28.37-6.1 28.12-7.71 27.98-9.25 27.83-10.79 27.81-12.11 27.78-13.43 27.78-14.26L27.78-14.26Q27.78-15.72 27.95-17.94 28.12-20.17 28.51-22.61 28.9-25.05 29.54-27.49 30.17-29.93 31.08-31.86 31.98-33.79 33.18-35.01 34.37-36.23 35.94-36.23L35.94-36.23Q36.67-36.23 37.5-35.4 38.33-34.57 39.16-33.23 39.99-31.88 40.77-30.22 41.55-28.56 42.26-26.88 42.97-25.2 43.5-23.66 44.04-22.12 44.38-21.04L44.38-21.04Q44.77-22.22 45.36-23.78 45.94-25.34 46.65-27.03 47.36-28.71 48.22-30.35 49.07-31.98 50-33.28 50.93-34.57 51.88-35.38 52.83-36.18 53.81-36.18L53.81-36.18Q55.52-36.18 56.74-34.91 57.96-33.64 58.79-31.62 59.62-29.59 60.1-27.08 60.59-24.56 60.86-22.09 61.13-19.63 61.2-17.48 61.28-15.33 61.28-14.01L61.28-14.01Q61.28-13.48 61.28-12.55 61.28-11.62 61.25-10.45 61.23-9.28 61.13-7.96 61.03-6.64 60.89-5.32ZM89.4-7.23L89.4-7.23Q89.4-6.25 89.23-4.88 89.06-3.52 88.57-2.27 88.08-1.03 87.25-0.17 86.42 0.68 85.05 0.68L85.05 0.68Q83.25 0.68 82.34-0.63 81.44-1.95 81.05-3.78 80.66-5.62 80.59-7.52 80.51-9.42 80.46-10.55L80.46-10.55Q76.95-9.96 73.53-9.52L73.53-9.52Q73.43-8.4 73.12-6.74 72.8-5.08 72.14-3.54 71.48-2 70.43-0.88 69.38 0.24 67.87 0.24L67.87 0.24Q66.69 0.24 66.04-0.61 65.38-1.46 65.03-2.64 64.69-3.81 64.62-5.05 64.55-6.3 64.55-7.13L64.55-7.13Q64.55-9.91 64.99-12.62 65.42-15.33 66.01-18.02L66.01-18.02Q66.3-19.43 66.79-21.34 67.28-23.24 67.99-25.27 68.7-27.29 69.65-29.27 70.6-31.25 71.82-32.81 73.04-34.38 74.6-35.35 76.17-36.33 78.07-36.33L78.07-36.33Q79.93-36.33 81.29-35.5 82.66-34.67 83.69-33.3 84.71-31.93 85.4-30.2 86.08-28.47 86.54-26.68 87.01-24.9 87.32-23.19 87.64-21.48 87.89-20.17L87.89-20.17Q88.52-16.99 88.96-13.75 89.4-10.5 89.4-7.23ZM79.98-17.68L79.98-19.09Q79.98-19.68 79.9-21.02 79.83-22.36 79.58-23.71 79.34-25.05 78.83-26.1 78.32-27.15 77.44-27.15L77.44-27.15Q76.95-27.15 76.51-26.49 76.07-25.83 75.73-24.83 75.39-23.83 75.12-22.61 74.85-21.39 74.65-20.26 74.46-19.14 74.36-18.24 74.26-17.33 74.21-16.94L74.21-16.94Q77.14-17.19 79.98-17.68L79.98-17.68ZM116.01-28.56L116.01-27.93Q116.01-23.88 115.81-19.8 115.62-15.72 115.32-11.67L115.32-11.67Q115.28-10.94 115.23-9.69 115.18-8.45 115.03-7.01 114.89-5.57 114.64-4.1 114.4-2.64 113.88-1.44 113.37-0.24 112.57 0.51 111.76 1.27 110.59 1.27L110.59 1.27Q109.56 1.27 108.76 0.83 107.95 0.39 107.41-0.32 106.88-1.03 106.58-1.93 106.29-2.83 106.29-3.81L106.29-3.81Q106.29-5.42 106.39-7.06 106.49-8.69 106.68-10.3L106.68-10.3 101.85-9.81Q101.7-8.54 101.53-6.76 101.36-4.98 100.85-3.34 100.33-1.71 99.31-0.54 98.28 0.63 96.48 0.63L96.48 0.63Q95.35 0.63 94.62 0.12 93.89-0.39 93.45-1.2 93.01-2 92.81-2.98 92.62-3.96 92.62-4.83L92.62-4.83Q92.62-7.76 92.86-10.67 93.11-13.57 93.21-16.5L93.21-16.5Q93.3-19.58 93.28-22.68 93.25-25.78 93.35-28.91L93.35-28.91Q93.4-29.93 93.43-31.3 93.45-32.67 93.77-33.86 94.08-35.06 94.84-35.89 95.6-36.72 97.11-36.72L97.11-36.72Q99.21-36.72 100.29-35.62 101.36-34.52 101.8-32.89 102.24-31.25 102.24-29.42 102.24-27.59 102.24-26.12L102.24-26.12Q102.24-24.17 102.14-22.29 102.04-20.41 101.95-18.51L101.95-18.51 107.17-19.29Q107.22-21.68 107.27-24.02 107.32-26.37 107.46-28.71L107.46-28.71Q107.51-29.83 107.56-31.1 107.61-32.37 107.95-33.45 108.29-34.52 109.1-35.23 109.9-35.94 111.52-35.94L111.52-35.94Q112.88-35.94 113.74-35.16 114.59-34.38 115.1-33.25 115.62-32.13 115.81-30.86 116.01-29.59 116.01-28.56L116.01-28.56ZM143.4-7.23L143.4-7.23Q143.4-6.25 143.23-4.88 143.06-3.52 142.57-2.27 142.08-1.03 141.25-0.17 140.42 0.68 139.05 0.68L139.05 0.68Q137.25 0.68 136.34-0.63 135.44-1.95 135.05-3.78 134.66-5.62 134.58-7.52 134.51-9.42 134.46-10.55L134.46-10.55Q130.95-9.96 127.53-9.52L127.53-9.52Q127.43-8.4 127.11-6.74 126.8-5.08 126.14-3.54 125.48-2 124.43-0.88 123.38 0.24 121.87 0.24L121.87 0.24Q120.69 0.24 120.03-0.61 119.37-1.46 119.03-2.64 118.69-3.81 118.62-5.05 118.54-6.3 118.54-7.13L118.54-7.13Q118.54-9.91 118.98-12.62 119.42-15.33 120.01-18.02L120.01-18.02Q120.3-19.43 120.79-21.34 121.28-23.24 121.99-25.27 122.7-27.29 123.65-29.27 124.6-31.25 125.82-32.81 127.04-34.38 128.6-35.35 130.17-36.33 132.07-36.33L132.07-36.33Q133.93-36.33 135.29-35.5 136.66-34.67 137.69-33.3 138.71-31.93 139.39-30.2 140.08-28.47 140.54-26.68 141.01-24.9 141.32-23.19 141.64-21.48 141.88-20.17L141.88-20.17Q142.52-16.99 142.96-13.75 143.4-10.5 143.4-7.23ZM133.97-17.68L133.97-19.09Q133.97-19.68 133.9-21.02 133.83-22.36 133.58-23.71 133.34-25.05 132.83-26.1 132.31-27.15 131.44-27.15L131.44-27.15Q130.95-27.15 130.51-26.49 130.07-25.83 129.73-24.83 129.38-23.83 129.12-22.61 128.85-21.39 128.65-20.26 128.46-19.14 128.36-18.24 128.26-17.33 128.21-16.94L128.21-16.94Q131.14-17.19 133.97-17.68L133.97-17.68ZM167.22-33.35L167.22-33.35Q167.22-32.13 166.27-31.13 165.32-30.13 163.98-29.37 162.63-28.61 161.22-28.13 159.8-27.64 158.87-27.44L158.87-27.44Q158.48-23.68 158.26-19.95 158.04-16.21 158.04-12.45L158.04-12.45Q158.04-10.45 158.14-8.5 158.24-6.54 158.24-4.59L158.24-4.59Q158.24-3.71 158.07-2.66 157.9-1.61 157.48-0.68 157.07 0.24 156.34 0.88 155.6 1.51 154.53 1.51L154.53 1.51Q153.26 1.51 152.5 0.81 151.75 0.1 151.33-0.93 150.92-1.95 150.77-3.1 150.62-4.25 150.62-5.18L150.62-5.18Q150.52-8.11 150.48-11.06 150.43-14.01 150.43-16.99L150.43-16.99Q150.43-19.48 150.45-21.88 150.48-24.27 150.48-26.76L150.48-26.76Q149.79-26.66 149.08-26.61 148.38-26.56 147.64-26.56L147.64-26.56Q147.06-26.56 146.11-26.68 145.15-26.81 144.27-27.12 143.4-27.44 142.76-28 142.13-28.56 142.13-29.44L142.13-29.44Q142.13-30.91 143.27-32.01 144.42-33.11 146.2-33.91 147.99-34.72 150.16-35.28 152.33-35.84 154.46-36.16 156.58-36.47 158.36-36.62 160.14-36.77 161.12-36.77L161.12-36.77Q162.05-36.77 163.1-36.69 164.15-36.62 165.08-36.28 166-35.94 166.61-35.25 167.22-34.57 167.22-33.35ZM175.86 1.61L175.86 1.61Q172.89 1.61 170.69 0.12 168.49-1.37 167.05-3.88 165.61-6.4 164.9-9.72 164.19-13.04 164.19-16.7L164.19-16.7Q164.19-20.12 164.95-23.63 165.71-27.15 167.27-29.98 168.83-32.81 171.23-34.62 173.62-36.43 176.94-36.43L176.94-36.43Q180.16-36.43 182.33-34.69 184.51-32.96 185.8-30.2 187.09-27.44 187.66-24.02 188.22-20.61 188.22-17.19L188.22-17.19Q188.22-13.38 187.46-9.99 186.7-6.59 185.17-4 183.63-1.42 181.31 0.1 178.99 1.61 175.86 1.61ZM176.45-25.63L176.45-25.63Q175.52-25.63 174.86-24.9 174.2-24.17 173.76-22.97 173.32-21.78 173.13-20.29 172.93-18.8 172.93-17.29L172.93-17.29Q172.93-15.58 173.15-13.87 173.37-12.16 173.81-10.79 174.25-9.42 174.91-8.59 175.57-7.76 176.5-7.76L176.5-7.76Q177.57-7.76 178.21-8.84 178.84-9.91 179.21-11.43 179.57-12.94 179.7-14.55 179.82-16.16 179.82-17.24L179.82-17.24Q179.82-18.55 179.65-20.02 179.48-21.48 179.09-22.73 178.7-23.97 178.06-24.8 177.43-25.63 176.45-25.63Z" opacity="1" transform="matrix(1,0,0,1,0,0)" fill="#39cccc" class="wordmark-text-0" data-fill-palette-color="primary" id="text-0"></path></svg></g></svg></g></svg></g></svg></g><g></g></svg></g></svg></g></svg></g><g mask="url(#ca47101d-0a3b-4404-980d-f39780071da3)"><g transform="matrix(2.5068241555390856, 0, 0, 2.5068241555390856, 102.89425723054228, 0.9999999999999858)"><svg xmlns="http://www.w3.org/2000/svg" xmlns:xlink="http://www.w3.org/1999/xlink" version="1.1" x="0" y="0" viewBox="12.982999801635742 1 75.68599700927734 97.81300354003906" enable-background="new 0 0 100 100" xml:space="preserve" height="97.81300354003906" width="75.68599700927734" class="icon-none" data-fill-palette-color="accent" id="none"><g fill="#dcdcdc" data-fill-palette-color="accent"><polygon fill-rule="evenodd" clip-rule="evenodd" points="12.983,10.59 30.001,98.813 24.129,39.764 53.15,37.872 53.096,27.989    64.549,1 53.622,18.977  " fill="#dcdcdc" data-fill-palette-color="accent"></polygon><polygon fill-rule="evenodd" clip-rule="evenodd" points="59.389,54.548 64.549,1.007 55.809,40.723 36.197,41.768 37.767,62.23    30.001,98.813 42.058,58.914  " fill="#dcdcdc" data-fill-palette-color="accent"></polygon><polygon fill-rule="evenodd" clip-rule="evenodd" points="62.8,67.182 63.349,56.729 47.37,60.484 47.338,72.281 30.001,98.813    51.681,71.197  " fill="#dcdcdc" data-fill-palette-color="accent"></polygon><polygon fill-rule="evenodd" clip-rule="evenodd" points="65.711,62.394 80.552,57.663 82.061,45.131 66.162,47.226  " fill="#dcdcdc" data-fill-palette-color="accent"></polygon><polygon fill-rule="evenodd" clip-rule="evenodd" points="72.07,44.502 83.058,43.085 84.639,32.807 76.56,32.434 64.549,1    72.979,31.967  " fill="#dcdcdc" data-fill-palette-color="accent"></polygon><polygon fill-rule="evenodd" clip-rule="evenodd" points="87.413,31.294 88.669,21.788 79.125,19.094 64.549,1 79.032,23.437    78.61,30.437  " fill="#dcdcdc" data-fill-palette-color="accent"></polygon></g></svg></g></g></svg></g><defs></defs></svg><rect width="395.52" height="247.2" fill="none" stroke="none" visibility="hidden"></rect></g></svg></g></svg>