<?xml version="1.0" standalone="no"?>
<!DOCTYPE svg PUBLIC "-//W3C//DTD SVG 20010904//EN"
 "http://www.w3.org/TR/2001/REC-SVG-20010904/DTD/svg10.dtd">
<svg version="1.0" xmlns="http://www.w3.org/2000/svg"
 width="1733.000000pt" height="882.000000pt" viewBox="0 0 1733.000000 882.000000"
 preserveAspectRatio="xMidYMid meet">
<metadata>
Created by potrace 1.10, written by Peter Selinger 2001-2011
</metadata>
<g transform="translate(0.000000,882.000000) scale(0.100000,-0.100000)"
fill="#000000" stroke="none">
<path d="M237 8729 c6 -31 6 -31 -27 -24 -25 5 -31 4 -28 -6 3 -8 16 -13 32
-11 23 2 26 -1 26 -28 0 -22 -5 -30 -17 -31 -11 0 -13 -3 -5 -6 17 -7 15 -23
-3 -23 -8 0 -15 -4 -15 -10 0 -5 5 -10 10 -10 18 0 11 -20 -7 -21 -11 0 -13
-3 -5 -6 18 -7 15 -33 -5 -34 -11 0 -13 -3 -5 -6 18 -7 15 -33 -5 -34 -11 0
-13 -3 -5 -6 18 -7 15 -33 -5 -34 -11 0 -13 -3 -5 -6 17 -7 15 -23 -3 -23 -8
0 -15 -4 -15 -10 0 -5 5 -10 10 -10 18 0 11 -20 -7 -21 -11 0 -13 -3 -5 -6 18
-7 15 -33 -5 -34 -11 0 -13 -3 -5 -6 18 -7 15 -33 -5 -34 -11 0 -13 -3 -5 -6
6 -2 12 -11 12 -19 0 -9 -4 -13 -9 -9 -5 3 -12 1 -16 -5 -3 -5 -1 -10 4 -10
19 0 12 -20 -6 -21 -11 0 -13 -3 -5 -6 18 -7 15 -33 -5 -34 -11 0 -13 -3 -5
-6 18 -7 15 -33 -5 -34 -11 0 -13 -3 -5 -6 18 -7 15 -33 -5 -33 -15 0 -16 -2
-3 -10 12 -8 12 -12 2 -18 -7 -5 -10 -16 -7 -24 4 -11 0 -18 -12 -21 -16 -4
-16 -5 -1 -6 22 -1 12 -31 -11 -32 -13 0 -13 -2 3 -8 17 -7 17 -8 2 -24 -10
-9 -13 -17 -7 -17 6 0 8 -7 5 -15 -4 -8 -10 -12 -15 -9 -5 3 -9 0 -9 -5 0 -6
5 -11 10 -11 7 0 7 -6 0 -19 -7 -14 -9 -236 -8 -678 l3 -658 1747 0 1748 0 0
118 0 117 83 0 c77 0 85 -2 105 -25 35 -40 29 -55 -23 -55 -41 0 -45 -2 -45
-25 0 -14 5 -25 11 -25 7 0 10 -18 7 -47 l-3 -48 113 -3 112 -3 0 51 c0 27 5
50 10 50 6 0 10 11 10 25 0 23 -3 25 -50 25 -59 0 -64 13 -22 53 l28 27 192 0
192 0 0 -40 c0 -29 -4 -40 -15 -40 -9 0 -15 -9 -15 -25 0 -14 5 -25 10 -25 6
0 10 -22 10 -50 l0 -50 110 0 110 0 0 50 c0 28 5 50 10 50 6 0 10 11 10 25 0
16 -6 25 -15 25 -13 0 -15 34 -15 245 0 211 2 245 15 245 10 0 15 10 15 30 l0
31 -132 -3 c-131 -3 -133 -3 -136 -26 -3 -17 2 -25 17 -29 20 -5 21 -11 21
-183 0 -164 -1 -178 -17 -175 -10 2 -21 4 -24 4 -3 1 -11 12 -17 26 -9 19 -9
25 1 25 9 0 9 2 0 8 -8 5 -9 13 -3 22 8 12 10 12 15 -2 4 -10 5 -21 2 -25 -3
-5 1 -17 9 -28 13 -18 14 -18 14 0 0 27 -36 98 -64 124 -19 18 -28 20 -48 12
-14 -5 -29 -7 -33 -3 -3 4 -12 7 -18 8 -7 0 -20 2 -31 2 -16 2 -16 4 -5 18 11
14 13 14 22 -2 7 -12 11 -13 17 -4 6 9 12 9 30 0 12 -6 24 -9 27 -6 12 12 -69
36 -122 36 -53 0 -134 -24 -122 -36 3 -3 14 -1 25 5 33 18 47 13 28 -8 -15
-16 -23 -18 -44 -10 -24 9 -30 7 -54 -20 l-28 -31 0 345 0 345 21 -3 c12 -1
24 3 26 10 3 9 -4 10 -29 3 -18 -6 -42 -8 -53 -5 -11 3 -14 2 -7 -1 9 -4 12
-93 11 -397 -1 -216 -3 -385 -6 -375 -2 9 -15 19 -28 22 -13 3 -23 12 -21 19
1 6 1 9 -1 4 -3 -4 -8 -5 -11 -3 -4 2 -5 -16 -3 -40 2 -27 -1 -44 -8 -44 -12
0 -15 67 -5 94 8 22 30 20 46 -3 11 -15 13 13 11 170 -2 104 -4 274 -5 379
l-3 189 55 3 c41 2 55 7 55 18 0 8 -10 16 -22 18 -25 4 -33 42 -10 42 20 0 65
51 78 88 l11 32 205 0 c158 0 204 3 201 12 -3 7 -24 17 -49 21 -27 5 -56 20
-75 38 -55 53 -114 58 -184 15 -56 -34 -103 -29 -150 15 -38 36 -40 41 -40 97
0 40 -5 64 -15 72 -11 9 -15 42 -17 143 -2 90 -7 132 -15 134 -9 3 -13 -33
-15 -136 -3 -133 -2 -140 17 -144 11 -3 5 -3 -12 -1 l-33 3 0 -68 c0 -62 -2
-69 -25 -81 -87 -46 -84 -189 5 -235 35 -18 39 -42 8 -47 -17 -2 -23 -10 -25
-30 -1 -24 2 -28 23 -28 l24 0 0 -345 0 -345 -28 31 c-24 27 -30 29 -54 20
-14 -5 -29 -7 -33 -3 -3 4 -12 7 -18 8 -7 0 -20 2 -31 2 -16 2 -16 4 -5 18 11
14 13 14 22 -2 7 -12 11 -13 17 -4 6 9 12 9 30 0 12 -6 24 -9 27 -6 9 8 -62
36 -91 36 -15 0 -25 7 -29 20 -3 12 -14 20 -26 20 -19 0 -21 6 -21 74 0 41 4
78 10 81 31 19 -5 25 -159 25 l-169 0 5 -67 c2 -38 5 -78 7 -90 3 -18 -2 -23
-20 -23 -13 0 -24 -4 -24 -10 0 -6 -57 -10 -150 -10 l-150 0 0 60 c0 47 3 60
15 60 10 0 15 10 15 30 l0 30 -110 0 -110 0 0 25 c0 16 6 25 15 25 8 0 15 5
15 10 0 6 -4 10 -10 10 -5 0 -10 7 -10 15 0 8 -4 15 -8 15 -4 0 -14 17 -21 37
l-14 38 -16 -35 c-9 -19 -19 -37 -22 -40 -13 -10 -20 -50 -10 -50 6 0 11 -11
11 -25 0 -22 -4 -25 -37 -25 -31 0 -45 7 -77 41 -43 46 -106 78 -153 79 l-33
0 0 320 0 320 125 0 c115 0 125 2 125 18 0 30 -34 54 -72 51 -23 -2 -46 6 -75
25 -28 19 -57 29 -85 30 -26 1 -65 13 -98 31 -54 29 -57 30 -210 30 -150 0
-157 -1 -207 -28 -89 -47 -83 -5 -83 -584 l0 -513 -135 0 c-83 0 -135 4 -135
10 0 6 -10 10 -21 10 -21 0 -21 4 -17 90 l4 90 -63 0 -63 0 -2 308 c0 169 0
315 0 325 1 11 -2 16 -10 11 -8 -5 -9 0 -6 14 4 12 2 22 -4 22 -6 0 -8 9 -5
20 3 11 1 20 -4 20 -14 0 -11 28 4 33 7 3 4 6 -7 6 -13 1 -16 6 -12 18 4 9 1
20 -6 25 -10 6 -10 10 2 18 13 8 12 10 -2 10 -21 0 -24 26 -6 33 8 3 6 6 -4 6
-21 1 -24 27 -5 34 7 3 5 6 -5 6 -21 1 -24 27 -5 34 7 3 5 6 -5 6 -20 1 -25
21 -5 21 6 0 3 7 -8 16 -17 13 -18 16 -5 24 13 8 12 10 -2 10 -21 0 -24 26 -5
33 7 3 5 6 -5 6 -21 1 -24 27 -5 34 7 3 5 6 -5 6 -19 1 -26 21 -8 21 6 0 10 5
10 10 0 6 -7 10 -15 10 -8 0 -15 5 -15 10 0 6 5 10 12 10 6 0 3 7 -8 16 -14
11 -16 17 -6 21 10 4 9 9 -5 20 -14 11 -15 16 -5 20 10 4 9 8 -5 19 -16 12
-16 15 -3 24 13 8 13 10 -2 10 -10 0 -18 5 -18 10 0 6 5 10 10 10 6 0 10 5 10
11 0 5 -4 8 -9 4 -5 -3 -13 0 -17 6 -3 6 -1 15 6 19 8 5 7 9 -4 13 -9 4 -16
18 -16 32 0 24 3 26 30 20 24 -5 30 -3 30 10 0 13 -6 15 -31 10 -30 -7 -31 -6
-24 24 5 24 3 31 -9 31 -12 0 -14 -7 -9 -31 6 -31 6 -31 -27 -24 -25 5 -31 4
-28 -6 3 -8 16 -13 32 -11 23 2 26 -1 26 -28 0 -22 -5 -30 -17 -31 -11 0 -13
-3 -5 -6 17 -7 15 -23 -3 -23 -8 0 -15 -4 -15 -10 0 -5 5 -10 10 -10 18 0 11
-20 -7 -21 -11 0 -13 -3 -5 -6 18 -7 15 -33 -5 -34 -11 0 -13 -3 -5 -6 18 -7
15 -33 -5 -34 -11 0 -13 -3 -5 -6 18 -7 15 -33 -5 -34 -11 0 -13 -3 -5 -6 17
-7 15 -23 -3 -23 -8 0 -15 -4 -15 -10 0 -5 5 -10 10 -10 18 0 11 -20 -7 -21
-11 0 -13 -3 -5 -6 18 -7 15 -33 -5 -34 -11 0 -13 -3 -5 -6 18 -7 15 -33 -5
-34 -11 0 -13 -3 -6 -6 7 -2 13 -11 13 -19 0 -9 -4 -13 -9 -9 -5 3 -12 1 -16
-5 -3 -5 -1 -10 4 -10 19 0 12 -20 -6 -21 -11 0 -13 -3 -5 -6 18 -7 15 -33 -5
-34 -17 0 -17 -1 -1 -7 19 -8 12 -25 -12 -35 -12 -4 -12 -6 2 -6 22 -1 12 -31
-11 -32 -12 0 -11 -2 4 -9 19 -7 19 -8 2 -15 -12 -5 -16 -14 -12 -26 5 -14 1
-19 -12 -20 -17 0 -17 -1 1 -8 17 -7 17 -8 2 -23 -10 -11 -12 -18 -5 -20 8 -3
6 -10 -5 -21 -10 -9 -13 -17 -7 -17 6 0 8 -7 5 -15 -4 -8 -10 -12 -15 -9 -5 3
-9 0 -9 -5 0 -6 4 -11 9 -11 6 0 6 -12 -1 -31 -7 -20 -9 -108 -6 -250 4 -194
3 -219 -11 -219 -13 0 -13 2 -3 9 11 6 10 10 -4 15 -16 6 -16 8 -4 16 12 8 11
10 -5 10 -17 0 -17 2 -5 10 12 7 12 10 1 10 -7 0 -11 6 -7 15 3 8 0 15 -7 15
-8 0 -6 4 3 10 13 8 13 10 -2 10 -12 0 -15 5 -11 17 4 11 3 14 -5 9 -7 -4 -12
-3 -12 3 0 5 6 12 13 14 6 3 3 6 -8 6 -17 1 -17 3 -5 11 13 8 12 10 -2 10 -21
0 -24 16 -5 23 6 3 3 6 -8 6 -17 1 -17 3 -5 11 13 8 12 10 -4 10 -15 0 -16 3
-6 15 10 12 9 15 -6 15 -16 0 -17 2 -4 10 12 8 12 10 -5 10 -15 0 -17 3 -7 9
11 6 10 10 -4 15 -16 6 -16 8 -4 16 12 8 11 10 -5 10 -17 0 -17 2 -5 10 12 7
12 10 1 10 -7 0 -11 6 -7 15 3 8 1 15 -5 15 -6 0 -7 5 -4 10 3 6 1 10 -6 10
-7 0 -10 3 -6 6 3 4 0 13 -8 21 -8 8 -15 23 -15 34 0 16 6 20 27 17 16 -2 28
2 31 11 3 10 -3 11 -28 6 -31 -7 -31 -6 -28 24 2 16 -1 30 -7 30 -5 0 -9 -14
-7 -30 3 -30 3 -31 -28 -24 -25 5 -31 4 -28 -6 3 -9 15 -13 31 -11 23 3 27 0
27 -23 0 -14 -7 -28 -15 -31 -8 -4 -12 -10 -9 -15 3 -5 -1 -9 -8 -9 -9 0 -9
-3 2 -10 12 -8 12 -10 -5 -11 -11 0 -14 -3 -7 -6 18 -7 15 -23 -5 -23 -15 0
-16 -2 -3 -10 12 -8 12 -10 -5 -11 -11 0 -14 -3 -7 -6 18 -7 15 -23 -5 -23
-15 0 -16 -2 -3 -10 12 -8 12 -10 -5 -10 -17 0 -17 -2 -5 -10 13 -8 12 -10 -4
-10 -15 0 -16 -3 -6 -15 10 -12 9 -15 -6 -15 -16 0 -17 -2 -4 -10 12 -8 12
-10 -5 -11 -11 0 -14 -3 -7 -6 18 -7 15 -23 -5 -23 -15 0 -15 -2 -4 -9 11 -7
10 -10 -5 -14 -17 -4 -17 -5 -1 -6 10 0 15 -6 12 -11 -4 -6 -11 -7 -17 -4 -7
5 -9 1 -5 -9 4 -12 1 -17 -11 -18 -14 0 -14 -2 3 -9 20 -9 20 -9 0 -9 -15 -1
-17 -3 -6 -10 11 -7 10 -11 -5 -20 -15 -8 -15 -11 -4 -11 10 -1 9 -4 -5 -10
-11 -5 -14 -9 -7 -9 17 -1 15 -21 -3 -21 -13 0 -15 33 -17 233 0 127 0 240 0
250 1 11 -2 16 -10 11 -8 -5 -9 0 -6 14 4 12 2 22 -4 22 -6 0 -8 9 -5 20 3 11
1 20 -5 20 -6 0 -8 9 -5 20 3 11 1 20 -5 20 -5 0 -6 9 -3 20 4 12 2 20 -5 20
-7 0 -10 7 -6 15 3 8 1 15 -4 15 -14 0 -12 27 3 33 7 3 5 6 -5 6 -21 1 -24 27
-5 34 7 3 5 6 -5 6 -21 1 -24 27 -5 34 7 3 5 6 -5 6 -20 1 -25 21 -5 21 6 0 3
7 -8 16 -17 13 -18 16 -5 24 13 8 12 10 -2 10 -21 0 -24 26 -5 33 7 3 5 6 -5
6 -21 1 -24 27 -5 34 7 3 5 6 -5 6 -19 1 -26 21 -8 21 6 0 10 5 10 10 0 6 -7
10 -15 10 -8 0 -15 5 -15 10 0 6 5 10 12 10 6 0 3 7 -8 16 -14 11 -16 17 -6
21 10 4 9 8 -5 19 -16 12 -16 15 -3 24 13 8 13 10 -2 10 -21 0 -24 26 -5 33 7
3 5 6 -5 6 -19 1 -26 21 -8 21 6 0 10 5 10 11 0 5 -4 8 -9 4 -5 -3 -13 0 -17
6 -3 6 -1 15 6 19 8 5 7 9 -4 13 -9 4 -16 18 -16 32 0 24 3 26 30 20 24 -5 30
-3 30 10 0 13 -6 15 -31 10 -31 -7 -32 -7 -26 24 5 23 3 31 -8 31 -11 0 -13
-8 -8 -31z m87 -401 c42 -164 76 -303 76 -309 0 -6 -5 -9 -11 -7 -7 2 -27 69
-45 148 -19 80 -48 206 -66 280 l-32 135 -12 -42 c-7 -23 -39 -164 -71 -312
-47 -222 -61 -271 -75 -271 -14 0 -3 52 70 339 48 187 88 339 88 338 1 -1 36
-136 78 -299z m822 -6 c68 -269 80 -332 58 -309 -4 4 -36 129 -71 279 -35 149
-65 273 -67 276 -5 4 -37 -135 -98 -415 -35 -164 -46 -203 -59 -203 -14 0 -3
53 70 339 47 187 87 339 88 338 0 -1 36 -138 79 -305z m-838 -60 c33 -139 54
-251 48 -249 -5 2 -33 98 -61 213 -33 132 -54 202 -58 189 -3 -11 -27 -120
-53 -242 -26 -123 -51 -223 -56 -223 -12 0 -12 3 52 296 33 151 60 278 61 282
1 14 10 -19 67 -266z m820 0 c33 -139 54 -251 49 -249 -6 2 -34 97 -62 213
-32 132 -54 202 -58 189 -3 -11 -27 -120 -53 -242 -26 -123 -51 -223 -56 -223
-12 0 -12 -1 52 295 33 152 60 279 61 283 1 15 11 -22 67 -266z m-802 -249
c-3 -6 -1 -13 4 -15 5 -2 12 -15 15 -30 11 -42 -17 -36 -38 7 -9 19 -21 35
-27 35 -5 0 -9 3 -9 8 4 22 -3 32 -21 32 -15 0 -28 -16 -47 -55 -15 -30 -33
-55 -40 -55 -17 0 -18 -3 21 177 19 87 40 185 46 218 l13 60 43 -185 c25 -101
42 -190 40 -197z m820 5 c-2 -9 0 -18 4 -20 5 -2 12 -15 15 -30 11 -42 -17
-36 -38 7 -9 19 -21 35 -27 35 -5 0 -9 3 -9 8 4 22 -3 32 -21 32 -15 0 -28
-16 -47 -55 -15 -30 -33 -55 -40 -55 -7 0 -13 3 -13 8 0 4 20 101 45 217 25
115 45 214 46 220 0 5 20 -71 45 -170 24 -99 42 -188 40 -197z m1019 154 c16
-9 -18 -11 -164 -12 -101 0 -182 3 -178 6 24 25 302 30 342 6z m66 -33 c19
-10 19 -11 -8 -32 -26 -21 -37 -22 -260 -23 -249 -1 -262 2 -207 45 25 20 39
21 241 21 132 0 222 -4 234 -11z m157 -49 c33 -23 48 -28 72 -24 30 6 70 -16
70 -38 0 -4 -105 -8 -232 -7 -214 1 -229 2 -179 14 29 7 65 24 80 38 62 58
125 64 189 17z m1422 10 c0 -5 -16 -10 -35 -10 -19 0 -35 5 -35 10 0 6 16 10
35 10 19 0 35 -4 35 -10z m0 -30 c0 -5 -16 -10 -35 -10 -19 0 -35 5 -35 10 0
6 16 10 35 10 19 0 35 -4 35 -10z m-2037 -35 c-17 -36 -23 -34 -37 13 -7 19
-4 22 23 22 l31 0 -17 -35z m144 -10 c25 -45 32 -31 7 16 l-15 30 43 -3 c38
-3 45 -7 65 -43 25 -44 32 -31 8 15 l-16 30 39 0 c21 0 43 -5 50 -12 9 -9 12
-9 12 0 0 7 14 12 38 11 l37 -1 -44 -14 c-29 -9 -47 -10 -51 -4 -4 6 -15 -7
-26 -27 -18 -34 -25 -38 -62 -41 -47 -4 -48 -3 -26 39 8 17 13 33 10 36 -2 3
-14 -13 -26 -36 -19 -38 -24 -41 -60 -41 -45 0 -46 0 -24 41 8 17 13 33 11 35
-2 3 -10 -9 -17 -26 -16 -38 -24 -38 -41 2 -7 17 -15 26 -17 20 -2 -6 4 -24
13 -41 l16 -31 -41 0 -41 0 17 33 c27 53 35 58 78 55 36 -3 43 -8 63 -43z
m1893 15 c0 -5 -16 -10 -35 -10 -19 0 -35 5 -35 10 0 6 16 10 35 10 19 0 35
-4 35 -10z m-2068 -42 c6 -13 5 -18 -7 -18 -10 0 -15 10 -14 33 0 17 3 25 6
17 3 -8 10 -23 15 -32z m-1476 -8 c1 -17 -2 -28 -6 -25 -5 3 -8 19 -8 35 1 38
11 30 14 -10z m820 -7 c-5 -11 -1 -14 13 -10 14 3 18 1 14 -9 -8 -22 -46 3
-40 27 3 10 1 19 -4 19 -5 0 -9 -11 -9 -25 0 -14 -3 -25 -7 -25 -5 0 -8 13 -8
29 0 16 3 27 7 25 4 -2 10 1 14 7 10 16 27 -18 20 -38z m-846 7 c0 -10 -6 -22
-12 -26 -7 -4 -10 -4 -6 1 4 4 2 15 -5 23 -10 13 -9 14 2 7 11 -6 13 -4 8 9
-4 10 -3 15 3 11 6 -3 10 -15 10 -25z m3570 20 c0 -5 -16 -10 -35 -10 -19 0
-35 5 -35 10 0 6 16 10 35 10 19 0 35 -4 35 -10z m-1680 -12 c0 -9 3 -9 8 -2
12 17 89 17 95 -1 5 -12 -2 -15 -33 -15 -25 0 -40 5 -40 12 0 9 -3 9 -12 0
-13 -13 -88 -17 -88 -4 0 15 13 22 42 22 16 0 28 -5 28 -12z m150 -3 c0 -8 -7
-15 -15 -15 -9 0 -12 6 -9 15 4 8 10 15 15 15 5 0 9 -7 9 -15z m-1906 -12 c2
-10 8 -33 11 -51 7 -33 6 -33 -26 -30 -37 3 -53 28 -19 28 20 0 22 4 17 35 -6
36 8 50 17 18z m45 -27 c14 -56 14 -56 -3 -56 -8 0 -17 15 -20 36 -4 19 -10
42 -13 50 -3 8 1 14 10 14 9 0 19 -17 26 -44z m775 27 c2 -10 8 -33 11 -51 7
-33 6 -33 -26 -30 -37 3 -53 28 -19 28 20 0 22 4 17 35 -6 36 8 50 17 18z m45
-27 c14 -56 14 -56 -3 -56 -8 0 -17 15 -20 36 -4 19 -10 42 -13 50 -3 8 1 14
10 14 9 0 19 -17 26 -44z m2584 17 l32 -18 -42 -3 c-24 -2 -62 -2 -85 0 l-43
4 35 16 c45 22 64 22 103 1z m-3533 -13 c-6 -11 -7 -20 -3 -21 4 0 -1 -4 -12
-9 -17 -7 -16 -9 10 -10 l30 -2 -30 -8 -30 -8 33 -1 c17 0 32 -5 32 -10 0 -4
-11 -6 -24 -4 -13 3 -27 -1 -31 -8 -5 -8 -4 -10 3 -5 7 4 12 2 12 -3 0 -16
-16 -13 -30 4 -7 8 -24 15 -39 15 -20 0 -23 -2 -11 -10 8 -5 11 -12 7 -17 -8
-7 -27 14 -27 30 0 4 12 8 28 8 23 2 24 2 5 6 -13 2 -23 8 -23 13 0 14 35 30
63 30 14 0 27 7 31 15 3 8 8 15 11 15 3 0 1 -9 -5 -20z m1445 -22 l-6 -33 15
33 c14 31 18 33 58 30 38 -3 45 -8 66 -43 15 -27 21 -32 17 -15 -4 14 -11 29
-16 35 -18 19 -8 26 33 23 39 -3 45 -7 61 -42 10 -21 20 -36 23 -33 3 3 -2 19
-10 36 -22 42 -21 43 26 39 39 -3 45 -7 61 -42 10 -21 20 -36 23 -33 3 3 -2
19 -10 36 -22 41 -21 41 24 41 36 0 41 -3 60 -40 11 -21 20 -42 20 -45 0 -3
-16 -5 -35 -5 -40 0 -40 1 -19 41 23 46 11 45 -15 -1 -20 -36 -26 -40 -62 -40
-43 0 -45 3 -24 40 8 14 14 30 14 35 1 6 -9 -8 -22 -30 -20 -36 -27 -40 -65
-43 -47 -4 -48 -3 -26 39 8 17 14 33 11 35 -2 2 -12 -13 -23 -34 -18 -33 -25
-37 -62 -40 -46 -3 -48 0 -27 38 8 14 14 30 14 35 1 6 -9 -8 -22 -30 -18 -31
-29 -41 -53 -43 -26 -3 -33 1 -38 20 -9 36 -7 68 5 68 7 0 8 -12 4 -32z m545
8 c0 -51 -11 -66 -46 -66 -29 0 -36 5 -54 40 -11 21 -20 42 -20 45 0 3 27 4
60 4 54 -1 60 -4 60 -23z m1895 -18 c20 -17 58 -37 83 -44 42 -11 24 -13 -166
-13 -212 -1 -213 -1 -202 20 9 16 20 20 50 18 24 -2 46 3 57 13 33 28 57 37
100 38 33 0 50 -7 78 -32z m-3068 15 c16 -6 15 -8 -7 -14 -24 -7 -24 -7 5 -9
l30 -2 -30 -8 -30 -8 33 -1 c17 0 32 -5 32 -10 0 -4 -11 -6 -24 -4 -13 3 -27
-1 -31 -8 -5 -8 -4 -10 3 -5 7 4 12 2 12 -3 0 -16 -16 -13 -30 4 -7 8 -24 15
-39 15 -20 0 -23 -2 -11 -10 8 -5 11 -12 7 -17 -8 -7 -27 14 -27 30 0 4 12 8
28 8 23 2 24 2 5 6 -27 5 -29 18 -5 32 20 12 53 14 79 4z m-1011 -27 c-6 -23
-3 -25 36 -29 34 -3 31 -4 -19 -5 l-62 -2 10 30 c13 37 44 42 35 6z m83 8 c11
-9 -15 -24 -44 -24 -28 0 -32 3 -28 20 4 15 11 18 37 13 17 -3 33 -7 35 -9z
m737 -8 c-6 -23 -3 -25 36 -29 37 -3 35 -4 -14 -5 -44 -2 -58 1 -58 12 0 26
12 46 27 46 11 0 13 -7 9 -24z m83 8 c10 -9 -14 -24 -40 -24 -22 0 -29 5 -29
20 0 17 5 19 33 13 17 -3 34 -7 36 -9z m2882 -6 c1 -7 0 -17 -1 -23 -1 -5 -3
-16 -3 -22 0 -10 -30 -13 -114 -13 -121 0 -128 4 -103 51 10 17 22 19 115 19
77 0 105 -3 106 -12z m-3463 -35 c-15 -2 -42 -2 -60 0 -18 2 -6 4 27 4 33 0
48 -2 33 -4z m820 0 c-15 -2 -42 -2 -60 0 -18 2 -6 4 27 4 33 0 48 -2 33 -4z
m-1068 -123 c0 -63 4 -110 10 -110 5 0 6 -14 3 -32 -3 -18 -8 -71 -10 -118 -3
-47 -9 -89 -15 -95 -8 -7 -9 -6 -4 3 4 7 1 12 -8 12 -15 0 -65 -85 -74 -125
-2 -11 -6 -80 -9 -152 l-5 -133 87 0 87 0 -4 133 c-2 72 -7 139 -12 148 -6 14
0 17 37 20 l45 4 -14 -27 c-10 -19 -14 -65 -14 -153 l0 -126 83 3 82 3 3 110
c3 116 -4 155 -44 244 -20 42 -29 52 -44 48 -17 -4 -19 3 -24 87 -7 129 -6
126 -17 126 -5 0 -9 5 -9 10 0 6 7 10 15 10 12 0 15 19 15 110 l0 110 58 0 57
0 2 -655 c2 -416 -1 -655 -7 -655 -6 0 -10 47 -10 113 0 113 -2 123 -51 245
-21 51 -50 43 -78 -20 -32 -72 -33 -77 -38 -215 -2 -68 -8 -123 -14 -123 -5 0
-9 49 -9 113 0 113 -2 123 -51 245 -21 50 -49 43 -78 -21 -31 -69 -32 -72 -38
-214 -2 -68 -9 -123 -14 -123 -5 0 -9 264 -9 655 l0 655 60 0 60 0 0 -110z
m820 0 c0 -63 4 -110 10 -110 5 0 6 -14 3 -32 -3 -18 -8 -71 -10 -118 -3 -47
-9 -89 -15 -95 -8 -7 -9 -6 -4 3 4 7 1 12 -8 12 -15 0 -65 -85 -74 -125 -2
-11 -6 -80 -9 -152 l-5 -133 85 0 c76 0 85 2 90 20 4 16 13 20 49 19 23 -1 33
-4 21 -6 -19 -4 -21 -8 -13 -24 9 -16 7 -19 -10 -19 -13 0 -20 7 -20 20 0 11
-3 20 -7 20 -5 0 -8 -109 -7 -242 1 -180 -1 -211 -5 -118 -4 79 -12 140 -23
165 -9 22 -22 55 -29 73 -21 50 -49 43 -78 -21 -31 -69 -32 -72 -38 -214 -2
-68 -9 -123 -14 -123 -5 0 -9 264 -9 655 l0 655 60 0 60 0 0 -110z m275 -190
c0 -190 -4 -299 -10 -297 -5 2 -12 17 -16 33 -3 16 -16 49 -28 72 -17 33 -27
43 -41 39 -17 -4 -19 4 -23 87 -7 113 -8 119 -21 128 -6 4 -4 9 7 14 15 5 17
21 17 115 l0 109 58 0 57 0 0 -300z m525 295 c0 -4 -7 -20 -16 -36 -8 -17 -13
-33 -11 -35 2 -3 10 9 17 26 16 38 24 38 41 -2 7 -17 15 -26 17 -20 2 6 -4 24
-13 41 l-16 31 41 0 41 0 -23 -42 c-21 -39 -27 -43 -66 -46 -44 -3 -45 -3 -66
66 -7 19 -4 22 23 22 17 0 31 -2 31 -5z m227 -40 c13 -22 23 -35 22 -30 0 6
-6 21 -14 35 -21 38 -19 41 27 38 39 -3 45 -7 61 -42 10 -21 20 -36 23 -33 3
3 -2 19 -10 36 -22 41 -21 41 23 41 36 0 42 -4 62 -40 26 -46 38 -47 15 -1
-21 40 -21 41 15 41 24 0 30 -3 25 -16 -3 -9 -8 -28 -11 -42 -5 -26 -5 -26 9
3 l15 30 1 -31 0 -31 -60 -2 c-33 0 -60 2 -60 6 1 5 7 19 15 33 8 14 14 30 14
35 1 6 -9 -8 -22 -30 -20 -36 -27 -40 -65 -43 -45 -3 -50 2 -27 32 8 11 15 27
15 35 0 9 -10 -2 -23 -24 -20 -36 -27 -40 -65 -43 -46 -3 -48 0 -27 38 8 14
14 30 14 35 1 6 -9 -8 -22 -30 -20 -36 -27 -40 -66 -43 -24 -2 -41 0 -39 5 35
74 40 76 58 33 7 -17 15 -29 17 -26 3 3 -2 19 -11 37 -9 18 -16 34 -16 36 0 2
19 3 42 1 38 -3 45 -7 65 -43z m-1807 5 c0 -11 -7 -20 -15 -20 -15 0 -21 21
-8 33 12 13 23 7 23 -13z m30 0 c0 -11 -4 -20 -10 -20 -5 0 -10 9 -10 20 0 11
5 20 10 20 6 0 10 -9 10 -20z m40 0 c0 -11 -4 -20 -10 -20 -5 0 -10 9 -10 20
0 11 5 20 10 20 6 0 10 -9 10 -20z m40 0 c0 -11 -7 -20 -15 -20 -8 0 -15 9
-15 20 0 11 7 20 15 20 8 0 15 -9 15 -20z m710 0 c0 -11 -4 -20 -10 -20 -5 0
-10 9 -10 20 0 11 5 20 10 20 6 0 10 -9 10 -20z m30 0 c0 -11 -4 -20 -10 -20
-5 0 -10 9 -10 20 0 11 5 20 10 20 6 0 10 -9 10 -20z m40 0 c0 -11 -4 -20 -10
-20 -5 0 -10 9 -10 20 0 11 5 20 10 20 6 0 10 -9 10 -20z m40 0 c0 -11 -7 -20
-15 -20 -8 0 -15 9 -15 20 0 11 7 20 15 20 8 0 15 -9 15 -20z m2580 -5 c-8
-10 5 -12 63 -11 65 1 73 3 69 18 -2 10 1 18 7 18 6 0 11 -4 11 -9 0 -5 3 -16
6 -25 5 -14 -8 -16 -106 -16 -68 0 -109 4 -105 10 3 5 13 6 21 3 10 -4 17 2
21 16 3 11 9 18 15 15 5 -3 5 -11 -2 -19z m-2991 -173 c45 -119 65 -182 56
-182 -7 0 -35 59 -65 138 -62 164 -66 173 -74 152 -3 -8 -32 -89 -65 -180 -41
-115 -64 -166 -75 -168 -15 -3 -16 0 -3 30 7 18 45 115 83 215 37 100 70 181
71 180 1 -2 33 -85 72 -185z m1010 141 c1 -7 -3 -13 -9 -13 -5 0 -10 15 -9 33
0 27 2 29 9 12 5 -11 9 -26 9 -32z m-1529 -13 c0 -11 -7 -20 -15 -20 -15 0
-21 21 -8 33 12 13 23 7 23 -13z m30 0 c0 -11 -4 -20 -10 -20 -5 0 -10 9 -10
20 0 11 5 20 10 20 6 0 10 -9 10 -20z m40 0 c0 -11 -4 -20 -10 -20 -5 0 -10 9
-10 20 0 11 5 20 10 20 6 0 10 -9 10 -20z m40 0 c0 -11 -7 -20 -15 -20 -8 0
-15 9 -15 20 0 11 7 20 15 20 8 0 15 -9 15 -20z m710 0 c0 -11 -4 -20 -10 -20
-5 0 -10 9 -10 20 0 11 5 20 10 20 6 0 10 -9 10 -20z m30 0 c0 -11 -4 -20 -10
-20 -5 0 -10 9 -10 20 0 11 5 20 10 20 6 0 10 -9 10 -20z m40 0 c0 -11 -4 -20
-10 -20 -5 0 -10 9 -10 20 0 11 5 20 10 20 6 0 10 -9 10 -20z m40 0 c0 -11 -7
-20 -15 -20 -8 0 -15 9 -15 20 0 11 7 20 15 20 8 0 15 -9 15 -20z m2700 -2 c0
-4 -11 -8 -25 -8 -14 0 -25 4 -25 10 0 5 11 9 25 8 14 -1 25 -6 25 -10z
m-2098 -25 c-5 -10 -12 -25 -15 -33 -3 -8 -6 0 -6 18 -1 22 4 32 14 32 12 0
13 -5 7 -17z m76 -25 c-19 -35 -29 -44 -56 -46 -37 -4 -37 -5 -16 48 15 37 19
40 56 40 l39 0 -23 -42z m142 2 c11 -21 20 -42 20 -45 0 -3 -16 -5 -35 -5 -38
0 -42 5 -20 34 8 11 15 27 15 35 0 9 -10 -2 -23 -24 -20 -36 -27 -40 -65 -43
l-42 -3 17 35 c9 20 19 36 23 36 3 0 11 -14 18 -32 6 -17 14 -29 18 -26 3 3
-2 20 -10 37 -22 41 -21 41 24 41 36 0 41 -3 60 -40z m59 -2 l-21 -42 -19 35
c-25 47 -24 49 21 49 l40 0 -21 -42z m141 2 c11 -21 20 -42 20 -45 0 -3 -16
-5 -35 -5 -39 0 -41 4 -20 40 8 14 14 30 14 35 0 6 -9 -8 -21 -29 l-20 -40
-19 35 c-25 47 -24 49 21 49 36 0 41 -3 60 -40z m59 3 c-12 -21 -24 -40 -25
-42 -3 -3 -34 67 -34 75 0 2 18 4 41 4 l41 0 -23 -37z m61 7 c0 -16 -2 -30 -4
-30 -2 0 -9 14 -15 30 -8 24 -7 30 5 30 9 0 14 -10 14 -30z m1540 10 c-18 -12
-68 -12 -95 0 -14 6 0 9 45 9 45 1 60 -2 50 -9z m-3610 -20 c0 -11 -7 -20 -15
-20 -15 0 -21 21 -8 33 12 13 23 7 23 -13z m38 8 c9 -9 12 -9 12 0 0 7 5 12
10 12 6 0 10 -8 10 -19 0 -14 -6 -17 -26 -13 -20 4 -25 2 -19 -8 5 -9 4 -11
-3 -6 -13 8 -16 46 -4 46 4 0 13 -5 20 -12z m72 -8 c0 -11 -7 -20 -15 -20 -8
0 -15 9 -15 20 0 11 7 20 15 20 8 0 15 -9 15 -20z m435 -259 c-7 -7 -8 -5 -55
116 -26 67 -47 108 -52 101 -4 -7 -28 -72 -54 -145 -25 -73 -50 -133 -54 -133
-4 0 20 76 53 170 l61 169 52 -136 c29 -76 51 -139 49 -142z m275 259 c0 -11
-6 -20 -14 -20 -9 0 -12 7 -9 20 3 11 9 20 14 20 5 0 9 -9 9 -20z m34 8 c5
-10 7 -10 12 0 8 18 24 15 24 -5 -1 -20 -23 -53 -35 -53 -5 0 0 9 10 20 18 19
17 20 -4 20 -14 0 -20 -4 -15 -12 4 -7 3 -8 -4 -4 -14 8 -16 46 -3 46 5 0 12
-6 15 -12z m76 -8 c0 -11 -7 -20 -15 -20 -8 0 -15 9 -15 20 0 11 7 20 15 20 8
0 15 -9 15 -20z m925 -10 c20 -39 20 -40 -20 -40 l-35 0 17 35 c9 19 18 35 20
35 1 0 9 -13 18 -30z m199 -17 c7 -20 4 -23 -23 -23 -36 0 -36 1 -15 42 17 33
23 30 38 -19z m1536 12 c0 -9 -9 -15 -25 -15 -16 0 -25 6 -25 15 0 9 9 15 25
15 16 0 25 -6 25 -15z m-3587 -36 c3 -12 10 -18 16 -14 14 8 14 -16 0 -35 -9
-13 -10 -13 -6 2 3 9 -1 22 -9 28 -8 7 -14 9 -14 4 0 -4 -5 -3 -11 3 -11 11
-5 33 10 33 5 0 11 -9 14 -21z m105 4 c-2 -9 -10 -17 -19 -18 -12 -2 -15 3
-12 16 6 23 36 26 31 2z m715 -4 c3 -12 10 -18 16 -14 14 8 14 -16 0 -35 -9
-13 -10 -13 -6 2 3 9 -1 22 -9 28 -8 7 -14 9 -14 4 0 -4 -5 -3 -11 3 -11 11
-5 33 10 33 5 0 11 -9 14 -21z m105 4 c-2 -9 -10 -17 -19 -18 -12 -2 -15 3
-12 16 6 23 36 26 31 2z m2682 -3 c11 -7 -3 -10 -47 -10 -36 0 -63 4 -63 10 0
13 90 13 110 0z m-3553 -22 c-2 -7 3 -19 12 -26 14 -11 13 -11 -6 -2 -23 11
-32 40 -12 40 6 0 9 -6 6 -12z m438 -113 c25 -66 49 -126 52 -134 5 -11 0 -13
-24 -8 -19 4 -38 1 -52 -9 -19 -14 -21 -14 -21 5 0 25 20 38 31 20 7 -12 9
-12 9 0 0 11 3 11 15 1 10 -9 15 -9 15 -1 0 6 -4 11 -8 11 -5 0 -14 16 -22 35
-11 28 -19 35 -41 35 -24 0 -31 -8 -51 -50 -13 -27 -29 -50 -35 -50 -7 0 -13
3 -13 6 0 11 93 265 95 262 2 -2 24 -57 50 -123z m382 113 c-2 -7 3 -19 12
-26 14 -11 13 -11 -6 -2 -23 11 -32 40 -12 40 6 0 9 -6 6 -12z m703 7 c0 -4
-7 -20 -16 -36 -8 -17 -13 -33 -10 -36 2 -3 12 10 22 28 l17 33 18 -35 c25
-46 24 -47 -21 -45 -36 1 -41 4 -55 36 l-15 35 6 -37 c4 -25 2 -38 -5 -38 -12
0 -14 41 -5 78 5 16 14 22 35 22 16 0 29 -2 29 -5z m100 1 c0 -3 -10 -21 -22
-42 l-21 -36 -18 33 c-25 47 -24 49 21 49 22 0 40 -2 40 -4z m79 -38 l-21 -42
-19 35 c-25 47 -24 49 21 49 l40 0 -21 -42z m144 -5 c15 -27 26 -41 26 -33 0
8 -6 26 -14 40 -21 37 -19 40 25 40 l40 0 -24 -49 c-24 -46 -27 -48 -66 -47
-22 0 -40 2 -40 4 0 2 7 17 16 33 23 45 10 47 -16 2 -19 -34 -25 -38 -61 -38
-21 0 -39 1 -39 2 0 9 35 73 40 73 3 0 11 -14 18 -32 6 -17 14 -29 18 -26 3 3
-2 20 -10 37 -22 41 -21 41 22 41 36 0 41 -4 65 -47z m161 25 c11 -42 7 -78
-9 -78 -11 0 -12 5 -5 26 6 14 10 31 9 37 0 7 -5 -1 -11 -17 l-11 -29 -18 34
c-24 46 -24 49 10 49 21 0 30 -6 35 -22z m-353 -37 l16 -38 -38 1 c-22 0 -39
2 -39 3 0 9 35 73 39 73 3 0 13 -18 22 -39z m298 0 l20 -38 -39 1 c-22 0 -40
2 -40 3 0 5 34 73 37 73 1 0 11 -17 22 -39z m1594 -683 c5 6 17 12 29 12 17 0
18 -2 8 -15 -11 -13 -15 -13 -23 -3 -6 9 -7 8 -3 -4 3 -10 4 -18 2 -18 -3 0
-11 -3 -19 -6 -14 -5 -15 38 -14 363 l1 368 6 -355 c3 -195 9 -349 13 -342z
m-3537 685 c16 -6 16 -7 -2 -14 -16 -6 -15 -8 9 -8 15 -1 27 -6 27 -12 0 -6
-9 -9 -20 -6 -13 3 -20 0 -20 -8 0 -20 -20 -29 -33 -16 -23 23 -33 11 -30 -34
2 -26 -1 -45 -7 -45 -5 0 -10 12 -10 28 0 15 -3 37 -6 50 -5 19 -2 22 22 23
28 1 28 1 4 8 l-24 7 24 17 c27 19 39 21 66 10z m820 0 c16 -6 16 -7 -2 -14
-16 -6 -15 -8 9 -8 15 -1 27 -6 27 -12 0 -6 -9 -9 -20 -6 -13 3 -20 0 -20 -8
0 -21 -17 -27 -39 -13 -17 10 -23 10 -33 -1 -7 -8 -8 -11 -2 -8 8 5 12 -7 12
-33 0 -22 -3 -40 -9 -40 -5 0 -9 12 -9 28 0 15 -3 37 -6 50 -5 19 -2 22 22 23
28 1 28 1 4 8 l-24 7 24 17 c27 19 39 21 66 10z m-779 -98 c2 -34 -1 -45 -12
-45 -10 0 -14 11 -13 38 0 20 3 40 5 45 10 18 18 3 20 -38z m820 0 c2 -34 -1
-45 -12 -45 -10 0 -14 11 -13 38 0 20 3 40 5 45 10 18 18 3 20 -38z m603 33
c0 -7 -5 -20 -10 -28 -8 -12 -10 -9 -10 13 0 15 5 27 10 27 6 0 10 -6 10 -12z
m127 -33 c25 -45 32 -31 7 16 l-15 30 43 -3 c38 -3 45 -7 65 -43 13 -22 23
-35 22 -30 0 6 -6 21 -14 35 -21 38 -19 41 27 38 38 -3 45 -7 65 -43 13 -22
23 -35 22 -30 0 6 -6 21 -14 35 -21 38 -19 41 27 38 38 -3 45 -7 60 -38 9 -19
17 -38 18 -42 0 -4 -38 -7 -85 -7 -47 0 -85 2 -85 5 0 3 7 19 16 35 23 46 11
45 -15 -1 -20 -36 -26 -40 -62 -40 -44 0 -45 0 -23 41 8 17 13 33 10 36 -2 3
-14 -13 -26 -36 -19 -38 -24 -41 -60 -41 -45 0 -46 0 -24 41 8 17 13 33 11 36
-3 2 -11 -10 -18 -26 -17 -39 -23 -39 -39 -1 -7 17 -15 29 -17 26 -2 -2 3 -20
11 -40 l15 -36 -30 0 c-33 0 -35 7 -14 56 14 33 17 35 57 32 38 -3 45 -7 65
-43z m363 38 c-1 -5 -7 -19 -15 -33 -8 -14 -14 -29 -14 -35 -1 -5 10 8 22 30
26 47 57 59 57 23 0 -53 -11 -68 -46 -68 -29 0 -36 5 -54 40 -11 21 -20 42
-20 45 0 3 16 5 35 5 19 0 35 -3 35 -7z m-1990 -63 c0 -11 -4 -20 -10 -20 -5
0 -10 9 -10 20 0 11 5 20 10 20 6 0 10 -9 10 -20z m40 0 c0 -11 -4 -20 -10
-20 -5 0 -10 9 -10 20 0 11 5 20 10 20 6 0 10 -9 10 -20z m780 0 c0 -11 -4
-20 -10 -20 -5 0 -10 9 -10 20 0 11 5 20 10 20 6 0 10 -9 10 -20z m40 0 c0
-11 -4 -20 -10 -20 -5 0 -10 9 -10 20 0 11 5 20 10 20 6 0 10 -9 10 -20z
m-452 -57 c1 -46 -6 -73 -19 -73 -5 0 -9 7 -9 16 0 9 5 12 12 8 7 -5 8 -3 2 7
-5 8 -9 27 -10 43 -1 20 1 24 7 15 7 -11 9 -10 9 4 0 34 8 16 8 -20z m-438 7
c0 -19 -11 -26 -23 -14 -8 8 3 34 14 34 5 0 9 -9 9 -20z m30 0 c0 -11 -4 -20
-10 -20 -5 0 -10 9 -10 20 0 11 5 20 10 20 6 0 10 -9 10 -20z m40 0 c0 -11 -4
-20 -10 -20 -5 0 -10 9 -10 20 0 11 5 20 10 20 6 0 10 -9 10 -20z m40 0 c0
-11 -7 -20 -15 -20 -8 0 -15 9 -15 20 0 11 7 20 15 20 8 0 15 -9 15 -20z m459
-17 c8 -21 16 -44 19 -51 3 -10 -3 -13 -23 -10 -30 3 -48 28 -21 28 19 0 20 9
6 44 -5 14 -6 26 -2 26 4 0 14 -17 21 -37z m38 -2 c11 -29 20 -38 32 -33 14 5
14 4 -1 -11 -26 -26 -35 -21 -52 30 -19 55 -19 53 -5 53 6 0 18 -18 26 -39z
m213 19 c0 -11 -4 -20 -10 -20 -5 0 -10 9 -10 20 0 11 5 20 10 20 6 0 10 -9
10 -20z m30 0 c0 -11 -4 -20 -10 -20 -5 0 -10 9 -10 20 0 11 5 20 10 20 6 0
10 -9 10 -20z m40 0 c0 -11 -4 -20 -10 -20 -5 0 -10 9 -10 20 0 11 5 20 10 20
6 0 10 -9 10 -20z m40 0 c0 -11 -7 -20 -15 -20 -8 0 -15 9 -15 20 0 11 7 20
15 20 8 0 15 -9 15 -20z m650 15 c0 -2 -8 -18 -19 -35 l-19 -31 -11 32 c-6 18
-11 34 -11 35 0 2 14 4 30 4 17 0 30 -2 30 -5z m128 -43 c16 -28 29 -41 38
-38 8 3 14 -1 14 -9 0 -8 -7 -15 -15 -15 -8 0 -15 5 -15 10 0 6 -18 10 -40 10
-45 0 -46 0 -24 41 8 17 13 33 11 35 -2 3 -10 -9 -17 -26 -16 -38 -24 -38 -41
2 -7 17 -15 26 -17 20 -2 -6 4 -24 13 -41 l16 -31 -41 0 -41 0 17 33 c27 53
35 58 78 55 37 -3 43 -7 64 -46z m99 3 c25 -45 32 -31 7 16 l-15 30 43 -3 c38
-3 45 -7 65 -43 13 -22 23 -35 22 -30 0 6 -6 21 -14 35 -21 38 -19 41 27 38
38 -3 45 -7 65 -43 13 -22 23 -35 22 -30 0 6 -6 21 -14 35 -20 35 -19 40 14
40 31 0 41 -14 41 -60 0 -27 -1 -27 -60 -29 -33 0 -60 1 -60 4 0 3 7 20 16 36
8 17 13 33 10 36 -2 3 -14 -13 -26 -36 -19 -38 -24 -41 -60 -41 -44 0 -46 3
-25 40 8 14 14 30 14 35 1 6 -10 -8 -22 -30 -20 -35 -27 -40 -57 -40 -37 0
-42 13 -26 60 6 16 4 15 -6 -3 -8 -12 -17 -19 -21 -16 -4 4 -7 2 -7 -4 0 -23
-16 -12 -27 19 l-12 30 42 -3 c37 -3 44 -8 64 -43z m-275 -27 c6 -13 5 -18 -7
-18 -10 0 -15 10 -14 33 0 17 3 25 6 17 3 -8 10 -23 15 -32z m-1531 -20 c1
-24 3 -35 6 -25 5 20 23 23 23 3 0 -28 -30 -26 -45 4 -19 37 -19 60 0 60 11 0
15 -12 16 -42z m29 22 c0 -11 -4 -20 -10 -20 -5 0 -10 9 -10 20 0 11 5 20 10
20 6 0 10 -9 10 -20z m40 0 c0 -11 -4 -20 -10 -20 -5 0 -10 9 -10 20 0 11 5
20 10 20 6 0 10 -9 10 -20z m40 0 c0 -11 -4 -20 -9 -20 -10 0 -9 -26 2 -36 4
-4 7 -12 7 -18 0 -5 -7 -1 -16 10 -11 13 -17 15 -20 6 -7 -15 -24 -6 -24 14 0
8 7 14 15 14 9 0 15 9 15 25 0 16 6 25 15 25 8 0 15 -9 15 -20z m711 -22 c1
-24 3 -35 6 -25 5 20 23 23 23 3 0 -28 -30 -26 -45 4 -19 37 -19 60 0 60 11 0
15 -12 16 -42z m29 22 c0 -11 -4 -20 -10 -20 -5 0 -10 9 -10 20 0 11 5 20 10
20 6 0 10 -9 10 -20z m40 0 c0 -11 -4 -20 -10 -20 -5 0 -10 9 -10 20 0 11 5
20 10 20 6 0 10 -9 10 -20z m40 0 c0 -11 -5 -20 -11 -20 -5 0 -7 -5 -4 -10 3
-6 -1 -13 -10 -16 -13 -5 -13 -9 -3 -22 11 -13 10 -14 -8 -4 -12 6 -24 9 -27
6 -3 -3 -3 3 0 15 3 12 12 21 19 21 8 0 14 10 14 25 0 16 6 25 15 25 8 0 15
-9 15 -20z m-630 -9 c-14 -28 -14 -29 23 -34 24 -3 21 -4 -15 -5 -28 -1 -48 2
-48 9 0 20 21 49 36 49 11 0 12 -4 4 -19z m73 7 c23 1 34 -25 17 -41 -10 -10
-11 -7 -5 12 6 21 5 23 -11 16 -40 -16 -64 -18 -64 -3 0 21 12 30 29 22 9 -4
24 -6 34 -6z m117 -13 c0 -8 -7 -15 -16 -15 -14 0 -14 3 -4 15 7 8 14 15 16
15 2 0 4 -7 4 -15z m24 0 c-4 -9 0 -15 10 -15 9 0 16 -4 16 -9 0 -10 -25 -9
-36 2 -7 6 2 37 10 37 3 0 3 -7 0 -15z m-584 -17 c0 -7 -5 -20 -10 -28 -8 -12
-10 -9 -10 13 0 15 5 27 10 27 6 0 10 -6 10 -12z m25 -23 c-2 -26 10 -34 18
-12 3 7 6 6 6 -5 1 -10 -8 -18 -21 -21 -20 -4 -20 -4 4 -6 36 -1 47 -21 12
-21 -22 0 -25 -3 -16 -12 24 -24 12 -35 -37 -36 -36 -1 -51 3 -55 14 -9 23 1
34 32 35 24 2 24 2 5 6 -22 4 -33 23 -13 23 5 0 7 8 4 18 -4 11 -3 13 3 5 5
-7 19 -10 31 -6 18 4 21 10 15 31 -4 16 -2 23 5 18 5 -3 9 -17 7 -31z m185 20
c0 -8 -4 -15 -10 -15 -5 0 -10 7 -10 15 0 8 5 15 10 15 6 0 10 -7 10 -15z m25
-21 c-2 -18 2 -24 11 -20 8 3 14 3 14 0 0 -2 -10 -9 -22 -14 -22 -8 -22 -9 4
-9 36 -1 47 -21 12 -21 -22 0 -25 -3 -16 -12 22 -22 13 -36 -23 -36 -25 0 -35
4 -35 15 0 13 2 13 17 2 14 -12 16 -12 11 1 -6 20 -37 25 -52 9 -8 -9 -8 -10
2 -5 7 4 12 1 12 -8 0 -20 -16 -21 -24 -1 -8 21 13 63 36 71 10 3 16 9 13 14
-3 4 4 6 16 3 18 -5 19 -2 13 22 -5 19 -3 26 4 21 5 -3 9 -18 7 -32z m585 24
c0 -7 -4 -19 -9 -27 -6 -9 -8 -5 -8 13 0 14 3 26 8 26 5 0 9 -6 9 -12z m26
-18 c-3 -30 8 -41 17 -17 3 7 6 6 6 -5 1 -10 -8 -18 -21 -21 -20 -4 -20 -4 4
-6 36 -1 47 -21 12 -21 -22 0 -25 -3 -16 -12 24 -24 12 -35 -37 -36 -36 -1
-51 3 -55 14 -9 23 1 34 32 35 24 2 24 2 5 6 -22 4 -33 23 -13 23 5 0 7 8 4
18 -4 11 -3 13 3 5 5 -7 19 -10 31 -6 17 4 21 10 16 29 -4 14 -2 24 5 24 6 0
9 -13 7 -30z m184 18 c0 -7 -5 -20 -10 -28 -8 -12 -10 -9 -10 13 0 15 5 27 10
27 6 0 10 -6 10 -12z m25 -24 c-2 -18 2 -24 11 -20 8 3 14 3 14 0 0 -2 -10 -9
-22 -14 -22 -8 -22 -9 4 -9 15 -1 30 -5 33 -11 4 -6 -18 -10 -59 -10 -62 0
-87 13 -52 26 8 3 12 13 9 22 -3 12 -2 13 4 5 5 -7 19 -10 31 -6 18 4 21 10
15 31 -4 16 -2 23 5 18 5 -3 9 -18 7 -32z m1445 26 c0 -5 -7 -10 -15 -10 -8 0
-15 5 -15 10 0 6 7 10 15 10 8 0 15 -4 15 -10z m-1785 -10 c-3 -5 -27 -9 -53
-8 l-47 1 50 7 c28 4 51 8 53 8 2 1 0 -2 -3 -8z m885 -9 c-5 -11 -10 -26 -9
-33 0 -7 5 -2 10 12 l11 25 18 -35 c11 -19 19 -29 20 -22 0 7 -7 27 -16 43
l-15 30 43 -3 c38 -3 45 -7 65 -43 13 -22 23 -35 22 -30 0 6 -6 21 -14 35 -21
36 -19 40 23 40 20 0 32 -4 26 -8 -17 -11 -26 -49 -14 -57 5 -3 10 -12 10 -18
0 -8 -3 -8 -9 2 -6 9 -11 10 -15 2 -8 -12 -86 -15 -86 -3 0 4 7 16 15 26 8 11
15 27 15 35 0 9 -10 -2 -23 -24 -18 -31 -29 -41 -53 -43 -26 -3 -33 1 -38 20
-10 41 -7 68 9 68 12 0 13 -4 5 -19z m323 -25 c10 -21 20 -36 23 -33 3 3 -2
19 -10 36 -22 41 -21 41 23 41 37 0 68 -19 54 -33 -12 -13 -22 -7 -17 11 3 9
-5 -1 -18 -23 -21 -35 -28 -40 -66 -43 -46 -3 -48 0 -27 38 8 14 14 30 14 35
0 6 -6 -1 -14 -15 -13 -24 -14 -24 -21 -5 -4 11 -12 24 -18 28 -6 4 5 6 24 5
30 -3 38 -9 53 -42z m127 34 c-19 -13 -30 -13 -30 0 0 6 10 10 23 10 18 0 19
-2 7 -10z m-1471 -14 c10 -12 7 -15 -21 -19 -30 -3 -29 -4 9 -5 55 -3 67 -22
14 -22 -23 0 -41 -4 -41 -9 0 -5 17 -7 39 -4 44 6 56 -5 47 -43 -8 -30 -46
-34 -46 -4 0 23 10 26 28 8 9 -9 12 -9 12 0 0 21 -40 35 -66 23 -13 -6 -24
-15 -24 -22 0 -6 -12 -1 -26 10 -34 26 -49 26 -75 0 l-21 -21 4 24 c2 19 10
24 48 28 29 3 40 8 32 13 -7 5 -24 6 -38 3 -36 -9 -29 19 11 42 29 16 100 15
114 -2z m1270 -12 c2 -2 -12 -4 -32 -4 -20 0 -37 4 -37 10 0 8 58 3 69 -6z
m426 6 c4 -6 -41 -10 -127 -10 -90 0 -128 3 -118 10 20 13 237 13 245 0z m245
0 c0 -5 -17 -9 -37 -9 -38 1 -38 1 -8 9 43 11 45 11 45 0z m-2105 -30 c-12
-23 -15 -68 -15 -215 l0 -185 36 0 c31 0 35 -3 29 -17 -14 -35 -18 -70 -22
-195 l-4 -128 -60 0 -59 0 0 385 0 385 55 0 56 0 -16 -30z m302 -355 l-2 -385
-57 0 -57 0 -4 128 c-5 153 -7 166 -29 192 -18 20 -17 20 27 20 l45 0 0 185
c0 147 -3 192 -15 215 l-16 30 55 0 54 0 -1 -385z m253 355 c0 -5 -6 -15 -13
-21 -9 -9 -12 -37 -9 -101 4 -83 3 -88 -16 -88 -18 0 -20 8 -24 93 -3 50 -8
100 -12 110 -7 15 -3 17 33 17 23 0 41 -4 41 -10z m1340 1 c0 -6 -16 -7 -37
-4 -28 5 -34 3 -28 -7 5 -8 21 -11 46 -7 22 3 42 1 45 -4 3 -5 -74 -10 -183
-11 -116 -1 -169 -4 -138 -8 l50 -7 -58 -1 -59 -2 24 29 23 30 158 0 c91 1
157 -3 157 -8z m-470 -21 c0 -14 -7 -20 -22 -21 l-23 -2 23 -4 c30 -6 28 -23
-3 -23 -22 0 -25 4 -25 35 0 31 3 35 25 35 18 0 25 -5 25 -20z m670 -15 c0
-31 -3 -35 -25 -35 -31 0 -33 19 -2 21 l22 2 -22 4 c-33 6 -31 43 2 43 22 0
25 -4 25 -35z m-2430 -12 c0 -5 -4 -15 -10 -23 -11 -18 -25 -7 -17 15 6 15 27
21 27 8z m203 1 c8 -8 -3 -34 -14 -34 -5 0 -9 9 -9 20 0 19 11 26 23 14z m617
-1 c0 -5 -4 -15 -10 -23 -11 -18 -25 -7 -17 15 6 15 27 21 27 8z m308 0 c-32
-2 -86 -2 -120 0 -35 2 -9 3 57 3 66 0 94 -1 63 -3z m442 2 c0 -4 -7 -20 -16
-36 -8 -17 -13 -33 -11 -35 2 -3 10 9 17 26 16 38 24 38 41 -2 7 -17 15 -26
17 -20 2 6 -4 24 -13 41 l-16 31 41 0 c22 0 40 -2 40 -5 0 -3 -11 -23 -25 -45
-23 -36 -30 -40 -65 -40 -41 0 -51 9 -64 63 -6 25 -4 27 24 27 16 0 30 -2 30
-5z m120 -20 c-11 -13 -5 -15 45 -15 48 0 56 -2 53 -17 -2 -13 -15 -19 -42
-21 -59 -5 -81 10 -26 18 l45 7 -47 1 c-42 2 -48 -1 -48 -18 0 -11 -7 -20 -15
-20 -8 0 -15 2 -15 5 0 7 31 55 45 71 15 18 20 7 5 -11z m158 18 c-10 -2 -28
-2 -40 0 -13 2 -5 4 17 4 22 1 32 -1 23 -4z m312 -9 c0 -16 0 -16 -85 -2 -11
2 -19 -2 -18 -7 1 -7 -12 -9 -33 -7 -20 3 -34 10 -34 18 0 11 19 14 85 14 71
0 85 -3 85 -16z m88 9 c-16 -2 -40 -2 -55 0 -16 2 -3 4 27 4 30 0 43 -2 28 -4z
m905 0 c-35 -2 -91 -2 -125 0 -35 2 -7 3 62 3 69 0 97 -1 63 -3z m-2773 -23
c0 -13 -7 -20 -20 -20 -18 0 -19 3 -10 20 6 11 15 20 20 20 6 0 10 -9 10 -20z
m38 8 c18 -18 15 -28 -8 -28 -13 0 -20 7 -20 20 0 23 10 26 28 8z m72 -8 c0
-13 -7 -20 -20 -20 -23 0 -26 10 -8 28 18 18 28 15 28 -8z m613 3 c-40 -2
-107 -2 -150 0 -43 1 -10 3 72 3 83 0 118 -2 78 -3z m815 -2 c46 -5 89 -14 95
-21 9 -10 9 -11 0 -6 -7 4 -43 -9 -80 -27 -50 -25 -77 -33 -100 -30 -31 5 -33
8 -33 43 0 28 -5 40 -17 43 -29 8 46 6 135 -2z m234 -12 c13 5 68 11 123 14
55 3 92 3 83 1 -12 -4 -18 -16 -18 -36 0 -29 -1 -30 -40 -26 -22 2 -41 -1 -43
-6 -1 -4 -23 2 -47 14 -25 13 -56 24 -70 25 -14 2 -34 6 -45 9 -11 4 40 -24
113 -61 72 -37 132 -73 132 -80 0 -10 -44 -13 -193 -13 -232 0 -344 8 -344 24
0 8 12 10 31 8 28 -5 30 -3 17 12 -12 14 -12 16 4 10 14 -6 16 -4 10 6 -5 8
-4 11 3 6 15 -9 214 92 206 105 -3 6 8 4 24 -5 21 -11 38 -13 54 -7z m348 7
c0 -8 -7 -16 -15 -20 -9 -3 -15 0 -15 9 0 7 -8 16 -17 18 -10 3 -3 5 15 6 21
1 32 -4 32 -13z m40 -1 c0 -8 -7 -15 -15 -15 -8 0 -15 7 -15 15 0 8 7 15 15
15 8 0 15 -7 15 -15z m30 0 c0 -8 -4 -15 -10 -15 -5 0 -10 7 -10 15 0 8 5 15
10 15 6 0 10 -7 10 -15z m34 0 c3 -9 0 -15 -9 -15 -8 0 -15 7 -15 15 0 8 4 15
9 15 5 0 11 -7 15 -15z m46 0 c0 -8 -7 -15 -15 -15 -8 0 -15 7 -15 15 0 8 7
15 15 15 8 0 15 -7 15 -15z m553 8 c-40 -2 -106 -2 -145 0 -40 1 -8 3 72 3 80
0 112 -2 73 -3z m867 -8 c0 -10 -10 -15 -30 -15 -20 0 -30 5 -30 15 0 10 10
15 30 15 20 0 30 -5 30 -15z m30 0 c0 -8 -4 -15 -10 -15 -5 0 -10 7 -10 15 0
8 5 15 10 15 6 0 10 -7 10 -15z m40 0 c0 -8 -7 -15 -15 -15 -8 0 -15 7 -15 15
0 8 7 15 15 15 8 0 15 -7 15 -15z m30 0 c0 -8 -4 -15 -10 -15 -5 0 -10 7 -10
15 0 8 5 15 10 15 6 0 10 -7 10 -15z m40 0 c0 -8 -7 -15 -15 -15 -8 0 -15 7
-15 15 0 8 7 15 15 15 8 0 15 -7 15 -15z m40 5 c0 -27 -41 -50 -90 -50 -30 0
-50 -4 -50 -11 0 -7 19 -9 55 -6 43 4 55 2 55 -9 0 -8 -6 -14 -12 -15 -10 0
-10 -2 0 -6 9 -3 12 -42 12 -144 l0 -139 -27 -1 -28 -2 28 -4 c26 -4 27 -7 27
-64 l0 -59 -36 0 c-21 0 -33 -4 -29 -10 4 -6 -17 -10 -54 -10 l-61 0 0 40 0
40 63 2 62 2 -62 3 c-60 4 -89 21 -40 24 l22 2 -22 4 c-23 4 -23 6 -23 188 l0
184 88 3 c82 3 87 4 90 26 3 21 32 32 32 12z m-2731 -47 c1 -7 -3 -13 -9 -13
-5 0 -10 15 -9 33 0 27 2 29 9 12 5 -11 9 -26 9 -32z m-349 -23 c0 -60 0 -60
-30 -60 -23 0 -28 -4 -23 -16 5 -14 -3 -15 -73 -10 -43 4 -98 9 -121 12 l-43
5 0 45 c0 37 3 44 20 44 16 0 20 -7 20 -35 l0 -36 103 3 102 3 0 40 c0 36 -2
40 -25 40 -22 0 -25 -5 -28 -37 -2 -21 -7 -38 -12 -38 -5 0 -7 7 -4 15 12 30
-5 65 -31 65 -26 0 -43 -35 -31 -65 3 -8 1 -15 -4 -15 -5 0 -10 17 -12 38 -3
36 -4 37 -38 35 -19 -1 -42 1 -50 4 -26 11 47 20 168 22 l112 1 0 -60z m1250
50 l-45 -7 43 -1 c57 -2 45 -22 -14 -22 -37 0 -44 3 -44 20 0 18 6 20 53 18
l52 -1 -45 -7z m805 3 c43 -5 46 -7 30 -20 -17 -12 -17 -13 -2 -13 13 0 17 -9
17 -44 l0 -45 -42 -5 c-111 -14 -198 -17 -198 -8 0 6 6 13 13 15 6 3 -3 6 -20
6 l-33 1 0 60 0 60 94 0 c51 0 115 -3 141 -7z m-3305 -23 c0 -16 -7 -20 -30
-20 -23 0 -30 4 -30 20 0 16 7 20 30 20 23 0 30 -4 30 -20z m40 0 c0 -11 -7
-20 -15 -20 -8 0 -15 9 -15 20 0 11 7 20 15 20 8 0 15 -9 15 -20z m30 0 c0
-11 -4 -20 -10 -20 -5 0 -10 9 -10 20 0 11 5 20 10 20 6 0 10 -9 10 -20z m100
0 c0 -11 -4 -20 -10 -20 -5 0 -10 9 -10 20 0 11 5 20 10 20 6 0 10 -9 10 -20z
m40 0 c0 -11 -7 -20 -15 -20 -8 0 -15 9 -15 20 0 11 7 20 15 20 8 0 15 -9 15
-20z m40 0 c0 -11 -7 -20 -15 -20 -8 0 -15 9 -15 20 0 11 7 20 15 20 8 0 15
-9 15 -20z m30 0 c0 -11 -4 -20 -10 -20 -5 0 -10 9 -10 20 0 11 5 20 10 20 6
0 10 -9 10 -20z m540 0 c0 -16 -7 -20 -30 -20 -23 0 -30 4 -30 20 0 16 7 20
30 20 23 0 30 -4 30 -20z m40 0 c0 -11 -7 -20 -15 -20 -8 0 -15 9 -15 20 0 11
7 20 15 20 8 0 15 -9 15 -20z m30 0 c0 -11 -4 -20 -10 -20 -5 0 -10 9 -10 20
0 11 5 20 10 20 6 0 10 -9 10 -20z m-430 -20 c0 -23 -4 -30 -20 -30 -16 0 -20
7 -20 30 0 23 4 30 20 30 16 0 20 -7 20 -30z m50 0 c0 -23 -4 -30 -20 -30 -16
0 -20 7 -20 30 0 23 4 30 20 30 16 0 20 -7 20 -30z m60 0 c0 -23 -4 -30 -20
-30 -16 0 -20 7 -20 30 0 23 4 30 20 30 16 0 20 -7 20 -30z m50 0 c0 -23 -4
-30 -20 -30 -16 0 -20 7 -20 30 0 23 4 30 20 30 16 0 20 -7 20 -30z m1460 25
c0 -3 -27 -18 -60 -35 -33 -17 -60 -28 -60 -25 0 2 26 18 58 34 64 34 62 33
62 26z m-1030 -35 c0 -23 -4 -30 -20 -30 -16 0 -20 7 -20 30 0 23 4 30 20 30
16 0 20 -7 20 -30z m70 0 c0 -20 -5 -30 -15 -30 -10 0 -15 10 -15 30 0 20 5
30 15 30 10 0 15 -10 15 -30z m78 -3 c3 -22 -1 -27 -17 -27 -17 0 -21 6 -21
31 0 24 4 30 18 27 10 -2 18 -14 20 -31z m1442 24 c-40 -4 -60 -9 -52 -14 7
-5 34 -7 59 -5 31 2 48 -1 50 -9 3 -7 -4 -14 -14 -14 -16 -1 -16 -2 0 -6 11
-3 17 -14 17 -33 l0 -29 -75 2 -75 2 0 58 0 57 78 -2 77 -1 -65 -6z m-770 -21
c0 -5 -16 -10 -36 -10 -21 0 -33 -4 -29 -10 3 -5 19 -10 36 -10 27 0 29 -2 29
-40 l0 -40 -45 0 c-44 0 -45 -1 -45 -33 0 -19 8 -42 20 -55 18 -19 20 -35 20
-167 0 -90 -4 -145 -10 -145 -5 0 -10 -20 -10 -45 0 -38 -3 -45 -20 -45 -20 0
-20 7 -20 280 0 260 1 280 18 281 16 1 16 2 0 6 -30 8 -20 31 15 36 62 7 77 7
77 -3z m653 0 c11 0 17 -8 17 -25 0 -22 -4 -25 -36 -25 -23 0 -33 -4 -28 -11
3 -6 19 -9 35 -5 l29 6 0 -270 c0 -269 0 -270 -21 -270 -19 0 -21 4 -16 41 4
29 1 42 -9 46 -11 4 -14 35 -14 154 0 128 2 149 16 149 8 0 13 4 9 9 -3 5 -1
12 5 16 5 3 10 22 10 41 0 34 0 34 -45 34 l-45 0 0 61 0 62 38 -7 c20 -3 45
-6 55 -6z m-2523 -20 c0 -16 -7 -20 -30 -20 -23 0 -30 4 -30 20 0 16 7 20 30
20 23 0 30 -4 30 -20z m40 0 c0 -11 -7 -20 -15 -20 -8 0 -15 9 -15 20 0 11 7
20 15 20 8 0 15 -9 15 -20z m30 0 c0 -11 -4 -20 -10 -20 -5 0 -10 9 -10 20 0
11 5 20 10 20 6 0 10 -9 10 -20z m100 0 c0 -11 -4 -20 -10 -20 -5 0 -10 9 -10
20 0 11 5 20 10 20 6 0 10 -9 10 -20z m40 0 c0 -11 -7 -20 -15 -20 -8 0 -15 9
-15 20 0 11 7 20 15 20 8 0 15 -9 15 -20z m40 0 c0 -11 -7 -20 -15 -20 -8 0
-15 9 -15 20 0 11 7 20 15 20 8 0 15 -9 15 -20z m30 0 c0 -11 -4 -20 -10 -20
-5 0 -10 9 -10 20 0 11 5 20 10 20 6 0 10 -9 10 -20z m540 0 c0 -16 -7 -20
-30 -20 -23 0 -30 4 -30 20 0 16 7 20 30 20 23 0 30 -4 30 -20z m40 0 c0 -11
-7 -20 -15 -20 -8 0 -15 9 -15 20 0 11 7 20 15 20 8 0 15 -9 15 -20z m30 0 c0
-11 -4 -20 -10 -20 -5 0 -10 9 -10 20 0 11 5 20 10 20 6 0 10 -9 10 -20z m709
8 c0 -7 -4 -22 -9 -33 -7 -17 -9 -15 -9 13 -1 17 4 32 9 32 6 0 10 -6 9 -12z
m101 7 c0 -3 -11 -23 -25 -45 -20 -32 -31 -40 -55 -40 -35 0 -35 -2 -14 50 15
37 19 40 55 40 21 0 39 -2 39 -5z m50 -27 l-1 -33 -14 25 c-18 32 -18 40 0 40
10 0 15 -10 15 -32z m640 22 c0 -5 7 -10 15 -10 18 0 20 -26 3 -36 -7 -5 -8
-3 -3 6 6 10 4 12 -9 7 -11 -5 -15 -3 -10 5 5 8 2 9 -10 5 -11 -5 -15 -3 -10
5 5 7 2 9 -8 6 -9 -4 -15 0 -15 8 0 8 10 14 24 14 13 0 23 -4 23 -10z m-667
-27 c2 -10 8 -26 12 -35 6 -15 2 -18 -29 -18 l-36 0 17 35 c19 39 28 44 36 18z
m194 6 c-9 -6 -15 -14 -12 -20 3 -5 -1 -6 -9 -3 -27 10 -18 34 12 34 23 -1 25
-2 9 -11z m-1457 -36 c0 -26 -4 -33 -20 -33 -15 0 -20 7 -20 28 0 33 4 39 25
39 10 0 15 -11 15 -34z m50 2 c0 -28 -4 -35 -20 -35 -15 0 -20 7 -20 28 0 32
7 42 27 42 8 0 13 -12 13 -35z m60 0 c0 -28 -4 -35 -20 -35 -16 0 -20 7 -20
35 0 28 4 35 20 35 16 0 20 -7 20 -35z m50 0 c0 -28 -4 -35 -20 -35 -16 0 -20
7 -20 35 0 28 4 35 20 35 16 0 20 -7 20 -35z m-620 -5 c0 -16 -7 -20 -30 -20
-23 0 -30 4 -30 20 0 16 7 20 30 20 23 0 30 -4 30 -20z m40 0 c0 -11 -7 -20
-15 -20 -8 0 -15 9 -15 20 0 11 7 20 15 20 8 0 15 -9 15 -20z m30 0 c0 -11 -4
-20 -10 -20 -5 0 -10 9 -10 20 0 11 5 20 10 20 6 0 10 -9 10 -20z m100 0 c0
-11 -4 -20 -10 -20 -5 0 -10 9 -10 20 0 11 5 20 10 20 6 0 10 -9 10 -20z m40
0 c0 -11 -7 -20 -15 -20 -8 0 -15 9 -15 20 0 11 7 20 15 20 8 0 15 -9 15 -20z
m40 0 c0 -11 -7 -20 -15 -20 -8 0 -15 9 -15 20 0 11 7 20 15 20 8 0 15 -9 15
-20z m30 0 c0 -11 -4 -20 -10 -20 -5 0 -10 9 -10 20 0 11 5 20 10 20 6 0 10
-9 10 -20z m540 0 c0 -16 -7 -20 -30 -20 -23 0 -30 4 -30 20 0 16 7 20 30 20
23 0 30 -4 30 -20z m40 0 c0 -11 -7 -20 -15 -20 -8 0 -15 9 -15 20 0 11 7 20
15 20 8 0 15 -9 15 -20z m30 0 c0 -11 -4 -20 -10 -20 -5 0 -10 9 -10 20 0 11
5 20 10 20 6 0 10 -9 10 -20z m109 -26 c2 -2 -14 -4 -37 -4 -23 0 -42 5 -42
10 0 10 67 4 79 -6z m276 6 c17 -7 16 -9 -10 -10 l-30 -2 30 -8 c17 -4 24 -8
18 -9 -7 0 -13 -10 -13 -21 0 -13 -7 -20 -20 -20 -25 0 -27 27 -2 33 10 3 6 5
-10 6 -21 1 -28 6 -28 21 0 22 28 26 65 10z m1825 -10 c0 -14 -7 -20 -22 -21
-13 0 -17 -3 -10 -6 20 -8 14 -33 -8 -33 -13 0 -20 7 -20 20 0 11 -6 21 -12
21 -7 1 3 5 22 9 l35 7 -35 3 c-33 2 -33 3 -10 10 44 14 60 11 60 -10z m295
10 c4 -6 -11 -10 -39 -10 -46 0 -70 -15 -42 -26 9 -3 13 -10 10 -15 -3 -5 -1
-9 4 -9 18 0 21 29 4 33 -9 3 -1 5 18 5 19 0 46 -3 59 -7 21 -6 22 -8 7 -20
-13 -11 -17 -11 -22 3 -3 9 -11 16 -16 16 -7 0 -6 -5 1 -13 14 -18 4 -27 -31
-27 -22 0 -29 -4 -27 -17 1 -10 1 -42 0 -70 l-1 -53 -112 -2 -113 -2 113 -3
112 -4 0 -124 c0 -112 -2 -125 -17 -126 -17 -1 -17 -2 0 -6 24 -6 22 -33 -3
-33 -19 0 -20 7 -20 120 0 106 -2 121 -17 126 -10 3 -25 9 -34 14 -9 4 -31 3
-52 -3 l-37 -12 0 -122 0 -123 -25 0 -26 0 2 235 c1 129 5 235 10 235 5 0 9 6
9 13 0 9 26 13 93 15 50 2 108 7 127 12 49 11 58 11 65 0z m-3394 -27 c1 -17
2 -17 6 0 5 21 33 23 33 2 0 -14 -20 -21 -45 -15 -5 1 -20 2 -32 2 -13 0 -23
7 -23 14 0 22 60 18 61 -3z m69 2 c0 -8 -4 -15 -10 -15 -5 0 -10 7 -10 15 0 8
5 15 10 15 6 0 10 -7 10 -15z m100 0 c0 -8 -4 -15 -10 -15 -5 0 -10 7 -10 15
0 8 5 15 10 15 6 0 10 -7 10 -15z m41 -2 c1 -17 2 -17 6 0 5 20 33 23 33 3 0
-15 -25 -24 -52 -18 -10 2 -18 10 -18 18 0 20 30 17 31 -3z m69 2 c0 -8 -4
-15 -10 -15 -5 0 -10 7 -10 15 0 8 5 15 10 15 6 0 10 -7 10 -15z m541 -2 c1
-17 2 -17 6 0 5 21 33 23 33 2 0 -14 -21 -21 -45 -15 -5 2 -20 2 -32 2 -14 -1
-23 4 -23 13 0 23 60 20 61 -2z m69 2 c0 -8 -4 -15 -10 -15 -5 0 -10 7 -10 15
0 8 5 15 10 15 6 0 10 -7 10 -15z m317 -5 c7 -11 11 -90 12 -248 2 -226 1
-232 -18 -232 -19 0 -21 7 -23 121 l-3 121 -39 13 c-23 8 -45 10 -55 5 -9 -5
-24 -11 -33 -14 -16 -5 -18 -20 -18 -126 0 -113 -1 -120 -20 -120 -25 0 -27
30 -2 31 16 1 16 2 0 6 -16 4 -18 19 -18 129 l0 124 113 2 112 2 -113 3 -113
4 2 82 c3 118 5 119 114 115 67 -2 93 -7 102 -18z m543 10 c0 -6 -79 -10 -227
-9 -126 1 -212 5 -193 9 58 11 420 12 420 0z m1225 0 c25 -5 -50 -8 -192 -9
-153 -1 -233 3 -233 9 0 12 363 12 425 0z m-2515 -30 c0 -23 -4 -30 -20 -30
-16 0 -20 7 -20 30 0 23 4 30 20 30 16 0 20 -7 20 -30z m50 0 c0 -23 -4 -30
-20 -30 -16 0 -20 7 -20 30 0 23 4 30 20 30 16 0 20 -7 20 -30z m60 0 c0 -23
-4 -30 -20 -30 -16 0 -20 7 -20 30 0 23 4 30 20 30 16 0 20 -7 20 -30z m50 0
c0 -23 -4 -30 -20 -30 -16 0 -20 7 -20 30 0 23 4 30 20 30 16 0 20 -7 20 -30z
m1890 10 c0 -6 -42 -11 -102 -12 l-103 -2 103 -3 c56 -2 102 -8 102 -13 0 -6
-101 -10 -265 -10 -183 0 -265 3 -265 11 0 12 -144 8 -172 -5 -13 -6 -18 -4
-18 8 0 10 9 16 25 16 14 0 25 5 25 10 0 6 118 10 335 10 217 0 335 -4 335
-10z m1340 -1 c0 6 10 11 22 11 17 0 19 -3 10 -12 -6 -6 -18 -13 -26 -14 -7
-1 -23 -5 -35 -9 -20 -6 -21 -5 -10 14 10 15 16 17 26 9 9 -7 13 -7 13 1z
m-2275 -9 l-180 -6 178 -2 177 -2 0 -225 0 -225 -235 0 -236 0 1 190 c1 105 5
190 10 190 5 0 10 -24 12 -52 l3 -53 215 0 215 0 3 66 c3 71 -10 99 -47 99
-33 0 -50 -32 -54 -100 l-3 -65 -2 66 c-2 80 -24 109 -70 93 -25 -9 -27 -14
-33 -84 l-5 -75 -2 60 c-2 70 -22 105 -57 105 -38 0 -58 -39 -53 -105 1 -30 0
-55 -4 -55 -5 0 -8 31 -8 69 0 79 -7 88 -74 97 -108 15 -30 24 192 22 l237 -2
-180 -6z m1455 1 c0 -5 -19 -12 -42 -15 -67 -10 -72 -17 -79 -98 l-6 -73 -1
66 c-2 80 -24 109 -70 93 -25 -9 -27 -14 -33 -84 l-5 -75 -2 60 c-2 70 -22
105 -57 105 -38 0 -58 -39 -53 -105 1 -30 0 -55 -4 -55 -4 0 -8 33 -10 72 -3
69 -4 73 -30 82 -22 8 -32 6 -48 -9 -26 -24 -30 -139 -4 -149 9 -3 108 -6 220
-6 l204 0 0 64 c0 70 -6 96 -23 96 -7 0 -7 -4 1 -12 18 -18 15 -58 -4 -58 -24
0 -15 74 10 78 10 2 22 -1 26 -8 4 -7 8 -106 9 -221 l2 -209 -241 0 -240 0 0
225 0 225 188 2 187 2 -190 6 -190 6 243 2 c135 1 242 -2 242 -7z m-1717 -46
c-20 -27 -38 -33 -29 -9 3 9 6 20 6 25 0 5 9 9 20 9 20 0 20 -1 3 -25z m2107
-60 c0 -50 -4 -85 -10 -85 -6 0 -10 35 -10 85 0 50 4 85 10 85 6 0 10 -35 10
-85z m17 -48 c-2 -23 -3 -1 -3 48 0 50 1 68 3 42 2 -26 2 -67 0 -90z m413 48
c0 -50 -4 -85 -10 -85 -6 0 -10 35 -10 85 0 50 4 85 10 85 6 0 10 -35 10 -85z
m30 0 c0 -50 -4 -85 -10 -85 -6 0 -10 35 -10 85 0 50 4 85 10 85 6 0 10 -35
10 -85z m17 -48 c-2 -23 -3 -1 -3 48 0 50 1 68 3 42 2 -26 2 -67 0 -90z
m-2547 88 c0 -28 -4 -35 -20 -35 -24 0 -27 32 -4 54 22 22 24 21 24 -19z m40
-11 c0 -15 -6 -24 -15 -24 -11 0 -15 11 -15 36 0 31 2 35 15 24 8 -7 15 -23
15 -36z m70 11 c0 -29 -4 -35 -21 -35 -16 0 -19 4 -13 23 6 22 23 47 30 47 2
0 4 -16 4 -35z m34 19 c23 -22 20 -54 -4 -54 -16 0 -20 7 -20 35 0 40 2 41 24
19z m76 -19 c0 -24 -5 -35 -15 -35 -18 0 -20 41 -3 58 17 17 18 16 18 -23z
m40 16 c16 -31 12 -51 -10 -51 -16 0 -20 7 -20 35 0 39 14 46 30 16z m80 -16
c0 -28 -4 -35 -20 -35 -23 0 -28 38 -8 58 20 20 28 14 28 -23z m40 -11 c0 -15
-6 -24 -15 -24 -11 0 -15 11 -15 36 0 31 2 35 15 24 8 -7 15 -23 15 -36z m890
11 c0 -28 -4 -35 -20 -35 -24 0 -27 32 -4 54 22 22 24 21 24 -19z m40 -11 c0
-15 -6 -24 -15 -24 -11 0 -15 11 -15 36 0 31 2 35 15 24 8 -7 15 -23 15 -36z
m70 11 c0 -28 -4 -35 -20 -35 -24 0 -26 18 -4 48 21 30 24 28 24 -13z m40 16
c0 -3 3 -16 6 -28 5 -19 2 -23 -15 -23 -17 0 -21 6 -21 35 0 26 3 33 15 29 8
-4 15 -9 15 -13z m70 -16 c0 -24 -5 -35 -15 -35 -18 0 -20 41 -3 58 17 17 18
16 18 -23z m34 19 c23 -22 20 -54 -4 -54 -16 0 -20 7 -20 35 0 40 2 41 24 19z
m81 -19 c0 -27 -4 -35 -17 -35 -21 0 -25 39 -6 58 19 19 23 15 23 -23z m515
-45 c0 -47 -4 -80 -10 -80 -6 0 -10 33 -10 80 0 47 4 80 10 80 6 0 10 -33 10
-80z m70 64 c0 -14 -3 -14 -15 -4 -8 7 -15 14 -15 16 0 2 7 4 15 4 8 0 15 -7
15 -16z m227 -61 l-1 -78 -3 68 c-3 55 -7 68 -18 63 -9 -3 -15 1 -15 9 0 8 8
15 19 15 16 0 18 -8 18 -77z m33 -3 c0 -47 -4 -80 -10 -80 -11 0 -14 142 -3
153 12 13 13 7 13 -73z m17 -42 c-2 -24 -4 -5 -4 42 0 47 2 66 4 43 2 -24 2
-62 0 -85z m113 42 c0 -47 -4 -80 -10 -80 -6 0 -10 33 -10 80 0 47 4 80 10 80
6 0 10 -33 10 -80z m70 65 c0 -8 -6 -12 -12 -10 -10 4 -12 -12 -10 -65 2 -46
0 -70 -7 -70 -12 0 -16 116 -5 144 8 20 34 21 34 1z m-3540 -20 c0 -18 -5 -25
-20 -25 -15 0 -20 7 -20 25 0 18 5 25 20 25 15 0 20 -7 20 -25z m48 0 c-2 -17
-8 -25 -20 -25 -13 0 -18 8 -18 25 0 18 5 25 20 25 15 0 19 -6 18 -25z m62 0
c0 -28 -24 -34 -34 -9 -10 26 -7 34 14 34 15 0 20 -7 20 -25z m50 0 c0 -18 -5
-25 -20 -25 -15 0 -20 7 -20 25 0 18 5 25 20 25 15 0 20 -7 20 -25z m1270 15
c0 -5 -18 -10 -40 -10 -22 0 -40 5 -40 10 0 6 18 10 40 10 22 0 40 -4 40 -10z
m41 -20 c5 0 9 -65 9 -150 0 -93 -4 -150 -10 -150 -5 0 -10 -20 -10 -45 0 -25
-4 -45 -10 -45 -5 0 -10 20 -10 45 0 25 -4 45 -10 45 -6 0 -10 55 -10 145 0
123 3 148 18 165 14 17 18 18 20 5 2 -8 8 -15 13 -15z m79 20 c0 -5 -18 -10
-40 -10 -22 0 -40 5 -40 10 0 6 18 10 40 10 22 0 40 -4 40 -10z m120 0 c0 -5
-18 -10 -40 -10 -22 0 -40 5 -40 10 0 6 18 10 40 10 22 0 40 -4 40 -10z m120
0 c0 -5 -18 -10 -40 -10 -22 0 -40 5 -40 10 0 6 18 10 40 10 22 0 40 -4 40
-10z m120 0 c0 -5 -18 -10 -40 -10 -22 0 -40 5 -40 10 0 6 18 10 40 10 22 0
40 -4 40 -10z m120 0 c0 -5 -18 -10 -40 -10 -22 0 -40 5 -40 10 0 6 18 10 40
10 22 0 40 -4 40 -10z m997 -102 c-2 -24 -4 -7 -4 37 0 44 2 63 4 43 2 -21 2
-57 0 -80z m87 97 c3 -9 0 -15 -9 -15 -8 0 -15 7 -15 15 0 8 4 15 9 15 5 0 11
-7 15 -15z m146 0 c0 -8 -7 -15 -15 -15 -9 0 -12 6 -9 15 4 8 10 15 15 15 5 0
9 -7 9 -15z m227 -97 c-2 -24 -4 -7 -4 37 0 44 2 63 4 43 2 -21 2 -57 0 -80z
m83 97 c10 -12 10 -15 -4 -15 -9 0 -16 7 -16 15 0 8 2 15 4 15 2 0 9 -7 16
-15z m-3060 -34 c0 -21 3 -59 6 -85 6 -41 4 -46 -12 -47 -18 0 -18 -1 1 -9 17
-7 17 -9 3 -9 -22 -1 -24 -21 -3 -21 12 0 15 -17 15 -90 0 -79 -2 -90 -17 -91
-15 0 -15 -2 2 -9 19 -8 19 -9 -2 -9 -22 -1 -23 2 -23 84 0 61 4 85 13 86 10
0 10 2 0 6 -9 3 -13 37 -13 119 0 95 3 114 15 114 11 0 15 -11 15 -39z m300
-26 c0 -45 -4 -65 -12 -66 -10 0 -10 -2 0 -6 18 -7 15 -33 -5 -34 -17 -1 -17
-2 0 -6 21 -5 25 -82 5 -84 -10 0 -10 -2 0 -6 18 -7 15 -33 -5 -34 -17 -1 -17
-2 0 -6 13 -3 17 -15 17 -54 0 -42 -3 -49 -20 -49 -19 0 -20 7 -20 205 0 198
1 205 20 205 18 0 20 -7 20 -65z m776 51 c11 -11 14 -47 14 -160 0 -91 -4
-146 -10 -146 -5 0 -10 -20 -10 -45 0 -25 -5 -45 -11 -45 -6 0 -9 17 -8 42 2
26 -1 43 -9 46 -9 3 -12 44 -12 153 0 128 2 149 16 149 8 0 12 5 9 10 -9 15 4
12 21 -4z m120 0 c11 -11 14 -47 14 -160 0 -91 -4 -146 -10 -146 -5 0 -10 -20
-10 -45 0 -25 -5 -45 -11 -45 -6 0 -9 17 -8 42 2 26 -1 43 -9 46 -17 5 -17
287 1 307 15 18 16 18 33 1z m120 0 c11 -11 14 -47 14 -160 0 -91 -4 -146 -10
-146 -5 0 -10 -20 -10 -45 0 -25 -4 -45 -10 -45 -5 0 -10 20 -10 45 0 25 -4
45 -10 45 -16 0 -13 287 3 305 15 18 16 18 33 1z m120 0 c11 -11 14 -47 14
-160 0 -91 -4 -146 -10 -146 -5 0 -10 -20 -10 -45 0 -25 -4 -45 -10 -45 -5 0
-10 20 -10 45 0 25 -4 45 -10 45 -16 0 -13 287 3 305 15 18 16 18 33 1z m674
-71 c0 -78 -2 -85 -20 -85 -21 0 -29 29 -7 31 10 0 10 2 0 6 -9 3 -13 27 -13
69 0 57 2 64 20 64 18 0 20 -7 20 -85z m300 -30 c0 -103 -2 -115 -17 -116 -15
0 -15 -2 -3 -7 12 -5 15 -26 15 -90 0 -81 0 -82 -25 -81 -17 1 -19 3 -7 6 9 2
17 9 17 14 0 6 -4 7 -10 4 -6 -4 -10 27 -10 84 0 74 3 91 15 91 8 0 15 5 15
10 0 6 -8 10 -17 10 -15 0 -16 2 -3 10 10 6 11 10 3 10 -10 0 -13 24 -13 85 0
78 2 85 20 85 19 0 20 -7 20 -115z m140 39 c0 -36 -4 -64 -10 -64 -6 0 -10 30
-10 71 0 44 4 68 10 64 6 -3 10 -35 10 -71z m-1650 -94 c0 -143 -1 -150 -20
-150 -19 0 -20 7 -20 150 0 143 1 150 20 150 19 0 20 -7 20 -150z m120 0 c0
-143 -1 -150 -20 -150 -19 0 -20 7 -20 150 0 143 1 150 20 150 19 0 20 -7 20
-150z m120 0 c0 -143 -1 -150 -20 -150 -19 0 -20 7 -20 150 0 143 1 150 20
150 19 0 20 -7 20 -150z m120 0 c0 -143 -1 -150 -20 -150 -19 0 -20 7 -20 150
0 143 1 150 20 150 19 0 20 -7 20 -150z m120 0 c0 -143 -1 -150 -20 -150 -19
0 -20 7 -20 150 0 143 1 150 20 150 19 0 20 -7 20 -150z m120 0 c0 -143 -1
-150 -20 -150 -19 0 -20 7 -20 150 0 143 1 150 20 150 19 0 20 -7 20 -150z
m1067 58 c-2 -18 -4 -4 -4 32 0 36 2 50 4 33 2 -18 2 -48 0 -65z m213 32 c0
-33 -4 -60 -10 -60 -6 0 -10 27 -10 60 0 33 4 60 10 60 6 0 10 -27 10 -60z
m247 -32 c-2 -18 -4 -4 -4 32 0 36 2 50 4 33 2 -18 2 -48 0 -65z m47 67 c-4
-8 -10 -13 -14 -10 -4 2 -5 -16 -2 -40 3 -30 1 -45 -7 -45 -12 0 -15 67 -5 94
3 9 12 16 20 16 8 0 11 -6 8 -15z m-3576 -12 c-10 -2 -28 -2 -40 0 -13 2 -5 4
17 4 22 1 32 -1 23 -4z m145 0 c-13 -2 -35 -2 -50 0 -16 2 -5 4 22 4 28 0 40
-2 28 -4z m3107 -38 c0 -33 -4 -45 -15 -45 -8 0 -15 3 -15 8 0 14 21 82 25 82
3 0 5 -20 5 -45z m-2370 5 c0 -23 -4 -30 -20 -30 -16 0 -20 7 -20 30 0 23 4
30 20 30 16 0 20 -7 20 -30z m40 0 c0 -20 -5 -30 -15 -30 -10 0 -15 10 -15 30
0 20 5 30 15 30 10 0 15 -10 15 -30z m70 0 c0 -23 -4 -30 -20 -30 -14 0 -20 7
-20 23 0 27 7 37 27 37 8 0 13 -12 13 -30z m50 0 c0 -23 -4 -30 -20 -30 -16 0
-20 7 -20 30 0 23 4 30 20 30 16 0 20 -7 20 -30z m60 0 c0 -20 -5 -30 -15 -30
-10 0 -15 10 -15 30 0 20 5 30 15 30 10 0 15 -10 15 -30z m50 0 c0 -23 -4 -30
-20 -30 -16 0 -20 7 -20 30 0 23 4 30 20 30 16 0 20 -7 20 -30z m70 0 c0 -23
-4 -30 -20 -30 -16 0 -20 7 -20 30 0 23 4 30 20 30 16 0 20 -7 20 -30z m40 0
c0 -20 -5 -30 -15 -30 -10 0 -15 10 -15 30 0 20 5 30 15 30 10 0 15 -10 15
-30z m890 0 c0 -23 -4 -30 -20 -30 -16 0 -20 7 -20 30 0 23 4 30 20 30 16 0
20 -7 20 -30z m40 0 c0 -20 -5 -30 -15 -30 -10 0 -15 10 -15 30 0 20 5 30 15
30 10 0 15 -10 15 -30z m70 0 c0 -23 -4 -30 -20 -30 -16 0 -20 7 -20 30 0 23
4 30 20 30 16 0 20 -7 20 -30z m50 0 c0 -23 -4 -30 -20 -30 -16 0 -20 7 -20
30 0 23 4 30 20 30 16 0 20 -7 20 -30z m60 0 c0 -20 -5 -30 -15 -30 -10 0 -15
10 -15 30 0 20 5 30 15 30 10 0 15 -10 15 -30z m50 0 c0 -23 -4 -30 -20 -30
-16 0 -20 7 -20 30 0 23 4 30 20 30 16 0 20 -7 20 -30z m66 -2 c2 -22 -2 -28
-17 -28 -15 0 -19 7 -19 31 0 40 31 37 36 -3z m44 2 c0 -20 -5 -30 -15 -30
-10 0 -15 10 -15 30 0 20 5 30 15 30 10 0 15 -10 15 -30z m-2994 -4 c-5 -20
-1 -25 27 -31 32 -7 32 -7 7 -15 -23 -7 -23 -8 10 -11 31 -2 32 -2 8 -6 -16
-2 -28 -9 -28 -14 0 -5 12 -8 28 -7 l27 3 1 -120 1 -120 -6 96 c-7 106 -18
129 -62 129 -49 0 -59 -21 -59 -126 0 -56 -4 -94 -10 -94 -11 0 -14 179 -4
218 4 15 14 22 33 23 23 2 24 2 4 6 -27 5 -30 18 -7 31 9 5 17 21 17 36 0 14
4 26 9 26 6 0 7 -11 4 -24z m31 5 c0 -11 -5 -17 -9 -15 -11 7 -10 34 1 34 6 0
9 -9 8 -19z m159 -5 c-5 -20 -1 -25 27 -31 32 -7 32 -7 7 -15 -23 -7 -23 -8
10 -11 31 -2 32 -2 8 -6 -16 -2 -28 -9 -28 -14 0 -5 12 -8 28 -7 l27 3 1 -120
1 -120 -6 96 c-7 106 -18 129 -62 129 -49 0 -59 -21 -59 -126 0 -56 -4 -94
-10 -94 -11 0 -14 179 -4 218 4 15 14 22 33 23 23 2 24 2 4 6 -27 5 -30 18 -7
31 9 5 17 21 17 36 0 14 4 26 9 26 6 0 7 -11 4 -24z m31 5 c0 -11 -5 -17 -9
-15 -11 7 -10 34 1 34 6 0 9 -9 8 -19z m283 5 c0 -6 -5 -18 -11 -26 -9 -13
-10 -13 -6 1 3 9 1 21 -4 26 -6 6 -4 10 6 10 8 0 15 -5 15 -11z m27 2 c-2 -7
3 -19 12 -26 14 -11 13 -11 -6 -2 -23 11 -32 40 -12 40 6 0 9 -6 6 -12z m289
-12 c-5 -20 -1 -25 27 -31 32 -7 32 -7 7 -15 -23 -7 -23 -8 10 -11 31 -2 32
-2 8 -6 -16 -2 -28 -9 -28 -14 0 -5 12 -8 28 -7 l27 3 1 -120 1 -120 -6 96
c-7 106 -18 129 -62 129 -49 0 -59 -21 -59 -126 0 -56 -4 -94 -10 -94 -11 0
-14 121 -4 194 6 41 10 46 33 47 23 2 24 2 4 6 -27 5 -30 18 -7 31 9 5 17 21
17 36 0 14 4 26 9 26 6 0 7 -11 4 -24z m31 5 c0 -11 -5 -17 -9 -15 -11 7 -10
34 1 34 6 0 9 -9 8 -19z m2755 -8 c21 -19 24 -45 4 -37 -9 3 -12 12 -9 21 4
10 2 14 -4 10 -6 -4 -13 0 -17 8 -7 20 3 19 26 -2z m63 -13 c-16 -30 -35 -40
-35 -18 0 14 30 48 42 48 5 0 2 -13 -7 -30z m-3125 -20 c13 -8 12 -10 -5 -11
-14 -1 -10 -4 10 -9 24 -6 26 -8 8 -9 -31 -1 -29 -21 2 -21 l25 0 -2 -122 -2
-123 -3 100 c-4 110 -16 135 -63 135 -47 0 -59 -25 -63 -135 -3 -98 -3 -98 -5
28 l-2 127 28 1 27 1 -25 7 -24 7 24 17 c28 19 48 21 70 7z m3560 -35 c0 -13
-47 -15 -360 -15 -313 0 -360 2 -360 15 0 13 47 15 360 15 313 0 360 -2 360
-15z m-2940 -130 l0 -115 -62 0 -63 0 0 115 0 115 63 0 62 0 0 -115z m1910 55
c0 -53 -2 -60 -20 -60 -21 0 -29 29 -7 31 10 0 10 2 0 6 -8 2 -13 22 -13 44 0
32 3 39 20 39 18 0 20 -7 20 -60z m190 -55 l0 -115 -60 0 -60 0 0 115 0 115
60 0 60 0 0 -115z m358 65 c-1 -22 -6 -40 -11 -40 -5 0 -7 6 -4 13 2 6 -7 24
-21 40 l-26 27 33 0 c31 0 32 -1 29 -40z m72 37 c0 -2 -13 -16 -30 -32 l-30
-29 0 32 c0 29 3 32 30 32 17 0 30 -1 30 -3z m-3652 -19 c8 -8 12 -46 12 -105
l0 -93 -45 0 -45 0 0 93 c0 98 7 117 45 117 12 0 26 -5 33 -12z m190 0 c8 -8
12 -46 12 -105 l0 -93 -45 0 -45 0 0 93 c0 98 7 117 45 117 12 0 26 -5 33 -12z
m314 -5 c15 -13 18 -32 18 -105 l0 -88 -50 0 -50 0 0 87 c0 66 4 91 17 105 20
22 41 23 65 1z m316 5 c8 -8 12 -46 12 -105 l0 -93 -45 0 -45 0 0 93 c0 98 7
117 45 117 12 0 26 -5 33 -12z m2882 -77 c0 -17 -31 -21 -133 -19 l-102 2 85
5 85 5 -85 6 -85 6 118 2 c64 1 117 -2 117 -7z m580 0 c0 -15 -42 -21 -145
-19 l-100 2 90 6 90 6 -90 5 -90 5 123 2 c67 1 122 -2 122 -7z m-1250 -71 c0
-43 -3 -50 -20 -50 -17 0 -20 7 -20 50 0 43 3 50 20 50 17 0 20 -7 20 -50z
m660 20 c0 -17 -7 -20 -42 -22 l-43 -1 43 -4 c53 -5 56 -23 3 -23 -21 0 -66
-3 -100 -6 -51 -6 -61 -4 -61 9 0 16 20 27 51 27 12 0 17 4 13 11 -3 6 -19 9
-35 7 -20 -3 -29 0 -29 9 0 10 24 13 100 13 93 0 100 -1 100 -20z m570 0 c0
-17 -7 -20 -42 -22 l-43 -1 43 -4 c53 -5 56 -23 3 -23 -21 0 -66 -3 -100 -6
-51 -6 -61 -4 -61 9 0 16 20 27 51 27 12 0 17 4 13 11 -3 6 -19 9 -35 7 -20
-3 -29 0 -29 9 0 10 24 13 100 13 93 0 100 -1 100 -20z m-2420 -2 c0 -4 -18
-8 -41 -8 -22 0 -38 3 -36 8 7 10 77 10 77 0z m120 0 c0 -5 -18 -8 -40 -8 -22
0 -40 3 -40 8 0 4 18 7 40 7 22 0 40 -3 40 -7z m120 0 c0 -5 -18 -8 -40 -8
-22 0 -40 3 -40 8 0 4 18 7 40 7 22 0 40 -3 40 -7z m120 0 c0 -5 -18 -8 -40
-8 -22 0 -40 3 -40 8 0 4 18 7 40 7 22 0 40 -3 40 -7z m120 0 c0 -5 -18 -8
-40 -8 -22 0 -40 3 -40 8 0 4 18 7 40 7 22 0 40 -3 40 -7z m119 -4 c2 -2 -14
-4 -37 -4 -23 0 -42 4 -42 9 0 9 69 4 79 -5z m-599 -39 c0 -22 -4 -25 -40 -25
-36 0 -40 3 -40 25 0 23 4 25 40 25 36 0 40 -2 40 -25z m120 0 c0 -22 -4 -25
-40 -25 -36 0 -40 3 -40 25 0 23 4 25 40 25 36 0 40 -2 40 -25z m120 0 c0 -22
-4 -25 -40 -25 -36 0 -40 3 -40 25 0 23 4 25 40 25 36 0 40 -2 40 -25z m120 0
c0 -22 -4 -25 -40 -25 -36 0 -40 3 -40 25 0 23 4 25 40 25 36 0 40 -2 40 -25z
m120 0 c0 -22 -4 -25 -40 -25 -36 0 -40 3 -40 25 0 23 4 25 40 25 36 0 40 -2
40 -25z m120 0 c0 -22 -4 -25 -40 -25 -36 0 -40 3 -40 25 0 23 4 25 40 25 36
0 40 -2 40 -25z"/>
<path d="M1761 7950 c0 -8 6 -26 14 -40 8 -14 14 -19 14 -10 0 8 -6 26 -14 40
-8 14 -14 19 -14 10z"/>
<path d="M2215 7930 c-9 -18 -14 -34 -11 -37 2 -3 12 9 21 27 9 18 14 34 11
37 -2 3 -12 -9 -21 -27z"/>
<path d="M2250 7950 c0 -8 5 -22 10 -30 9 -13 10 -13 10 0 0 8 -5 22 -10 30
-9 13 -10 13 -10 0z"/>
<path d="M1760 7745 c1 -6 7 -21 16 -35 l15 -25 -7 25 c-7 26 -24 52 -24 35z"/>
<path d="M2115 7520 c-9 -18 -14 -34 -11 -37 2 -3 12 9 21 27 9 18 14 34 11
37 -2 3 -12 -9 -21 -27z"/>
<path d="M2256 7414 c-4 -14 -5 -28 -3 -31 3 -2 8 8 11 23 4 14 5 28 3 31 -3
2 -8 -8 -11 -23z"/>
<path d="M85 7251 c-3 -7 0 -8 10 -5 8 4 23 0 32 -7 14 -12 16 -12 11 1 -6 18
-43 26 -53 11z"/>
<path d="M905 7251 c-3 -7 0 -8 10 -5 8 4 23 0 32 -7 14 -12 16 -12 11 1 -6
18 -43 26 -53 11z"/>
<path d="M4316 7064 c-3 -9 -6 -58 -6 -110 l0 -95 38 3 37 3 3 94 c2 60 -1 98
-9 107 -16 19 -55 18 -63 -2z m54 -94 c0 -100 0 -100 -25 -100 -25 0 -25 1
-25 84 0 97 5 116 31 116 17 0 19 -9 19 -100z"/>
<path d="M3244 7186 c-3 -8 -4 -27 -2 -43 l3 -28 103 -3 103 -3 -3 43 c-3 38
-6 43 -28 43 -22 0 -25 -4 -25 -38 0 -48 -13 -48 -17 1 -3 32 -6 37 -28 37
-22 0 -25 -5 -28 -37 -4 -51 -22 -49 -22 2 0 36 -2 40 -25 40 -14 0 -28 -6
-31 -14z m46 -26 c0 -23 -4 -30 -20 -30 -20 0 -25 15 -14 44 11 28 34 18 34
-14z m78 -3 c3 -22 -1 -27 -17 -27 -17 0 -21 6 -21 31 0 24 4 30 18 27 10 -2
18 -14 20 -31z m72 3 c0 -23 -4 -30 -20 -30 -14 0 -20 7 -20 23 0 27 7 37 27
37 8 0 13 -12 13 -30z"/>
<path d="M2783 7134 c-3 -8 -1 -20 6 -27 8 -8 11 -4 11 16 0 30 -7 35 -17 11z"/>
<path d="M1761 7135 c0 -5 6 -21 14 -35 8 -14 14 -20 14 -15 0 6 -6 21 -14 35
-8 14 -14 21 -14 15z"/>
<path d="M3310 7027 c-33 -16 -61 -73 -58 -117 l3 -35 93 -3 92 -3 0 51 c0 64
-12 88 -55 106 -41 17 -43 17 -75 1z m30 -77 c0 -68 -1 -70 -25 -70 -24 0 -25
3 -25 58 0 57 11 82 37 82 9 0 13 -19 13 -70z m58 58 c7 -7 12 -38 12 -70 0
-58 0 -58 -30 -58 l-30 0 0 70 c0 61 2 70 18 70 10 0 23 -5 30 -12z m-121
-105 c-2 -16 -4 -3 -4 27 0 30 2 43 4 28 2 -16 2 -40 0 -55z m150 0 c-2 -16
-4 -5 -4 22 0 28 2 40 4 28 2 -13 2 -35 0 -50z"/>
<path d="M1214 7030 c-39 -16 -64 -59 -64 -111 l0 -49 95 0 95 0 0 50 c0 40
-5 55 -27 79 -31 33 -67 45 -99 31z m26 -80 c0 -68 -1 -70 -25 -70 -24 0 -25
2 -25 64 0 63 5 73 38 75 8 1 12 -19 12 -69z m44 64 c12 -5 16 -21 16 -70 0
-62 -1 -64 -25 -64 -24 0 -25 2 -25 70 0 69 3 76 34 64z m-104 -84 c0 -27 -4
-50 -10 -50 -11 0 -14 59 -4 84 10 27 14 18 14 -34z m150 -12 c0 -21 -4 -38
-10 -38 -5 0 -10 24 -10 53 0 37 3 48 10 37 5 -8 10 -32 10 -52z"/>
<path d="M1456 6794 c-12 -11 -16 -36 -16 -99 0 -46 3 -90 6 -99 5 -14 34 -16
214 -16 180 0 209 2 214 16 11 29 7 189 -6 202 -19 19 -66 15 -78 -7 -5 -11
-11 -62 -12 -113 l-2 -93 -5 100 c-3 55 -10 106 -14 113 -10 15 -59 16 -75 0
-7 -7 -13 -49 -14 -107 l-2 -96 -3 90 c-4 97 -17 125 -58 125 -38 0 -50 -27
-56 -124 l-5 -91 -2 96 c-1 58 -7 100 -14 107 -17 17 -54 15 -72 -4z m34 -39
c0 -38 -3 -45 -20 -45 -23 0 -28 37 -10 71 18 32 30 21 30 -26z m40 -6 c0 -28
-4 -39 -15 -39 -11 0 -15 12 -15 45 0 35 3 43 15 39 10 -4 15 -20 15 -45z m70
6 c0 -38 -3 -45 -20 -45 -17 0 -19 5 -14 33 8 48 12 57 24 57 5 0 10 -20 10
-45z m40 26 c18 -34 13 -71 -10 -71 -17 0 -20 7 -20 45 0 47 12 58 30 26z m70
-26 c0 -33 -4 -45 -15 -45 -19 0 -21 60 -3 78 17 17 18 16 18 -33z m38 33 c7
-7 12 -27 12 -45 0 -26 -4 -33 -20 -33 -17 0 -20 7 -20 45 0 46 7 54 28 33z
m80 -33 c0 -38 -3 -45 -19 -45 -15 0 -19 7 -19 33 0 31 14 57 31 57 4 0 7 -20
7 -45z m42 -11 c0 -24 -5 -34 -15 -34 -11 0 -15 12 -15 46 0 40 2 45 15 34 8
-7 15 -28 15 -46z m-380 -89 c0 -38 -3 -45 -20 -45 -17 0 -20 7 -20 45 0 38 3
45 20 45 17 0 20 -7 20 -45z m40 0 c0 -33 -4 -45 -15 -45 -11 0 -15 12 -15 45
0 33 4 45 15 45 11 0 15 -12 15 -45z m70 0 c0 -36 -3 -45 -17 -45 -15 0 -18 9
-18 45 0 36 3 45 18 45 14 0 17 -9 17 -45z m50 0 c0 -38 -3 -45 -20 -45 -17 0
-20 7 -20 45 0 38 3 45 20 45 17 0 20 -7 20 -45z m60 0 c0 -33 -4 -45 -15 -45
-11 0 -15 12 -15 45 0 33 4 45 15 45 11 0 15 -12 15 -45z m50 0 c0 -38 -3 -45
-20 -45 -17 0 -20 7 -20 45 0 38 3 45 20 45 17 0 20 -7 20 -45z m68 0 c0 -38
-3 -45 -19 -45 -16 0 -19 7 -19 45 0 38 3 45 19 45 16 0 19 -7 19 -45z m42 0
c0 -33 -4 -45 -15 -45 -11 0 -15 12 -15 45 0 33 4 45 15 45 11 0 15 -12 15
-45z"/>
<path d="M2726 6794 c-12 -12 -16 -36 -16 -102 0 -48 4 -93 8 -100 7 -9 57
-12 218 -10 l209 3 3 99 c3 108 -4 126 -47 126 -44 0 -51 -16 -53 -124 l-2
-101 -5 103 c-6 108 -13 122 -56 122 -37 0 -45 -20 -47 -119 l-2 -96 -3 90
c-4 97 -17 125 -58 125 -38 0 -50 -27 -56 -124 l-5 -91 -2 96 c-1 58 -7 100
-14 107 -17 17 -54 15 -72 -4z m34 -39 c0 -38 -3 -45 -20 -45 -16 0 -20 7 -20
33 0 31 14 57 32 57 4 0 8 -20 8 -45z m40 -11 c0 -24 -5 -34 -15 -34 -11 0
-15 12 -15 46 0 40 2 45 15 34 8 -7 15 -28 15 -46z m70 11 c0 -39 -3 -45 -20
-45 -19 0 -20 4 -14 38 8 43 12 52 25 52 5 0 9 -20 9 -45z m40 26 c18 -34 13
-71 -10 -71 -17 0 -20 7 -20 45 0 47 12 58 30 26z m70 -26 c0 -33 -4 -45 -15
-45 -19 0 -21 60 -3 78 17 17 18 16 18 -33z m38 33 c7 -7 12 -27 12 -45 0 -26
-4 -33 -20 -33 -17 0 -20 7 -20 45 0 46 7 54 28 33z m77 -33 c0 -36 -3 -45
-17 -45 -14 0 -18 8 -18 33 0 29 14 57 30 57 3 0 5 -20 5 -45z m45 -11 c0 -24
-5 -34 -15 -34 -11 0 -15 12 -15 46 0 40 2 45 15 34 8 -7 15 -28 15 -46z
m-380 -89 c0 -38 -3 -45 -20 -45 -17 0 -20 7 -20 45 0 38 3 45 20 45 17 0 20
-7 20 -45z m40 0 c0 -33 -4 -45 -15 -45 -11 0 -15 12 -15 45 0 33 4 45 15 45
11 0 15 -12 15 -45z m70 0 c0 -37 -3 -45 -18 -45 -15 0 -19 8 -19 45 0 37 4
45 19 45 15 0 18 -8 18 -45z m50 0 c0 -38 -3 -45 -20 -45 -17 0 -20 7 -20 45
0 38 3 45 20 45 17 0 20 -7 20 -45z m60 0 c0 -33 -4 -45 -15 -45 -11 0 -15 12
-15 45 0 33 4 45 15 45 11 0 15 -12 15 -45z m50 0 c0 -38 -3 -45 -20 -45 -17
0 -20 7 -20 45 0 38 3 45 20 45 17 0 20 -7 20 -45z m65 0 c0 -36 -3 -45 -17
-45 -15 0 -18 9 -18 45 0 36 3 45 18 45 14 0 17 -9 17 -45z m45 0 c0 -33 -4
-45 -15 -45 -11 0 -15 12 -15 45 0 33 4 45 15 45 11 0 15 -12 15 -45z"/>
<path d="M2998 8525 c-21 -7 -57 -27 -81 -43 l-43 -30 -32 29 c-48 43 -119 39
-175 -9 -11 -10 -32 -15 -57 -13 -32 2 -41 -2 -56 -24 -25 -38 -8 -48 69 -43
l65 4 -5 -33 -6 -33 55 0 54 0 -15 -65 -15 -65 -215 -3 -216 -2 216 -3 216 -2
11 -54 c47 -234 290 -356 502 -254 25 12 67 44 93 70 l48 48 109 0 c67 0 110
4 110 10 0 6 -42 10 -106 10 -97 0 -106 1 -99 18 62 151 39 294 -63 399 -68
70 -131 96 -237 100 -61 2 -102 -2 -127 -12z m202 -5 c83 -23 220 -135 194
-159 -5 -5 -165 -12 -356 -16 -321 -7 -348 -6 -348 9 0 47 81 82 130 56 15 -8
27 -3 62 27 56 47 96 63 158 63 60 0 111 -24 159 -74 38 -39 70 -52 146 -60
45 -5 43 -4 -22 13 -75 19 -120 42 -130 67 -11 28 -87 64 -139 65 -37 0 -44 3
-29 9 28 12 133 12 175 0z m-381 -34 c15 -8 33 -21 40 -29 18 -22 -2 -31 -74
-34 -33 -1 -97 -5 -142 -8 -83 -7 -99 -1 -68 25 8 7 27 10 43 7 20 -4 39 2 71
24 48 32 87 37 130 15z m617 -203 c49 -167 -57 -361 -223 -409 -217 -63 -433
92 -433 311 0 39 5 87 10 107 l11 38 292 3 c161 1 300 3 309 5 13 1 21 -12 34
-55z"/>
<path d="M440 8300 c0 -6 52 -10 135 -10 83 0 135 4 135 10 0 6 -52 10 -135
10 -83 0 -135 -4 -135 -10z"/>
<path d="M1398 7503 c17 -2 47 -2 65 0 17 2 3 4 -33 4 -36 0 -50 -2 -32 -4z"/>
<path d="M3223 7433 c87 -2 227 -2 310 0 84 1 13 3 -158 3 -170 0 -239 -2
-152 -3z"/>
<path d="M4328 7323 c17 -2 47 -2 65 0 17 2 3 4 -33 4 -36 0 -50 -2 -32 -4z"/>
<path d="M3938 7243 c18 -2 45 -2 60 0 15 2 0 4 -33 4 -33 0 -45 -2 -27 -4z"/>
</g>
</svg>
