<?xml version="1.0" standalone="no"?>
<!DOCTYPE svg PUBLIC "-//W3C//DTD SVG 20010904//EN"
 "http://www.w3.org/TR/2001/REC-SVG-20010904/DTD/svg10.dtd">
<svg version="1.0" xmlns="http://www.w3.org/2000/svg"
 width="300.000000pt" height="300.000000pt" viewBox="0 0 300.000000 300.000000"
 preserveAspectRatio="xMidYMid meet">
<metadata>
Created by potrace 1.10, written by Peter Selinger 2001-2011
</metadata>
<g transform="translate(0.000000,300.000000) scale(0.100000,-0.100000)"
fill="#000000" stroke="none">
<path d="M4 2785 c0 -121 2 -169 3 -107 2 62 2 161 0 220 -1 59 -3 8 -3 -113z"/>
<path d="M1130 2984 c0 -10 13 -14 40 -14 26 0 40 5 40 13 0 8 -15 13 -40 13
-28 1 -40 -3 -40 -12z"/>
<path d="M2470 2985 c0 -11 11 -15 40 -15 29 0 40 4 40 15 0 18 -5 18 -31 5
-13 -7 -19 -7 -19 0 0 5 -7 10 -15 10 -8 0 -15 -7 -15 -15z"/>
<path d="M2993 2940 c0 -36 2 -50 4 -32 2 17 2 47 0 65 -2 17 -4 3 -4 -33z"/>
<path d="M2995 2240 c0 -316 1 -446 2 -287 2 158 2 416 0 575 -1 158 -2 28 -2
-288z"/>
<path d="M2130 2710 c0 -40 0 -40 40 -40 40 0 40 0 40 40 0 40 0 40 -40 40
-40 0 -40 0 -40 -40z m60 5 c13 -16 6 -35 -15 -35 -12 0 -25 21 -25 41 0 14
26 11 40 -6z"/>
<path d="M125 2700 c0 -40 0 -40 37 -40 38 0 38 0 38 40 0 40 0 40 -38 40 -37
0 -37 0 -37 -40z m52 14 c14 -14 14 -17 0 -31 -14 -14 -16 -13 -26 6 -11 19
-8 41 5 41 3 0 13 -7 21 -16z"/>
<path d="M5 1975 c0 -308 1 -435 2 -283 2 152 2 404 0 560 -1 156 -2 31 -2
-277z"/>
<path d="M1452 2467 c-21 -22 -22 -33 -22 -168 0 -142 1 -146 25 -169 21 -20
27 -21 42 -9 11 9 14 10 9 2 -13 -22 19 -14 42 10 21 22 22 33 22 168 0 139
-1 146 -23 167 -30 28 -68 28 -95 -1z m72 -43 c3 -9 6 -66 6 -129 0 -88 -3
-115 -15 -125 -12 -10 -18 -10 -30 0 -12 10 -15 37 -15 125 0 126 4 145 30
145 10 0 21 -7 24 -16z"/>
<path d="M2470 2399 l0 -40 38 3 c35 3 37 5 40 41 l3 37 -40 0 -41 0 0 -41z
m55 10 c5 -14 2 -25 -6 -30 -9 -6 -15 -3 -17 6 -2 8 -7 15 -12 15 -5 0 -7 7
-4 15 9 22 32 18 39 -6z"/>
<path d="M815 2195 c-14 -13 -25 -33 -25 -45 0 -24 180 -221 215 -234 31 -12
72 6 87 38 17 39 -4 74 -106 175 -103 101 -128 110 -171 66z m154 -110 c82
-84 97 -116 59 -123 -34 -7 -178 155 -178 199 0 28 47 -2 119 -76z"/>
<path d="M2018 2133 c-123 -121 -139 -153 -93 -198 37 -37 69 -32 122 20 39
37 44 47 33 60 -19 23 -32 18 -19 -7 11 -23 11 -23 -12 1 -16 15 -20 25 -12
28 7 2 9 12 6 20 -5 12 -2 15 10 10 11 -4 17 -1 17 8 0 20 27 8 33 -16 5 -18
37 -28 37 -11 0 4 16 24 35 45 32 35 43 57 29 57 -10 0 -34 -28 -34 -40 0 -6
-4 -8 -10 -5 -17 10 -11 22 20 42 l31 19 -21 27 c-39 50 -71 39 -172 -60z
m120 25 c-6 -18 -57 -53 -65 -45 -9 9 37 57 55 57 7 0 12 -5 10 -12z m10 -63
c-2 -5 -7 -9 -11 -7 -5 1 -6 -2 -3 -7 4 -5 2 -12 -3 -15 -13 -8 -24 12 -17 30
6 17 39 16 34 -1z m-114 -100 c15 -23 15 -24 -1 -18 -12 5 -14 3 -8 -8 8 -12
6 -12 -8 0 -21 17 -35 7 -18 -13 9 -11 8 -15 -5 -20 -27 -11 -54 -7 -54 8 0
18 17 30 24 17 4 -5 0 -12 -6 -14 -7 -3 -2 -6 11 -6 l24 -1 -21 23 c-27 29
-28 40 -3 32 11 -3 25 0 33 9 7 8 14 15 14 16 1 0 9 -11 18 -25z"/>
<path d="M126 2107 c-11 -53 -9 -57 34 -57 40 0 40 0 40 39 0 37 -2 39 -34 43
-31 3 -35 1 -40 -25z m51 -6 c10 -15 9 -22 -1 -30 -17 -14 -41 11 -32 34 7 20
19 19 33 -4z"/>
<path d="M1383 1996 c-176 -43 -325 -196 -368 -377 -41 -177 10 -356 140 -484
194 -192 494 -192 691 0 205 200 205 529 0 730 -124 122 -298 171 -463 131z
m271 -56 c31 -12 77 -36 103 -54 41 -27 48 -36 46 -61 -2 -25 0 -27 8 -12 11
18 29 23 29 8 0 -5 -7 -17 -16 -26 -9 -9 -14 -18 -12 -21 3 -2 11 2 18 11 16
19 30 19 30 0 0 -8 4 -15 10 -15 15 0 59 -93 76 -163 28 -108 6 -268 -40 -288
-11 -5 -31 -16 -44 -25 l-22 -17 20 48 c11 26 26 79 32 116 22 127 -25 262
-123 355 -152 142 -363 150 -521 17 -31 -26 -43 -31 -49 -21 -7 10 -9 9 -9 -4
0 -10 -7 -18 -15 -18 -8 0 -15 4 -15 9 0 5 7 14 15 21 8 7 15 21 15 31 0 36
124 108 225 129 60 13 176 3 239 -20z m-69 -85 c77 -20 155 -72 200 -133 41
-56 75 -155 75 -222 0 -111 -66 -239 -154 -300 -68 -46 -121 -62 -206 -62
-162 0 -291 94 -340 251 -25 80 -25 142 0 222 38 120 132 211 250 243 72 19
103 19 175 1z m-422 -89 c16 -13 15 -18 -20 -92 -36 -74 -38 -85 -38 -175 0
-90 2 -99 38 -171 77 -156 237 -252 390 -234 29 3 80 16 115 28 54 19 65 20
72 8 17 -27 10 -37 -42 -60 -118 -51 -248 -49 -365 5 -86 39 -125 72 -118 98
5 16 4 18 -3 8 -5 -7 -15 -12 -22 -9 -9 3 -8 9 5 21 9 10 15 20 12 23 -2 3
-12 -2 -20 -11 -21 -21 -30 -19 -24 5 3 13 0 20 -9 20 -18 0 -61 85 -80 163
-29 110 -6 254 56 355 22 36 27 37 53 18z m753 -512 c-25 -18 -46 -18 -46 0 0
8 9 12 25 11 14 -2 25 1 25 7 0 6 -7 8 -15 4 -15 -6 -20 5 -8 18 4 3 14 -1 22
-9 15 -15 14 -18 -3 -31z m-51 -25 c8 -12 -23 -49 -41 -49 -8 0 -11 -6 -8 -15
4 -9 0 -15 -8 -15 -8 0 -24 -9 -35 -19 -20 -19 -21 -19 -32 6 -11 23 -10 25 8
20 11 -3 19 -1 18 4 -2 9 72 78 85 79 4 0 10 -5 13 -11z"/>
<path d="M1460 1500 c0 -40 0 -40 40 -40 40 0 40 0 40 40 0 40 0 40 -40 40
-40 0 -40 0 -40 -40z m58 -8 c4 -26 -22 -31 -32 -6 -10 26 -7 36 12 32 9 -2
18 -13 20 -26z"/>
<path d="M2470 1823 c0 -10 -3 -28 -6 -40 -6 -21 -3 -23 35 -23 37 0 41 3 41
24 0 13 3 31 6 40 5 13 -2 16 -35 16 -32 0 -41 -4 -41 -17z m54 -19 c7 -19 -1
-34 -19 -34 -18 0 -28 17 -21 35 7 20 32 19 40 -1z"/>
<path d="M2995 830 c0 -459 1 -647 2 -418 2 230 2 606 0 835 -1 230 -2 42 -2
-417z"/>
<path d="M550 1550 c-27 -27 -26 -71 3 -98 20 -19 35 -22 116 -22 82 0 92 2
81 15 -9 11 -9 15 -1 15 6 0 14 -7 17 -15 4 -10 20 -15 50 -15 53 0 84 26 84
70 0 17 -9 39 -20 50 -18 18 -33 20 -165 20 -132 0 -147 -2 -165 -20z m321
-38 c-11 -21 -61 -65 -61 -54 0 4 -5 0 -10 -8 -8 -13 -11 -13 -19 -1 -6 10 3
24 36 53 44 38 72 43 54 10z m-91 8 c0 -6 -15 -19 -32 -30 -33 -20 -117 -27
-152 -14 -16 6 -22 35 -9 47 11 11 193 8 193 -3z"/>
<path d="M2120 1550 c-11 -11 -20 -33 -20 -50 0 -17 9 -39 20 -50 18 -18 33
-20 165 -20 132 0 147 2 165 20 11 11 20 33 20 50 0 17 -9 39 -20 50 -18 18
-33 20 -165 20 -132 0 -147 -2 -165 -20z m295 -50 c0 -25 -1 -25 -95 -28 -80
-2 -97 0 -107 15 -29 39 -19 44 95 41 107 -3 107 -3 107 -28z"/>
<path d="M4 1085 c0 -165 2 -234 3 -153 2 81 2 216 0 300 -1 84 -3 18 -3 -147z"/>
<path d="M460 1190 c0 -39 1 -40 35 -40 34 0 35 1 35 40 0 39 -1 40 -35 40
-34 0 -35 -1 -35 -40z m47 14 c14 -14 14 -17 0 -31 -14 -14 -16 -13 -26 6 -11
19 -8 41 5 41 3 0 13 -7 21 -16z"/>
<path d="M962 1054 c-30 -25 -42 -43 -42 -62 0 -19 -3 -23 -9 -13 -6 9 -11 10
-15 2 -9 -15 1 -31 20 -31 8 0 12 -5 9 -11 -4 -6 -13 -8 -21 -5 -9 3 -14 -1
-14 -13 0 -10 -7 -21 -15 -25 -18 -7 -20 5 -3 22 7 7 8 12 3 12 -6 0 -3 4 5
10 8 5 11 12 7 16 -11 12 -84 -67 -91 -99 -8 -34 30 -77 69 -77 44 0 235 196
235 241 0 27 -44 69 -73 69 -13 0 -42 -16 -65 -36z m74 -4 c8 0 14 -4 14 -10
0 -5 -7 -7 -15 -4 -11 5 -14 1 -9 -12 5 -15 2 -15 -15 4 -16 19 -18 26 -8 37
10 11 13 11 15 -1 2 -8 10 -14 18 -14z m-41 -34 c13 5 16 3 13 -7 -3 -8 -14
-14 -25 -13 -12 0 -20 -6 -19 -14 1 -8 -5 -17 -13 -20 -11 -3 -12 0 -6 14 4
11 7 27 7 37 -1 14 2 16 12 8 8 -6 21 -8 31 -5z m15 -52 c0 -3 -28 -35 -62
-70 -58 -60 -88 -78 -88 -53 0 12 74 81 119 111 29 20 31 21 31 12z"/>
<path d="M1925 1065 c-14 -13 -25 -33 -25 -44 0 -18 92 -136 133 -169 20 -17
37 -8 37 18 0 25 26 16 33 -11 3 -10 10 -19 16 -19 8 0 9 6 1 19 -15 29 -12
41 9 41 11 0 21 5 23 11 2 7 12 -1 23 -17 13 -20 14 -25 3 -16 -12 10 -18 9
-28 -3 -11 -13 -10 -14 5 -9 30 12 13 -15 -25 -39 -19 -12 -31 -16 -27 -10 11
18 -18 36 -32 19 -9 -11 -6 -18 15 -35 35 -28 69 -27 99 4 45 44 39 56 -92
193 -98 102 -123 112 -168 67z m122 -77 c29 -29 53 -58 53 -64 0 -7 -12 -15
-27 -18 -22 -6 -33 0 -70 35 -44 44 -59 71 -48 89 13 21 41 8 92 -42z"/>
<path d="M2800 890 c0 -40 0 -40 40 -40 40 0 40 0 40 40 0 40 0 40 -40 40 -40
0 -40 0 -40 -40z m54 7 c8 -12 7 -20 -2 -29 -11 -11 -16 -10 -27 5 -15 20 -9
50 8 44 6 -2 15 -11 21 -20z"/>
<path d="M1452 867 c-21 -22 -22 -33 -22 -169 0 -146 0 -147 26 -167 34 -26
54 -26 88 0 26 20 26 21 26 168 0 141 -1 148 -23 169 -30 28 -68 28 -95 -1z
m66 -39 c13 -13 18 -222 6 -252 -8 -21 -40 -21 -48 0 -8 20 -8 228 0 248 7 19
25 21 42 4z"/>
<path d="M5 365 c0 -203 1 -285 2 -182 2 104 2 270 0 370 -1 100 -2 16 -2
-188z"/>
<path d="M458 590 c4 -38 6 -40 38 -40 33 0 34 1 34 40 0 40 0 40 -38 40 l-38
0 4 -40z m53 9 c8 -15 8 -24 0 -32 -15 -15 -46 16 -38 37 9 22 24 20 38 -5z"/>
<path d="M1130 590 c0 -40 0 -40 40 -40 40 0 40 0 40 40 0 40 0 40 -40 40 -40
0 -40 0 -40 -40z m55 10 c3 -11 3 -25 0 -30 -10 -16 -35 8 -35 31 0 25 27 24
35 -1z"/>
<path d="M120 283 l0 -43 40 0 40 0 0 43 0 42 -40 0 -40 1 0 -43z m54 11 c9
-24 7 -34 -8 -34 -13 0 -26 20 -26 41 0 15 27 10 34 -7z"/>
<path d="M1463 290 l-1 -40 39 0 c39 0 39 0 39 40 0 40 0 40 -37 40 -37 0 -38
-1 -40 -40z m57 15 c10 -12 10 -18 0 -31 -12 -13 -15 -13 -28 0 -15 15 -10 46
6 46 5 0 15 -7 22 -15z"/>
<path d="M2130 290 c0 -40 0 -40 40 -40 40 0 40 0 40 40 0 40 0 40 -40 40 -40
0 -40 0 -40 -40z m57 -14 c-4 -9 -11 -16 -16 -16 -13 0 -24 37 -15 51 10 16
38 -16 31 -35z"/>
<path d="M1130 15 c0 -18 12 -19 27 -4 8 8 13 8 17 0 10 -16 36 -13 36 4 0 11
-11 15 -40 15 -29 0 -40 -4 -40 -15z"/>
</g>
</svg>
