 <svg  version="1.0" xmlns="http://www.w3.org/2000/svg"  width="4584.000000pt" height="2064.000000pt" viewBox="0 0 4584.000000 2064.000000"  preserveAspectRatio="xMidYMid meet"> 
  <g transform="translate(0.000000,2064.000000) scale(0.100000,-0.100000)" fill="#000000" stroke="none"> 
  <path d="M4640 20620 c0 -11 7 -20 15 -20 8 0 947 0 2085 0 1139 0 2077 0 2085 0 8 0 15 9 15 20 0 20 -7 20 -2100 20 -2093 0 -2100 0 -2100 -20z"/> <path d="M11422 20489 c-18 -5 -49 -28 -70 -49 -20 -22 -46 -40 -57 -40 -49 -1 -133 -58 -159 -107 -28 -55 -14 -134 29 -165 5 -4 137 -8 292 -8 269 0 283 1 293 19 25 47 -3 136 -51 161 -11 7 -19 21 -19 37 0 42 -36 106 -74 131 -40 27 -131 38 -184 21z m161 -80 c34 -28 37 -35 37 -79 0 -44 3 -51 29 -64 34 -18 67 -64 54 -77 -5 -5 -120 -8 -264 -7 l-254 3 -3 36 c-2 27 3 44 23 67 24 29 97 62 136 62 10 0 25 13 34 28 24 40 63 60 120 61 42 1 57 -4 88 -30z"/>
   <path d="M5253 20215 c0 -44 2 -61 4 -37 2 23 2 59 0 80 -2 20 -4 1 -4 -43z"/> <path d="M8673 20180 c0 -25 2 -35 4 -22 2 12 2 32 0 45 -2 12 -4 2 -4 -23z"/> <path d="M8544 20166 c-9 -29 -8 -36 2 -36 18 0 21 10 15 43 l-6 28 -11 -35z"/> <path d="M13078 20170 c-3 -16 -1 -30 4 -30 4 0 8 14 8 30 0 17 -2 30 -4 30 -2 0 -6 -13 -8 -30z"/> 
   <path d="M1495 20163 c-16 -9 -47 -31 -67 -49 -21 -18 -50 -36 -65 -39 -74 -16 -138 -68 -153 -125 -15 -54 4 -128 34 -135 11 -3 147 -4 301 -3 l279 3 15 26 c13 24 13 31 -3 67 -10 23 -32 53 -47 67 -19 17 -29 35 -29 54 0 43 -28 85 -82 120 -38 25 -57 31 -100 31 -29 -1 -66 -8 -83 -17z m137 -52 c48 -19 68 -49 68 -101 0 -45 3 -51 30 -65 37 -19 67 -62 53 -76 -6 -6 -110 -8 -264 -7 l-254 3 -3 33 c-6 59 61 122 131 122 22 0 40 11 71 44 22 24 48 46 56 49 25 9 87 8 112 -2z"/> 
   <path d="M13455 20141 c-6 -11 9 -23 19 -14 9 9 7 23 -3 23 -6 0 -12 -4 -16 -9z"/> 
   <path d="M976 20133 c-12 -12 -6 -33 9 -33 8 0 15 6 15 14 0 17 -14 28 -24 19z"/> 
   <path d="M4428 20133 c12 -2 30 -2 40 0 9 3 -1 5 -23 4 -22 0 -30 -2 -17 -4z"/> 
   <path d="M5250 20057 c0 -28 6 -32 28 -19 9 7 8 13 -8 27 -20 18 -20 18 -20 -8z"/> 
   <path d="M733 20048 c2 -7 10 -13 17 -13 7 0 15 6 18 13 2 7 -5 12 -18 12 -13 0 -20 -5 -17 -12z"/> 
   <path d="M9770 20045 c0 -8 7 -15 15 -15 8 0 15 7 15 15 0 8 -7 15 -15 15 -8 0 -15 -7 -15 -15z"/>
    <path d="M13195 20050 c-12 -19 1 -22 47 -12 31 7 36 10 16 11 -14 1 -33 4 -41 7 -8 3 -18 0 -22 -6z"/>
     <path d="M4005 20040 c3 -5 13 -10 21 -10 8 0 14 5 14 10 0 6 -9 10 -21 10 -11 0 -17 -4 -14 -10z"/> 
     <path d="M4178 20043 c12 -2 32 -2 45 0 12 2 2 4 -23 4 -25 0 -35 -2 -22 -4z"/>
      <path d="M8521 20047 c2 -1 12 -9 22 -16 14 -12 17 -11 17 3 0 10 -8 16 -22 16 -12 0 -19 -1 -17 -3z"/> 
     <path d="M8670 20023 c0 -27 0 -27 15 -6 8 12 28 24 43 26 19 3 14 4 -15 6 -40 1 -43 -1 -43 -26z"/> 
     <path d="M13000 20046 c0 -2 18 -6 40 -8 22 -2 40 0 40 4 0 5 -18 8 -40 8 -22 0 -40 -2 -40 -4z"/>
      <path d="M5913 20023 c-9 -3 -13 -32 -13 -98 l0 -93 -50 -31 c-63 -39 -96 -82 -149 -201 -25 -56 -34 -148 -40 -420 l-6 -285 -45 -6 c-25 -4 -72 -15 -105 -24 -33 -9 -70 -17 -82 -18 l-23 -2 -3 210 c-1 125 -7 218 -13 230 -6 11 -22 43 -36 70 -16 31 -44 64 -73 85 l-47 35 6 51 c7 57 -9 88 -40 82 -16 -3 -19 -12 -19 -67 -1 -61 -2 -64 -38 -91 -61 -45 -97 -103 -120 -190 -8 -32 -12 -219 -12 -640 -1 -672 8 -610 -87 -590 -29 6 -85 15 -125 20 -40 5 -81 14 -92 19 -11 6 -32 11 -48 11 -15 0 -73 12 -128 26 -55 14 -116 29 -135 33 -62 14 -217 69 -234 83 -6 4 -17 8 -25 8 -9 0 -29 7 -45 15 -15 8 -33 15 -38 15 -9 0 -158 73 -253 124 -27 15 -59 36 -71 47 -15 14 -29 19 -43 14 -25 -8 -119 -61 -323 -182 -86 -51 -159 -93 -162 -93 -3 0 -39 -20 -79 -45 -41 -25 -77 -45 -80 -45 -3 0 -26 -13 -50 -30 -25 -16 -47 -30 -51 -30 -3 0 -38 -20 -78 -43 -40 -24 -102 -60 -138 -81 -36 -20 -74 -42 -85 -49 -44 -28 -94 -56 -160 -91 -86 -46 -89 -49 -80 -75 10 -32 35 -26 125 34 45 30 87 55 92 55 5 0 8 -35 6 -77 l-3 -78 -53 0 c-35 -1 -56 -6 -62 -15 -5 -8 -8 -71 -7 -138 1 -68 -1 -126 -4 -128 -3 -2 -60 -8 -125 -14 -197 -17 -207 -18 -254 -29 -25 -6 -72 -15 -105 -20 -33 -5 -87 -17 -120 -26 -33 -9 -80 -21 -104 -26 -50 -10 -211 -69 -274 -99 -23 -11 -46 -20 -51 -20 -42 -1 -321 -171 -406 -247 -14 -13 -29 -21 -35 -20 -6 2 -10 49 -10 113 0 133 -16 174 -87 219 -26 17 -47 38 -47 47 -1 10 -10 22 -21 28 -14 8 -19 17 -15 33 3 12 -1 31 -8 42 -13 16 -17 17 -31 6 -9 -7 -16 -26 -16 -42 0 -18 -7 -32 -20 -39 -11 -6 -20 -19 -20 -29 0 -11 -15 -28 -34 -39 -18 -11 -46 -37 -62 -58 l-29 -37 -2 -236 c-1 -130 -2 -239 -2 -243 -1 -5 -14 -8 -30 -8 -17 0 -33 -5 -36 -11 -4 -5 -8 -88 -8 -182 l-2 -172 -42 -80 c-47 -91 -107 -235 -118 -286 -4 -18 -11 -40 -16 -49 -23 -44 -75 -306 -98 -495 -13 -102 -17 -247 -8 -262 5 -8 1768 -11 6623 -11 5509 0 6616 2 6621 13 2 8 1 21 -4 29 -7 13 -144 16 -1133 21 -659 3 -1126 10 -1128 15 -5 14 136 215 203 289 163 182 255 250 415 308 l65 24 788 -2 c433 -1 791 1 794 4 3 4 2 18 -1 32 -7 26 -9 27 -74 25 -37 -1 -75 -2 -85 -1 -18 1 -18 14 -12 300 4 164 5 311 1 325 -5 19 -36 46 -122 102 l-115 75 1 911 1 910 -25 52 c-13 28 -32 70 -42 94 -10 23 -23 42 -29 42 -6 0 -19 -19 -29 -42 -9 -24 -27 -63 -39 -88 -18 -36 -22 -65 -23 -145 -1 -55 -2 -106 -3 -113 -1 -10 -41 -12 -183 -10 l-183 3 -5 110 c-4 93 -9 119 -32 167 -16 31 -28 63 -28 71 0 18 -36 51 -48 43 -5 -3 -13 -18 -17 -33 -3 -14 -20 -55 -36 -90 l-30 -64 1 -642 c1 -353 -2 -642 -7 -642 -4 0 -42 16 -83 36 -93 45 -157 71 -235 93 -33 10 -69 21 -80 26 -11 5 -45 12 -75 15 -30 4 -73 11 -95 17 -27 8 -440 11 -1300 12 l-1260 1 4 121 c5 179 24 166 -237 164 -119 -1 -222 -2 -228 -1 -8 1 -12 52 -12 171 0 145 2 170 15 170 8 0 94 -47 190 -105 96 -58 177 -105 181 -105 4 0 39 -20 77 -45 77 -50 98 -53 103 -15 2 20 -5 29 -35 44 -21 11 -97 55 -169 98 -73 43 -134 78 -137 78 -3 0 -43 22 -89 49 -46 26 -126 73 -178 103 -52 31 -122 70 -155 88 -91 50 -108 60 -137 78 -66 42 -168 102 -218 130 -92 49 -134 74 -147 84 -11 9 -52 2 -63 -11 -24 -29 -364 -201 -398 -201 -5 0 -23 -7 -38 -15 -16 -8 -36 -15 -44 -15 -9 0 -20 -4 -25 -9 -12 -10 -99 -38 -158 -51 -23 -5 -67 -16 -97 -25 -30 -9 -89 -23 -130 -30 -41 -8 -104 -21 -139 -29 -35 -8 -68 -13 -75 -10 -9 3 -12 145 -11 582 0 593 -2 633 -41 712 -19 40 -92 120 -110 120 -17 0 -24 24 -17 64 8 50 -3 86 -27 86 -28 0 -42 -33 -35 -87 6 -48 6 -48 -41 -83 -35 -26 -57 -54 -83 -105 l-36 -70 -3 -210 c-2 -184 -4 -210 -18 -213 -9 -2 -26 1 -38 7 -25 13 -95 31 -156 39 l-45 7 -6 285 c-4 157 -11 309 -17 339 -25 124 -97 238 -178 286 l-46 27 2 76 c1 43 2 84 1 93 -1 17 -27 29 -48 22z m73 -275 c24 -17 52 -43 61 -57 47 -70 84 -183 87 -261 l1 -52 -205 0 c-233 0 -221 -6 -201 89 33 162 59 210 162 300 23 20 48 15 95 -19z m-729 -360 c17 -18 38 -49 47 -68 25 -55 48 -152 38 -162 -5 -5 -68 -10 -141 -11 -116 -2 -132 0 -137 15 -6 19 5 88 16 103 4 6 10 22 13 36 10 38 84 119 111 119 12 0 36 -15 53 -32z m1462 -14 c43 -49 87 -167 77 -207 -5 -21 -9 -22 -136 -21 -73 1 -136 6 -141 11 -11 11 11 106 37 163 23 49 74 100 100 100 14 0 37 -17 63 -46z m-584 -259 l0 -210 -25 5 c-14 3 -107 5 -208 5 l-182 0 0 201 c0 110 2 203 5 206 3 2 96 4 207 4 l203 -1 0 -210z m-787 -158 l3 -137 -28 -11 c-15 -6 -37 -15 -48 -19 -56 -22 -185 -86 -185 -92 0 -5 -7 -8 -15 -8 -13 0 -15 29 -15 205 l0 206 143 -3 142 -3 3 -138z m1450 -64 c2 -176 0 -203 -13 -203 -8 0 -15 4 -15 8 0 8 -121 72 -136 72 -3 0 -20 6 -37 14 -18 7 -44 18 -59 24 -27 11 -28 15 -30 89 -1 43 -3 98 -4 123 -2 81 -2 81 154 78 l137 -3 3 -202z m-633 -43 c208 -47 244 -56 305 -76 25 -8 54 -19 65 -24 11 -5 43 -18 70 -30 134 -57 186 -86 191 -105 3 -12 4 -48 2 -80 l-3 -60 -52 3 c-89 6 -94 2 -91 -81 l3 -72 68 -5 c84 -6 92 -24 12 -28 -33 -2 -64 -7 -68 -11 -10 -10 -11 -130 -2 -140 4 -3 32 -6 63 -6 78 0 77 -19 0 -25 l-63 -5 -3 -73 c-3 -66 -1 -73 18 -80 l21 -8 -20 -18 c-27 -25 -30 -124 -5 -162 15 -22 15 -26 1 -37 -8 -7 -17 -21 -19 -32 -4 -24 -33 -32 -53 -15 -13 10 -15 62 -15 306 l0 293 -27 18 c-16 10 -44 26 -63 35 -81 39 -100 45 -275 98 -51 15 -216 35 -295 35 -79 0 -244 -20 -295 -35 -133 -40 -175 -54 -205 -67 -61 -26 -104 -48 -132 -67 l-28 -18 0 -292 c0 -214 -3 -295 -12 -304 -18 -18 -58 -15 -58 5 0 9 -9 26 -20 38 l-20 22 20 18 c26 23 28 119 4 153 -15 21 -15 24 0 35 14 10 16 27 14 82 l-3 70 -63 5 c-63 5 -90 26 -29 23 17 -1 47 1 65 3 l33 5 -3 72 -3 72 -63 5 c-34 3 -62 10 -62 15 0 6 30 12 67 15 l68 5 3 72 c3 83 -2 87 -91 81 l-52 -3 -3 60 c-2 32 -1 68 2 80 5 19 57 48 191 105 28 12 59 25 70 30 58 27 248 77 375 99 63 12 417 12 465 1z m6855 -402 c19 -41 20 -75 20 -925 0 -651 -3 -883 -11 -883 -7 0 -26 9 -44 20 l-33 20 2 873 c1 824 2 874 19 905 10 17 21 32 23 32 3 0 14 -19 24 -42z m-565 9 c13 -21 15 -130 15 -901 l1 -877 -23 -19 c-13 -11 -31 -19 -40 -20 -17 0 -18 48 -18 880 0 511 4 889 9 902 5 13 12 31 15 41 7 24 23 21 41 -6z m-7310 -67 c0 -34 -1 -35 -40 -35 -39 0 -40 1 -43 38 l-3 38 43 -3 c42 -3 43 -4 43 -38z m1653 3 c-3 -37 -4 -38 -43 -38 -34 0 -40 3 -43 23 -6 41 5 52 48 52 l41 0 -3 -37z m-623 -12 c100 -20 336 -107 349 -130 2 -3 7 -81 11 -173 7 -150 6 -168 -8 -168 -9 0 -21 9 -27 20 -6 12 -22 25 -36 30 -28 11 -30 22 -9 40 25 20 19 75 -10 94 -32 21 -44 20 -72 -6 -28 -26 -29 -52 -3 -85 l20 -26 -29 -18 c-17 -10 -36 -30 -44 -46 l-15 -27 -33 37 c-18 20 -38 37 -45 37 -24 0 -25 20 -4 47 23 29 19 57 -11 86 -23 22 -48 21 -76 -2 -28 -24 -29 -60 -4 -93 l20 -25 -34 -16 c-18 -9 -36 -25 -40 -36 -9 -29 -39 -26 -53 4 -7 14 -23 30 -37 35 -29 11 -31 22 -10 40 25 20 19 75 -10 94 -31 20 -45 20 -72 -3 -29 -24 -30 -68 -2 -97 l22 -23 -27 -7 c-14 -3 -35 -19 -47 -35 -24 -34 -45 -37 -54 -8 -4 11 -22 27 -40 36 l-34 16 19 28 c26 36 25 66 -2 90 -29 23 -54 24 -77 2 -30 -29 -34 -57 -11 -86 22 -28 20 -47 -5 -47 -8 0 -26 -16 -41 -35 -14 -19 -29 -35 -33 -35 -3 0 -14 14 -23 30 -9 17 -29 35 -43 40 -30 12 -31 21 -5 45 28 25 22 63 -13 89 -26 19 -29 19 -55 4 -33 -20 -42 -71 -17 -98 18 -20 13 -40 -10 -40 -8 0 -22 -11 -31 -25 -9 -14 -23 -25 -30 -25 -15 0 -17 89 -5 254 l6 89 50 26 c68 36 226 88 304 100 35 6 66 13 70 16 10 10 352 -2 416 -14z m-2525 -18 c0 -8 -21 -32 -109 -128 -62 -67 -161 -202 -161 -219 0 -9 8 -24 18 -34 9 -10 33 -38 52 -62 37 -48 83 -99 168 -189 42 -45 52 -62 50 -86 l-3 -29 -152 -3 c-113 -1 -153 1 -153 10 0 7 -3 131 -6 275 -3 145 -3 274 0 286 3 14 23 32 51 46 24 13 84 49 132 81 83 55 113 69 113 52z m4450 -15 c48 -30 57 -36 150 -92 44 -26 84 -56 88 -65 4 -9 4 -115 0 -236 -4 -121 -5 -239 -2 -263 10 -79 13 -77 -153 -77 l-148 0 -3 30 c-2 22 6 39 30 66 77 83 169 188 213 242 40 50 46 62 37 80 -14 31 -134 182 -195 247 -74 78 -83 90 -66 90 8 0 30 -10 49 -22z m-4295 -24 c22 -13 64 -36 92 -50 56 -27 60 -35 65 -114 4 -64 -19 -59 -75 15 -25 33 -68 83 -95 112 -44 45 -53 64 -33 63 3 -1 24 -12 46 -26z m4138 20 c3 -4 -24 -41 -61 -83 -37 -42 -83 -97 -101 -123 -19 -26 -38 -45 -42 -42 -11 6 -12 125 -1 140 4 5 32 23 62 38 30 16 70 39 90 52 39 25 44 27 53 18z m-4273 -124 c-11 -89 -12 -287 -1 -383 11 -101 2 -99 -94 19 -22 27 -61 72 -87 100 -53 57 -58 72 -27 100 11 10 53 61 92 114 125 167 133 170 117 50z m137 -21 c39 -52 87 -111 107 -131 20 -19 36 -40 36 -47 0 -7 -25 -37 -56 -69 -32 -31 -82 -87 -112 -124 -30 -38 -57 -68 -61 -68 -5 0 -7 505 -2 545 1 12 5 8 88 -106z m4178 -163 c0 -270 0 -273 -20 -264 -11 5 -33 29 -50 53 -16 24 -60 75 -97 114 -38 39 -68 76 -68 82 0 6 28 42 63 80 34 38 79 95 100 126 21 31 46 62 55 69 9 8 17 14 17 14 0 0 0 -123 0 -274z m82 241 c14 -30 107 -151 155 -202 21 -22 38 -46 38 -54 0 -7 -32 -48 -72 -90 -39 -42 -87 -97 -106 -123 -18 -27 -38 -48 -43 -48 -5 0 -9 115 -9 270 0 219 3 270 13 270 8 0 18 -10 24 -23z m-2919 -69 l3 -38 -45 0 -46 0 0 41 0 40 43 -3 c41 -3 42 -4 45 -40z m1650 0 l3 -38 -44 0 c-49 0 -61 16 -46 58 7 20 15 23 46 20 36 -3 38 -5 41 -40z m-2752 3 c5 -5 41 -21 79 -36 39 -15 76 -32 82 -37 10 -8 11 -56 7 -207 -3 -108 -7 -197 -8 -198 -1 -2 -160 -5 -183 -4 -9 1 -13 20 -13 60 0 59 1 60 60 123 32 35 65 73 71 86 16 29 5 49 -71 130 -33 35 -60 70 -60 78 0 16 21 19 36 5z m3644 -1 c0 -5 -15 -26 -32 -47 -18 -21 -44 -51 -58 -67 -14 -16 -31 -35 -37 -42 -15 -15 -17 -60 -3 -69 6 -3 37 -38 70 -76 57 -66 60 -72 60 -124 l0 -54 -91 -3 c-50 -2 -95 -1 -99 2 -5 3 -10 94 -11 202 -3 204 1 228 40 228 9 0 45 14 81 30 72 32 80 35 80 20z m5203 -54 c17 -4 17 -41 15 -715 l-2 -711 -22 0 c-40 0 -54 35 -54 132 0 48 -4 89 -9 92 -5 3 -12 17 -15 31 -3 13 -20 47 -36 75 -33 57 -33 58 45 62 l50 3 0 185 c0 176 -1 187 -23 223 -13 20 -32 37 -41 37 -24 0 -50 -31 -62 -74 -5 -20 -14 -36 -18 -36 -5 0 -18 19 -29 43 -39 82 -67 85 -109 11 -22 -37 -23 -48 -20 -214 l2 -175 58 -3 c47 -2 57 -6 57 -21 0 -10 -7 -24 -15 -31 -8 -7 -15 -17 -15 -22 0 -5 -11 -34 -25 -64 -20 -44 -25 -70 -25 -135 0 -72 -2 -82 -25 -105 -14 -14 -30 -22 -35 -19 -14 9 -14 1432 0 1437 15 5 332 0 353 -6z m-4288 -107 c39 -23 72 -43 74 -45 3 -2 4 -355 1 -384 0 -3 -64 -5 -142 -5 l-143 1 -3 99 c-2 55 0 109 2 120 3 11 37 54 75 95 39 41 70 78 71 82 0 3 -20 30 -44 59 -25 30 -42 57 -40 61 3 4 22 -3 42 -17 20 -13 69 -43 107 -66z m-5371 59 c-10 -13 -28 -32 -40 -43 -41 -41 -39 -51 41 -143 l76 -86 -3 -110 -3 -110 -140 1 -140 0 -3 197 c-2 196 -2 196 20 205 13 5 57 32 98 60 41 28 84 50 94 51 19 0 19 0 0 -22z m81 -82 c0 -48 -4 -90 -9 -94 -13 -7 -76 68 -76 92 0 23 59 98 74 93 7 -2 11 -35 11 -91z m743 50 c18 -24 32 -50 32 -58 -1 -19 -69 -93 -77 -84 -20 19 -9 186 12 186 1 0 16 -20 33 -44z m3642 -57 c0 -70 -3 -89 -14 -89 -17 0 -76 72 -76 92 0 20 70 99 81 92 5 -3 9 -45 9 -95z m750 43 c11 -12 20 -30 20 -40 -1 -20 -64 -95 -73 -85 -9 9 -9 168 0 177 4 4 13 -1 21 -11 7 -10 22 -28 32 -41z m-4141 6 c17 -17 31 -40 31 -49 0 -21 -66 -96 -76 -86 -6 5 -9 108 -5 155 2 20 17 14 50 -20z m95 20 c69 -19 69 -19 62 -143 -3 -60 -6 -134 -6 -162 l0 -53 -100 0 -100 0 0 52 c0 56 11 75 95 165 44 48 56 85 33 100 -7 4 -22 18 -32 31 -22 26 -13 28 48 10z m2922 -28 c-20 -22 -36 -43 -36 -46 0 -6 88 -111 127 -152 8 -8 13 -39 13 -73 l0 -59 -99 0 -98 0 -5 157 c-3 87 -4 163 -1 169 5 14 76 41 112 43 22 1 22 -1 -13 -39z m108 -43 c-1 -34 -3 -65 -3 -69 -2 -17 -23 -6 -51 25 -16 17 -30 34 -30 38 0 3 14 24 31 47 42 57 58 44 53 -41z m-2286 14 c4 -39 -4 -47 -49 -46 -41 0 -57 24 -41 60 10 23 17 26 50 23 34 -3 37 -6 40 -37z m1656 6 c14 -39 -7 -58 -56 -51 -42 7 -52 23 -38 60 9 22 15 25 47 22 31 -2 39 -8 47 -31z m-2184 -2 c25 -8 57 -17 73 -20 l27 -5 0 -139 0 -140 -90 -3 c-50 -2 -95 -1 -100 0 -6 2 -10 30 -10 61 0 55 2 60 44 105 62 65 64 77 22 111 -20 16 -33 32 -30 37 7 11 12 10 64 -7z m2514 7 c3 -5 -8 -22 -24 -37 -34 -33 -37 -48 -12 -73 72 -74 82 -92 82 -147 l0 -54 -91 -3 c-50 -2 -95 0 -100 3 -6 3 -8 67 -7 145 l3 138 42 8 c24 4 51 12 60 17 22 13 40 14 47 3z m56 -78 c0 -35 -16 -44 -38 -22 -17 17 -15 39 5 54 24 17 33 9 33 -32z m-2642 23 c14 -17 4 -57 -14 -57 -7 0 -16 11 -20 24 -10 40 12 60 34 33z m2368 1 c5 -7 7 -69 4 -138 l-5 -125 -30 0 -30 0 -5 124 c-3 67 -3 126 0 131 13 19 55 24 66 8z m-1948 -20 c8 -7 12 -45 12 -123 0 -81 -3 -114 -12 -117 -7 -2 -55 -2 -105 0 l-93 4 0 130 0 130 93 -7 c50 -4 98 -12 105 -17z m-2008 -180 l0 -173 -142 1 -143 1 -3 88 c-2 71 0 91 14 106 9 11 21 19 26 19 12 0 197 110 204 121 3 5 14 9 25 9 18 0 19 -8 19 -172z m2168 162 c33 0 18 -16 -25 -25 -18 -3 -34 -2 -38 4 -9 16 5 33 22 27 8 -3 26 -6 41 -6z m1662 -10 c0 -12 -37 -12 -65 0 -15 7 -10 9 23 9 23 1 42 -3 42 -9z m1012 -57 c29 -38 81 -97 116 -133 100 -105 96 -143 -17 -138 l-66 3 -3 45 c-4 56 -16 70 -57 70 l-32 0 -7 100 c-7 87 -4 120 9 120 2 0 27 -30 57 -67z m-3843 -45 c-2 -98 -10 -122 -40 -113 -10 4 -27 1 -39 -5 -16 -9 -20 -21 -20 -61 l0 -50 -72 3 c-71 3 -73 4 -76 30 -3 23 12 45 80 120 46 51 96 110 112 131 47 61 56 51 55 -55z m1526 78 c22 -16 41 -142 25 -161 -14 -17 -129 -40 -139 -29 -4 5 -6 42 -3 81 3 58 9 77 28 98 25 28 60 32 89 11z m246 -5 c19 -15 23 -28 24 -72 l0 -54 -60 -7 c-33 -5 -66 -6 -72 -3 -7 2 -13 20 -13 39 0 95 62 145 121 97z m244 -1 c20 -22 36 -93 24 -111 -10 -16 -114 -20 -135 -4 -13 9 -15 20 -10 47 14 77 79 114 121 68z m252 -19 c25 -37 32 -108 11 -116 -7 -3 -40 -2 -73 3 l-60 7 0 54 c1 44 5 57 25 73 34 27 70 20 97 -21z m238 13 c21 -22 25 -38 27 -90 0 -35 1 -70 2 -76 1 -18 -71 -14 -118 6 l-37 15 5 62 c9 101 68 141 121 83z m-1315 -44 c8 -14 8 -26 0 -41 -9 -16 -19 -20 -53 -17 -35 3 -43 7 -45 26 -6 40 5 52 47 52 30 0 43 -5 51 -20z m1650 0 c17 -32 -4 -60 -45 -60 -24 0 -37 6 -45 20 -17 32 4 60 45 60 24 0 37 -6 45 -20z m-1681 -106 c42 -9 39 -21 -6 -27 -40 -5 -60 4 -49 22 8 13 13 13 55 5z m1671 -15 c0 -5 -16 -9 -35 -9 -41 0 -47 17 -7 22 31 4 42 1 42 -13z m-595 -17 c55 -6 114 -15 130 -20 17 -6 66 -18 110 -27 71 -15 185 -51 325 -100 62 -22 203 -91 273 -132 l57 -34 0 -99 0 -99 -85 1 c-55 1 -90 -3 -98 -11 -18 -18 -23 -181 -6 -192 8 -5 53 -9 101 -9 48 0 89 -4 93 -9 11 -19 -36 -32 -110 -29 -49 2 -78 -1 -83 -9 -4 -6 -7 -51 -7 -100 l0 -88 98 -3 c87 -2 98 -5 95 -20 -3 -14 -17 -17 -88 -20 -46 -2 -90 -8 -97 -14 -10 -8 -13 -35 -11 -97 l3 -86 95 -5 c80 -4 95 -8 98 -22 4 -20 -1 -21 -99 -18 -92 2 -101 -8 -97 -114 l3 -81 95 -5 c87 -5 95 -7 95 -25 0 -18 -8 -20 -85 -23 -46 -2 -90 -8 -97 -14 -9 -7 -13 -37 -13 -89 0 -95 4 -99 120 -99 79 0 81 -1 78 -22 -3 -23 -5 -23 -153 -23 -94 0 -150 4 -150 10 1 6 5 218 9 473 8 425 7 464 -8 481 -16 18 -114 69 -201 105 -22 9 -48 21 -57 26 -10 6 -24 10 -31 10 -8 0 -50 11 -93 25 -43 14 -108 30 -143 36 -77 12 -121 33 -121 58 0 10 -7 24 -15 31 -8 7 -15 25 -15 41 0 19 -6 30 -20 34 -28 9 -40 -2 -40 -36 0 -16 -6 -32 -14 -35 -8 -3 -17 -19 -20 -36 l-6 -31 -90 5 c-159 9 -347 -22 -555 -94 -105 -36 -274 -115 -293 -138 -10 -12 -12 -83 -9 -332 l4 -317 -26 -3 c-17 -2 -27 -10 -29 -23 -6 -31 -43 -67 -62 -58 -8 4 -51 9 -95 12 -71 5 -80 8 -80 26 0 18 8 20 90 25 l90 5 6 30 c4 17 7 53 8 82 1 72 -14 85 -98 83 -96 -3 -101 -2 -101 20 0 18 8 20 98 22 l97 3 3 86 c2 62 -1 89 -11 97 -7 6 -51 12 -97 14 -71 3 -85 6 -88 21 -3 15 6 17 85 17 56 0 93 4 101 12 12 12 17 143 6 172 -5 13 -23 16 -94 16 -61 0 -91 4 -99 13 -18 22 -2 27 89 27 63 0 91 4 99 14 8 9 11 46 9 103 l-3 88 -97 3 -98 3 0 99 0 98 48 29 c63 38 226 118 282 138 148 52 255 85 325 99 44 9 95 22 114 28 18 5 81 14 139 19 57 4 107 11 111 14 8 8 280 -1 406 -13z m-1047 -51 c5 -30 -4 -38 -50 -46 -34 -7 -38 -5 -44 19 -9 38 11 58 55 54 29 -2 37 -8 39 -27z m1652 14 c15 -18 5 -65 -14 -65 -27 0 -75 22 -80 37 -4 9 -1 22 5 29 15 19 73 18 89 -1z m-1792 -30 c2 -15 -1 -32 -6 -37 -5 -5 -233 -8 -542 -8 -546 0 -549 1 -550 37 0 37 10 38 561 36 l534 -1 3 -27z m2749 25 c23 0 37 -27 27 -53 -5 -15 -52 -16 -447 -17 -242 0 -443 -2 -445 -5 -3 -2 -13 0 -23 6 -20 10 -27 65 -9 71 5 2 205 2 442 0 238 -1 443 -2 455 -2z m-5137 -172 c0 -70 10 -94 34 -85 11 4 16 24 18 73 l3 68 145 0 145 0 -3 -72 c-4 -75 -5 -72 41 -76 8 -1 14 22 17 73 l5 73 140 1 140 1 3 -72 c3 -69 4 -73 25 -70 20 3 22 8 22 73 l0 70 30 0 30 0 0 -95 0 -94 -33 -7 c-18 -4 -41 -14 -50 -22 -16 -14 -63 -16 -402 -12 l-385 4 -1 103 c0 57 4 109 9 116 5 6 22 12 38 12 29 0 29 0 29 -62z m1038 54 c11 -2 12 -16 7 -65 -6 -51 -4 -65 9 -76 13 -11 19 -11 32 0 12 10 15 28 12 78 l-3 66 70 0 70 0 0 -113 0 -113 -140 -4 c-125 -3 -142 -1 -160 15 -11 10 -33 20 -50 22 l-30 3 -3 84 c-2 46 -1 89 1 95 4 10 126 14 185 8z m1272 -5 c0 -4 -12 -12 -27 -18 -47 -18 -147 -70 -165 -87 -13 -11 -18 -30 -18 -69 l0 -53 -400 0 -400 0 0 113 c0 63 2 116 4 118 8 8 1006 4 1006 -4z m2852 -2 c2 -5 2 -58 0 -117 l-3 -107 -315 1 c-343 1 -342 1 -329 58 5 21 2 39 -9 54 -14 22 -124 81 -184 100 -12 4 -20 11 -18 15 7 11 855 8 858 -4z m193 -58 c0 -56 3 -70 18 -79 30 -16 42 6 42 79 l0 67 145 -1 c80 -1 149 -2 153 -2 5 -1 6 -30 2 -65 -7 -60 -6 -65 15 -76 34 -18 45 2 45 77 l0 65 145 1 145 2 -3 -71 c-3 -60 -1 -72 13 -78 34 -13 47 12 39 81 -5 50 -3 63 7 64 12 0 380 0 402 -1 11 0 9 -218 -3 -222 -7 -2 -1190 -1 -1302 2 -10 0 -10 214 -1 224 4 4 37 6 73 4 l65 -3 0 -68z m4689 -51 c10 -64 15 -262 7 -275 -5 -7 -21 -11 -37 -9 l-29 3 -3 142 c-2 117 0 149 14 175 16 30 17 31 30 13 8 -10 16 -32 18 -49z m156 34 c6 -12 9 -77 8 -167 l-3 -148 -30 0 -30 0 0 150 c0 83 3 158 7 168 10 23 35 22 48 -3z m-9312 -182 c4 -32 -19 -41 -84 -36 -28 2 -40 8 -42 21 -8 40 5 48 65 45 55 -3 58 -5 61 -30z m-413 -18 c22 -9 26 -15 21 -35 -6 -22 -3 -26 24 -32 26 -5 31 -10 28 -32 -2 -21 -9 -27 -35 -29 -30 -3 -33 -1 -33 26 0 26 -3 29 -25 24 -14 -2 -25 0 -25 6 0 13 -28 42 -41 42 -12 0 -30 -45 -38 -95 l-6 -39 -592 -1 c-325 0 -595 -3 -598 -7 -4 -4 -7 -40 -7 -80 1 -76 -8 -98 -39 -98 -29 0 -23 -18 21 -62 l40 -41 0 -313 0 -312 -32 -19 c-18 -11 -39 -33 -47 -49 -7 -16 -17 -36 -21 -44 -6 -13 -50 -15 -310 -14 l-302 0 -2 255 -1 254 -32 3 -33 3 0 85 0 84 73 53 c199 146 348 225 582 309 162 59 192 67 285 83 47 7 98 18 113 24 16 6 52 11 80 11 29 0 71 5 95 10 64 15 223 23 442 22 107 -1 227 2 265 7 102 12 121 12 150 1z m224 1 c8 -5 11 -16 7 -26 -5 -14 -14 -16 -41 -11 -28 6 -37 3 -47 -14 -16 -25 -29 -25 -56 0 -39 37 -29 49 46 53 37 2 69 4 72 5 3 1 11 -2 19 -7z m1398 -15 c1 -1 3 -270 3 -597 l1 -594 -113 0 -113 0 -3 375 -2 376 35 34 c42 41 44 63 8 76 -27 9 -27 9 -24 97 2 79 1 87 -16 87 -10 1 -175 1 -366 0 l-349 -1 -43 40 c-45 41 -116 81 -146 81 -20 0 -33 15 -25 28 4 7 1146 5 1153 -2z m3983 -6 c0 -9 -12 -27 -26 -41 l-26 -24 -20 28 c-11 15 -26 27 -33 27 -17 0 -56 -85 -49 -104 3 -8 1 -17 -4 -20 -13 -8 -1102 -9 -1134 -1 -51 13 -61 -3 -62 -101 -1 -89 -1 -89 -28 -92 -34 -4 -29 -23 18 -72 l34 -36 2 -444 3 -445 750 -2 750 -1 0 -34 c0 -32 -2 -34 -60 -51 -33 -10 -76 -25 -95 -32 -19 -7 -62 -21 -95 -30 -33 -9 -89 -27 -125 -40 -36 -13 -78 -27 -95 -30 -16 -4 -39 -10 -50 -15 -22 -9 -129 -42 -215 -66 -30 -9 -69 -20 -86 -25 -39 -12 -158 -12 -198 0 -17 5 -54 16 -82 25 -29 9 -58 16 -65 16 -8 0 -26 6 -40 14 -14 7 -43 16 -65 20 -21 5 -43 11 -49 16 -5 4 -28 11 -50 15 -22 4 -44 10 -50 14 -5 4 -44 18 -85 30 -41 13 -129 41 -195 62 -66 21 -151 48 -190 59 -38 11 -81 30 -95 41 l-25 21 132 -6 c117 -5 132 -3 138 12 3 9 6 289 5 622 -1 333 -1 626 -1 652 l1 47 153 3 c83 2 434 3 780 3 569 1 627 -1 627 -15z m3069 0 c122 -18 206 -37 252 -57 26 -12 62 -24 80 -28 18 -4 40 -11 49 -15 8 -4 49 -24 92 -44 42 -20 81 -43 87 -50 10 -12 20 -462 10 -469 -74 -52 -163 -107 -175 -107 -13 0 -14 9 -8 56 8 65 1 74 -58 74 -44 0 -52 -11 -53 -70 0 -65 -19 -66 -25 -1 -4 48 -8 55 -30 61 -14 4 -40 5 -57 3 -31 -5 -32 -7 -35 -59 -4 -71 -22 -70 -26 1 -3 51 -5 55 -28 55 -13 0 -26 6 -28 13 -2 6 -11 37 -19 67 -9 30 -23 82 -32 115 -25 91 -24 90 -36 78 -11 -11 -22 -49 -40 -132 -5 -24 -13 -49 -18 -55 -5 -6 -11 -27 -13 -46 -2 -30 -7 -35 -30 -38 -25 -3 -27 -7 -30 -58 -4 -71 -22 -74 -28 -5 -4 48 -8 55 -30 61 -14 4 -40 5 -57 3 -31 -5 -32 -7 -35 -62 -4 -73 -22 -73 -26 1 -3 53 -5 57 -30 60 -22 2 -28 9 -30 33 -2 17 -10 44 -18 62 -7 17 -14 39 -14 48 0 36 -32 125 -45 125 -8 0 -18 -19 -23 -42 -6 -24 -18 -70 -27 -103 -9 -33 -19 -73 -23 -90 -6 -23 -14 -31 -34 -33 -25 -3 -27 -7 -30 -60 -4 -74 -22 -74 -26 -1 -3 53 -5 57 -31 62 -16 3 -41 3 -57 -2 -27 -7 -29 -12 -32 -59 -2 -39 -7 -52 -18 -52 -13 0 -15 10 -12 52 3 52 2 53 -27 58 -27 5 -30 9 -33 45 -2 22 -7 44 -12 50 -4 5 -13 37 -20 69 -22 106 -52 140 -65 74 -6 -29 -43 -193 -51 -225 -2 -7 -17 -13 -33 -13 -29 0 -30 -1 -33 -57 -4 -74 -22 -75 -26 -2 -3 56 -3 57 -36 61 -18 2 -43 1 -57 -2 -22 -6 -24 -10 -21 -59 3 -47 1 -52 -15 -49 -14 3 -18 13 -18 53 0 47 -1 50 -30 55 -28 5 -30 9 -36 55 -3 28 -11 63 -17 78 -7 16 -12 39 -12 53 0 33 -27 84 -44 84 -8 0 -17 -22 -24 -57 -6 -32 -17 -88 -24 -125 -14 -74 -21 -85 -58 -90 -22 -3 -26 -9 -30 -58 -7 -72 -24 -70 -28 3 l-3 58 -47 -3 -47 -3 -3 -52 c-2 -43 -6 -53 -21 -53 -15 0 -19 12 -24 83 -4 45 -7 118 -7 163 0 78 1 81 34 113 47 46 51 67 14 75 l-30 6 7 84 c5 57 4 86 -4 90 -6 4 -236 7 -510 6 l-500 0 -3 26 c-4 39 -24 41 -43 4 -16 -30 -18 -31 -78 -28 -55 3 -62 5 -60 23 2 26 -35 105 -49 105 -7 0 -22 -12 -34 -27 l-22 -28 -26 24 c-14 14 -26 32 -26 40 0 15 139 16 1482 13 880 -1 1508 -6 1547 -12z m-8156 -82 c69 -37 144 -108 168 -159 36 -74 49 -111 49 -134 l0 -25 -390 0 c-421 0 -404 -2 -375 54 8 15 15 35 15 43 0 19 33 79 72 132 21 28 58 57 103 82 69 38 71 38 184 39 109 0 115 -1 174 -32z m5137 2 c0 -27 -3 -30 -30 -30 -27 0 -30 3 -30 30 0 27 3 30 30 30 27 0 30 -3 30 -30z m-128 -45 c2 -11 10 -18 19 -16 8 2 22 6 32 8 15 5 17 -2 17 -45 0 -52 -13 -73 -33 -53 -6 6 -28 11 -49 11 l-38 0 6 58 c9 72 35 94 46 37z m238 -5 c0 -15 3 -42 6 -59 6 -31 6 -31 -33 -31 -21 0 -44 -5 -50 -11 -20 -20 -33 1 -33 52 0 51 7 57 41 39 15 -9 20 -7 24 5 3 8 7 22 10 30 7 25 35 5 35 -25z m-5830 -37 c0 -18 0 -36 0 -40 0 -5 -7 -8 -17 -8 -12 0 -17 11 -20 44 -2 24 -1 51 2 60 6 14 8 14 21 -3 8 -11 14 -35 14 -53z m1873 58 c4 -1 7 -22 5 -48 l-3 -48 -67 -3 -68 -3 0 50 c0 60 0 60 133 52z m2185 -3 c6 -8 7 -30 3 -53 l-6 -40 -58 -5 c-32 -3 -62 -1 -67 4 -6 6 -10 29 -10 52 l0 43 48 4 c26 2 54 4 63 5 9 1 21 -4 27 -10z m-6206 -16 c34 -22 68 -65 68 -86 0 -14 -18 -16 -138 -16 -76 0 -141 3 -145 6 -10 10 28 63 64 89 40 31 111 34 151 7z m5304 -27 c46 -47 52 -59 33 -70 -12 -8 -268 -7 -281 1 -12 8 33 80 62 98 15 9 48 16 83 16 56 0 60 -2 103 -45z m-266 27 c0 -5 -8 -24 -17 -43 -15 -29 -17 -60 -16 -203 2 -134 -1 -175 -13 -198 -8 -16 -14 -44 -12 -61 2 -26 -1 -32 -22 -37 -22 -5 -26 -13 -33 -70 -5 -36 -12 -144 -15 -240 -6 -155 -9 -175 -24 -178 -17 -3 -18 10 -18 173 0 209 -5 223 -88 261 l-52 25 -46 -20 c-54 -24 -80 -53 -94 -104 -9 -32 -14 -36 -26 -27 -8 7 -14 19 -14 28 0 43 -69 103 -130 114 -27 5 -97 -30 -124 -62 -25 -31 -26 -35 -26 -165 0 -125 -8 -163 -26 -133 -8 13 -6 702 2 722 12 32 313 148 459 176 126 25 152 29 205 30 30 1 64 5 75 10 26 11 55 12 55 2z m-2810 -21 c0 -11 -39 -41 -52 -41 -12 0 -9 25 4 38 14 14 48 16 48 3z m3237 -35 c21 -8 70 -24 108 -36 39 -12 86 -28 105 -37 101 -43 170 -79 175 -91 2 -6 5 -218 5 -470 1 -407 0 -457 -14 -460 -14 -3 -16 24 -16 236 l0 240 -26 31 c-14 17 -46 40 -71 51 l-45 20 -46 -20 c-86 -38 -101 -83 -94 -283 l5 -149 -24 4 -24 3 -5 182 c-3 126 -9 186 -17 195 -7 6 -13 29 -13 49 0 24 -5 39 -15 43 -10 3 -15 19 -15 42 0 21 -9 49 -22 66 -19 28 -21 44 -23 187 -1 86 -5 168 -9 184 -7 24 -6 27 18 27 14 0 43 -6 63 -14z m-4482 -12 c9 -9 14 -23 10 -32 -9 -23 14 -42 52 -42 34 0 36 2 48 55 l7 30 14 -27 c14 -28 16 -28 109 -28 93 0 95 0 109 28 15 29 22 22 28 -28 3 -22 8 -25 43 -25 35 0 40 3 43 25 6 50 13 57 28 28 14 -28 16 -28 109 -28 93 0 95 0 109 28 15 29 22 22 28 -28 2 -20 9 -26 36 -28 37 -4 64 13 61 37 -3 38 2 45 17 19 14 -28 16 -28 109 -28 93 0 95 0 109 28 10 19 16 23 19 12 20 -68 24 -75 47 -80 18 -4 25 -13 25 -30 l0 -25 -600 0 -600 0 -3 64 c-4 91 7 111 43 75z m2590 -7 c4 -13 5 -48 3 -77 l-3 -55 -290 0 -290 0 -18 39 c-23 49 -17 66 27 66 26 0 35 5 40 22 7 29 23 13 28 -27 3 -28 6 -30 43 -30 37 0 40 2 43 30 5 43 19 53 31 22 10 -27 12 -27 105 -27 94 0 96 0 110 28 15 29 22 22 28 -28 3 -22 8 -25 43 -25 36 0 40 3 45 31 4 17 10 36 14 42 12 20 35 13 41 -11z m2995 4 c5 -11 7 -26 5 -34 -9 -21 20 -39 57 -35 27 2 34 8 36 28 6 50 13 57 28 28 14 -28 16 -28 110 -28 92 0 95 1 104 26 12 32 30 22 30 -16 0 -23 6 -31 24 -36 42 -10 61 -1 64 31 5 39 19 54 28 29 12 -30 24 -34 117 -34 83 0 88 1 99 25 14 30 28 23 28 -15 0 -29 15 -40 55 -40 29 0 46 20 39 47 -3 11 -1 24 6 28 7 4 13 -1 17 -13 6 -26 30 -32 126 -32 73 0 78 1 89 25 19 42 29 32 40 -40 3 -19 11 -20 168 -20 l165 0 5 39 c6 43 25 58 35 27 3 -12 17 -21 33 -23 21 -2 28 -9 30 -32 2 -15 1 -39 -2 -51 l-6 -23 -682 3 c-376 2 -728 0 -783 -4 -68 -5 -102 -4 -107 3 -9 13 -10 118 -2 140 8 22 31 20 44 -3z m2585 -61 l0 -75 -449 0 c-435 0 -449 1 -462 20 -18 26 -18 69 1 85 8 7 15 19 15 27 0 28 25 6 28 -24 4 -39 20 -45 85 -34 4 0 7 14 7 30 0 39 18 49 30 17 9 -25 12 -26 105 -26 94 0 96 0 106 27 12 31 26 21 31 -22 3 -28 6 -30 43 -30 37 0 40 2 43 30 5 43 19 53 31 22 10 -27 12 -27 106 -27 92 0 96 1 107 25 14 30 28 23 28 -15 0 -29 15 -40 55 -40 23 0 51 31 39 43 -11 11 18 48 34 45 14 -3 17 -16 17 -78z m-445 49 c0 -5 -7 -9 -15 -9 -15 0 -20 12 -9 23 8 8 24 -1 24 -14z m3150 -30 c0 -9 8 -31 18 -50 12 -25 17 -59 18 -131 0 -80 4 -101 19 -118 10 -11 24 -20 31 -20 7 0 19 -6 26 -13 7 -7 42 -30 78 -52 36 -22 112 -70 170 -108 58 -39 119 -79 137 -91 l32 -21 3 -300 c2 -165 -1 -306 -6 -312 -12 -18 -71 -16 -86 2 -8 9 -10 29 -7 51 16 95 -56 254 -114 254 -26 0 -64 -42 -90 -99 -16 -34 -22 -68 -23 -131 l-1 -85 -55 0 -55 0 -3 80 c-1 44 -9 94 -17 112 -8 17 -15 34 -15 38 0 4 -14 25 -31 46 -46 58 -81 50 -130 -31 -25 -40 -49 -152 -42 -194 7 -45 -4 -56 -58 -56 -48 0 -59 14 -52 66 8 59 -14 140 -54 202 -54 80 -91 70 -146 -41 -21 -42 -27 -69 -29 -137 l-3 -85 -41 -3 c-25 -2 -45 2 -51 10 -6 8 -6 85 -1 213 4 110 5 245 2 301 l-6 101 63 38 c35 21 82 51 104 66 107 73 250 163 275 175 45 21 50 35 50 128 0 56 5 101 14 117 7 14 16 39 20 55 10 40 37 69 48 52 4 -7 8 -20 8 -29z m-3659 -60 c7 -95 0 -124 -32 -124 -24 0 -24 2 -24 86 0 59 4 91 14 103 24 29 36 12 42 -65z m-8136 1 c0 -12 -22 -15 -129 -18 -125 -3 -156 3 -141 27 4 8 49 11 138 9 109 -3 132 -6 132 -18z m5274 11 c35 -22 -4 -31 -134 -31 -128 0 -155 6 -140 30 8 12 254 13 274 1z m-1311 -115 l-3 -51 -65 0 -65 0 -3 52 -3 52 58 3 c83 4 84 3 81 -56z m2170 55 c9 -1 12 -16 10 -53 l-3 -53 -65 0 -65 0 -3 44 c-2 24 -1 48 1 55 4 9 72 14 125 7z m-6130 -162 l2 -157 -73 -7 c-41 -3 -107 -3 -146 1 l-71 7 0 153 c0 137 2 153 18 156 9 2 73 4 142 4 l125 -1 3 -156z m5272 146 c6 -4 10 -70 10 -155 0 -126 -2 -149 -16 -154 -23 -9 -257 -7 -271 2 -8 5 -11 51 -10 155 1 123 3 150 16 157 17 9 255 5 271 -5z m-3232 -24 c10 -6 4 -10 -19 -15 -35 -7 -45 -3 -34 13 7 13 35 14 53 2z m4504 -13 c-12 -12 -35 -1 -27 12 3 5 13 6 21 3 10 -4 12 -9 6 -15z m-4535 -45 c3 -8 -1 -21 -9 -29 -13 -13 -87 -15 -536 -15 -499 1 -522 0 -531 -18 -6 -11 -9 -103 -8 -227 2 -203 1 -209 -18 -209 -19 0 -20 7 -20 248 0 211 2 250 15 257 8 5 259 9 558 8 467 0 544 -2 549 -15z m1470 9 c10 -6 13 -97 15 -375 2 -202 0 -368 -4 -369 -33 -6 -33 -5 -38 342 l-5 345 -223 3 c-233 3 -245 5 -228 47 5 13 40 15 238 15 128 0 239 -4 245 -8z m4558 -25 l0 -28 -757 1 c-602 0 -758 -2 -765 -12 -4 -7 -8 -183 -9 -390 0 -208 -4 -378 -7 -378 -4 0 -11 0 -16 0 -13 0 -19 823 -7 832 5 3 358 5 785 5 l776 -2 0 -28z m491 19 c3 -8 1 -23 -5 -34 -10 -18 -20 -19 -173 -15 -90 2 -169 5 -175 8 -14 5 -18 37 -6 48 3 4 84 7 180 7 141 0 175 -3 179 -14z m445 2 c2 -15 -2 -42 -5 -46 -2 -1 -87 -3 -191 -4 -161 -1 -189 1 -196 15 -5 8 -6 22 -3 31 5 14 32 16 200 16 148 0 194 -3 195 -12z m97 0 c7 -7 12 -41 12 -82 -1 -59 -3 -67 -12 -51 -6 11 -17 25 -24 30 -13 11 -28 91 -19 106 8 13 29 11 43 -3z m-6126 -13 c11 -15 10 -63 -2 -70 -7 -4 -697 -8 -892 -5 -8 0 -11 73 -4 81 10 9 891 4 898 -6z m-941 -205 c4 -69 4 -129 2 -133 -3 -4 -17 4 -31 19 -15 14 -44 35 -64 45 -44 22 -48 36 -14 48 43 17 49 69 11 107 -19 19 -31 23 -52 18 -59 -13 -80 -70 -43 -117 25 -31 19 -50 -23 -68 -19 -8 -39 -30 -52 -54 -11 -22 -26 -40 -33 -40 -7 0 -23 18 -35 40 -25 45 -87 85 -132 85 -46 0 -107 -40 -130 -85 -27 -51 -40 -53 -60 -12 -19 41 -47 67 -96 89 -30 13 -41 14 -72 3 -58 -20 -85 -42 -108 -87 -20 -39 -21 -53 -17 -170 3 -71 2 -131 -3 -134 -5 -3 -27 9 -48 27 l-39 31 4 250 c2 137 6 253 9 258 3 5 234 8 513 7 l507 -2 6 -125z m1404 120 c3 -4 6 -151 7 -326 l3 -319 -29 -3 c-16 -2 -38 -1 -50 2 -20 5 -21 10 -21 190 0 212 -4 223 -88 264 -26 12 -47 27 -47 32 0 5 14 16 30 25 59 30 29 118 -40 118 -53 0 -96 -59 -67 -91 30 -33 25 -77 -10 -95 -14 -8 -36 -32 -48 -53 -12 -22 -28 -39 -36 -39 -11 0 -14 27 -14 145 0 80 1 149 3 153 4 10 401 7 407 -3z m4630 -90 c0 -87 -2 -96 -23 -115 -13 -11 -33 -37 -43 -57 -24 -48 -42 -48 -64 -1 -22 45 -31 55 -72 77 -69 35 -142 11 -192 -65 -18 -27 -36 -47 -42 -43 -5 3 -17 22 -27 42 -20 42 -82 82 -127 81 -45 0 -96 -30 -122 -69 -40 -61 -45 -66 -57 -45 -50 83 -90 114 -151 114 -45 1 -106 -38 -129 -83 -12 -22 -26 -41 -32 -43 -7 -2 -22 17 -34 42 -18 37 -32 51 -67 66 -25 10 -57 19 -71 19 -47 0 -105 -41 -130 -90 -21 -43 -22 -54 -20 -260 l2 -215 -43 0 -44 0 1 363 c1 200 4 367 7 371 2 5 337 8 742 7 l738 -1 0 -95z m459 91 c11 -17 -6 -43 -23 -35 -27 12 -75 15 -89 6 -8 -5 -17 -25 -21 -43 -6 -30 -11 -34 -43 -37 l-37 -3 -3 -55 c-4 -70 -22 -75 -26 -6 -2 30 -8 55 -15 57 -7 2 -24 6 -39 9 -26 6 -28 10 -28 55 0 26 3 51 7 54 10 11 311 8 317 -2z m445 -18 c-3 -66 -13 -88 -44 -93 -24 -4 -31 -11 -33 -35 -4 -34 -20 -57 -33 -49 -5 3 -9 35 -9 71 0 81 -15 103 -71 103 -41 0 -49 -7 -59 -54 -5 -27 -10 -31 -40 -31 -35 0 -35 0 -40 53 -3 29 -4 55 -1 58 2 2 78 4 168 4 l163 0 -1 -27z m-814 -384 l0 -394 -25 0 -25 0 1 382 c0 304 3 385 14 397 33 40 35 14 35 -385z m2231 343 c4 -26 8 -255 8 -510 1 -431 0 -463 -16 -468 -10 -3 -22 -3 -27 0 -11 7 -8 993 3 1018 12 27 24 12 32 -40z m449 -447 c1 -258 0 -476 -3 -482 -2 -7 -12 -13 -22 -13 -17 0 -18 26 -22 433 -5 472 4 606 36 551 7 -13 11 -173 11 -489z m-2231 479 c3 -9 6 -141 6 -294 0 -233 -2 -280 -15 -290 -8 -7 -21 -10 -29 -7 -11 5 -14 56 -15 297 -1 160 1 296 5 301 9 15 41 10 48 -7z m441 0 c14 -14 15 -45 11 -257 -2 -146 -8 -243 -14 -245 -5 -1 -17 4 -26 13 -14 14 -16 49 -16 254 0 261 3 277 45 235z m455 -60 c4 -26 5 -181 2 -346 -5 -297 -5 -299 -26 -296 -21 3 -21 6 -24 338 -1 184 0 346 3 359 6 22 8 23 22 8 9 -9 19 -37 23 -63z m439 40 c10 -29 12 -95 7 -303 -3 -146 -3 -324 1 -394 5 -71 5 -133 2 -139 -4 -5 -16 -8 -28 -6 l-23 3 -1 425 c-1 234 2 431 6 438 13 20 22 14 36 -24z m-6971 -108 l-3 -101 -40 0 -40 0 -3 102 -3 102 33 3 c58 6 59 5 56 -106z m-1053 73 c0 -17 -6 -25 -22 -27 -19 -3 -23 1 -23 21 0 25 14 38 35 33 6 -2 10 -14 10 -27z m260 -67 c2 -105 -4 -115 -62 -110 l-38 3 -3 89 c-2 49 0 96 2 103 4 10 20 13 52 11 l47 -3 2 -93z m160 -2 l0 -94 -45 -8 c-25 -5 -51 -6 -57 -3 -14 5 -19 186 -6 199 4 4 30 6 58 4 l50 -3 0 -95z m163 1 c3 -104 0 -111 -55 -111 -51 0 -58 15 -56 116 1 49 2 90 2 92 1 2 25 2 54 0 l52 -3 3 -94z m167 1 c2 -107 -3 -115 -67 -110 l-43 3 -3 103 -3 103 57 -3 57 -3 2 -93z m159 0 c1 -54 -3 -97 -9 -102 -5 -4 -31 -6 -57 -3 l-48 6 0 99 0 99 56 -3 56 -3 2 -93z m391 67 c0 -15 -7 -25 -17 -27 -13 -3 -18 3 -18 21 0 13 3 27 7 31 13 12 28 -1 28 -25z m773 -21 l-3 -53 -67 -3 -68 -3 0 56 0 55 71 0 70 0 -3 -52z m2180 0 l-3 -53 -65 0 -65 0 -3 53 -3 52 71 0 71 0 -3 -52z m2317 22 c0 -20 -6 -26 -27 -28 -24 -3 -28 0 -28 21 0 30 9 39 35 35 14 -2 20 -10 20 -28z m313 21 c21 -13 10 -46 -16 -49 -17 -3 -22 1 -22 21 0 35 13 45 38 28z m-420 -141 c-2 -14 -10 -26 -20 -28 -15 -3 -18 4 -18 36 0 21 3 42 7 46 12 12 34 -27 31 -54z m58 49 c8 -14 -18 -31 -30 -19 -9 9 0 30 14 30 5 0 12 -5 16 -11z m79 -35 c0 -27 -4 -39 -14 -39 -23 0 -34 27 -22 58 15 40 36 29 36 -19z m245 28 c0 -28 -11 -34 -31 -16 -21 19 -16 34 12 34 12 0 19 -7 19 -18z m60 -1 c12 -23 3 -51 -15 -51 -20 0 -28 18 -21 46 8 29 22 31 36 5z m308 -35 c-2 -20 -9 -32 -20 -34 -15 -3 -18 4 -18 36 0 21 3 42 7 45 13 14 34 -17 31 -47z m-894 28 c22 -21 20 -41 -4 -54 -34 -18 -51 9 -34 54 8 20 18 20 38 0z m452 -9 c8 -34 -2 -57 -23 -53 -13 2 -19 14 -21 41 -3 32 0 37 17 37 14 0 23 -9 27 -25z m279 0 c0 -22 -14 -28 -34 -16 -12 8 -13 12 -1 26 16 20 35 14 35 -10z m300 -15 c0 -36 -18 -51 -29 -25 -8 23 4 67 18 62 6 -2 11 -19 11 -37z m147 15 c9 -21 9 -29 -3 -41 -18 -17 -49 -9 -49 13 0 20 19 53 31 53 5 0 15 -11 21 -25z m160 3 c6 -34 -2 -58 -18 -58 -10 0 -14 12 -14 40 0 44 25 58 32 18z m143 -18 c0 -35 -21 -53 -31 -26 -9 23 5 68 19 63 7 -2 12 -19 12 -37z m139 17 c8 -12 8 -22 0 -34 -16 -25 -38 -22 -42 5 -7 50 18 67 42 29z m166 -17 c0 -29 -4 -40 -15 -40 -11 0 -15 11 -15 40 0 29 4 40 15 40 11 0 15 -11 15 -40z m148 6 c4 -34 -8 -49 -31 -40 -20 7 -22 45 -5 62 18 18 33 9 36 -22z m128 9 c8 -31 -2 -58 -19 -53 -14 5 -21 42 -13 64 8 22 25 17 32 -11z m174 -15 c0 -43 -23 -57 -35 -20 -9 27 3 60 21 60 10 0 14 -12 14 -40z m274 16 c7 -30 -2 -58 -18 -53 -18 6 -20 77 -3 77 8 0 18 -11 21 -24z m171 -17 c0 -24 -5 -34 -15 -34 -16 0 -25 37 -16 62 10 26 31 8 31 -28z m145 -3 c0 -24 -24 -41 -41 -30 -10 6 -12 35 -3 58 9 24 44 1 44 -28z m130 -2 c0 -24 -5 -34 -15 -34 -10 0 -15 10 -15 33 0 19 3 37 6 40 13 13 24 -5 24 -39z m-575 16 c9 -27 -1 -40 -31 -40 -18 0 -24 5 -24 23 0 13 3 27 7 30 13 14 42 6 48 -13z m-10915 -65 c0 -60 -3 -75 -15 -75 -12 0 -15 14 -15 68 0 38 3 72 7 75 17 18 23 1 23 -68z m114 66 c7 -11 -62 -53 -75 -46 -10 7 -12 39 -2 48 10 10 71 8 77 -2z m224 -18 c4 -28 -18 -30 -53 -7 -31 21 -22 36 18 32 24 -2 33 -8 35 -25z m4937 -49 c0 -62 -2 -69 -20 -69 -17 0 -20 8 -23 58 -2 35 2 64 9 73 23 28 34 8 34 -62z m119 67 c6 -9 -56 -51 -75 -51 -5 0 -9 14 -9 30 0 28 2 30 39 30 22 0 42 -4 45 -9z m219 -3 c11 -34 -21 -65 -38 -37 -4 5 -18 14 -32 20 -13 5 -21 13 -18 19 9 15 83 12 88 -2z m63 4 c7 -4 13 -36 15 -72 4 -64 3 -65 -21 -65 -24 0 -25 3 -28 73 -3 72 3 84 34 64z m-5258 -69 c-2 -53 -6 -68 -18 -68 -11 0 -16 16 -20 63 -6 70 -5 72 22 72 17 0 19 -7 16 -67z m-187 26 c45 -14 108 -74 93 -89 -15 -15 -266 -9 -271 6 -6 19 41 63 83 78 49 18 49 18 95 5z m1360 -19 c40 -22 48 -58 50 -236 l2 -169 -104 0 c-93 0 -104 2 -103 18 0 9 1 89 2 176 2 156 3 160 28 190 21 25 33 31 66 31 21 0 48 -5 59 -10z m329 0 c40 -21 49 -63 51 -232 0 -88 -3 -164 -8 -169 -6 -6 -52 -8 -104 -7 -82 3 -94 5 -93 21 0 9 1 91 2 182 2 161 2 164 27 190 28 27 89 34 125 15z m1642 -5 c0 -5 -5 -11 -11 -13 -6 -2 -11 4 -11 13 0 9 5 15 11 13 6 -2 11 -8 11 -13z m1182 -16 c26 -30 26 -32 26 -210 l0 -179 -87 0 c-49 0 -94 4 -102 9 -12 8 -14 41 -12 178 2 161 3 169 27 200 22 29 30 33 74 33 42 0 52 -4 74 -31z m319 -1 c24 -32 25 -41 28 -208 l4 -175 -102 -3 -103 -3 0 181 0 182 29 29 c24 23 38 29 75 29 39 0 48 -4 69 -32z m467 11 c7 -11 9 -28 5 -37 -4 -9 -8 -197 -11 -417 -2 -220 -4 -403 -4 -407 0 -5 -20 -8 -45 -8 -36 0 -45 3 -45 18 0 9 -1 207 -3 439 -2 233 -1 425 1 428 3 3 25 5 48 5 34 0 46 -5 54 -21z m491 -10 l29 -31 2 -184 c1 -101 2 -196 2 -211 1 -24 -3 -28 -24 -25 -13 1 -52 16 -87 32 -35 17 -70 30 -78 30 -13 0 -15 27 -15 179 0 178 0 180 26 210 22 26 33 31 71 31 37 0 50 -5 74 -31z m1170 0 l29 -32 -2 -221 -3 -221 -95 0 -95 0 0 227 c0 226 0 226 24 252 19 20 34 26 69 26 36 0 49 -5 73 -31z m315 16 c40 -27 45 -59 42 -280 l-3 -210 -95 0 -95 0 -3 227 -2 227 25 25 c30 30 97 36 131 11z m338 -16 c14 -17 26 -36 27 -42 0 -7 1 -105 2 -219 2 -165 -1 -209 -11 -213 -21 -8 -166 -6 -177 3 -6 4 -8 88 -5 234 5 224 5 227 29 247 16 14 38 21 67 21 35 0 47 -5 68 -31z m327 5 c24 -25 24 -30 29 -246 4 -159 2 -222 -7 -229 -6 -6 -51 -9 -100 -7 l-88 3 0 227 c0 226 0 226 24 252 35 37 107 37 142 0z m1067 18 c10 -7 12 -102 10 -443 l-3 -434 -50 0 -50 0 0 435 c-1 239 1 438 3 443 4 9 74 9 90 -1z m-3863 -47 c0 -30 -20 -43 -50 -31 -12 4 -12 10 3 36 21 38 47 36 47 -5z m3715 -101 l0 -114 -40 -25 c-55 -35 -92 -48 -99 -36 -3 5 -4 71 -1 147 l5 139 55 5 c30 3 61 4 68 2 9 -3 12 -36 12 -118z m-6849 93 c21 -14 35 -32 37 -49 l3 -25 -103 1 c-90 2 -103 4 -106 20 -4 18 17 43 53 64 32 18 79 14 116 -11z m1296 4 c31 -19 51 -56 38 -69 -3 -4 -49 -7 -102 -8 -103 -1 -118 7 -89 47 33 47 102 61 153 30z m5267 11 c2 -4 6 -88 7 -186 l2 -178 -37 -21 -37 -21 -34 37 c-36 39 -52 45 -76 25 -20 -17 -49 -64 -49 -80 0 -24 -44 -70 -61 -63 -14 5 -16 33 -13 240 1 129 5 239 9 245 7 12 281 14 289 2z m891 -3 c9 -13 11 -397 2 -405 -10 -11 -73 16 -97 41 -15 16 -35 25 -54 25 -17 1 -58 16 -91 34 l-60 33 2 129 c1 71 3 135 3 142 0 16 285 18 295 1z m445 4 c0 -5 3 -125 5 -268 3 -143 6 -271 8 -285 1 -19 -3 -26 -20 -28 -20 -3 -23 1 -23 31 0 46 -34 143 -66 184 -29 39 -56 42 -84 10 -24 -27 -60 -96 -60 -114 0 -17 -17 -25 -39 -18 -17 5 -18 19 -15 243 2 130 3 240 4 245 0 4 65 7 145 7 80 0 145 -3 145 -7z m444 -5 c3 -7 7 -172 10 -366 6 -320 5 -353 -10 -359 -28 -10 -35 18 -29 110 4 68 2 100 -12 145 -35 116 -89 167 -133 127 -47 -43 -87 -166 -76 -239 5 -33 3 -46 -9 -56 -35 -29 -38 0 -36 321 1 172 4 317 7 321 9 14 284 10 288 -4z m456 -368 c4 -206 2 -383 -3 -393 -7 -15 -11 -16 -23 -6 -11 9 -14 40 -14 137 0 136 -10 187 -49 246 -48 73 -73 73 -122 1 -40 -58 -53 -125 -50 -252 2 -115 -9 -167 -32 -144 -8 8 -10 122 -8 394 1 210 5 385 8 390 2 4 68 6 146 5 l142 -3 5 -375z m447 47 c3 -309 2 -328 -14 -325 -15 3 -19 18 -24 78 -9 112 -35 185 -79 225 -64 58 -153 -93 -148 -254 2 -77 -2 -87 -28 -77 -16 6 -17 22 -11 179 4 95 7 247 7 340 l0 168 147 -3 147 -3 3 -328z m-5885 291 c-15 -15 -26 -4 -18 18 5 13 9 15 18 6 9 -9 9 -15 0 -24z m-3172 -82 c0 -96 -2 -105 -20 -111 -11 -3 -24 -3 -30 0 -6 3 -10 51 -10 111 l0 104 30 0 30 0 0 -104z m276 89 c4 -8 3 -26 0 -40 -6 -23 -11 -25 -59 -25 -48 0 -56 3 -76 30 -12 17 -19 35 -16 40 3 6 38 10 76 10 53 0 71 -4 75 -15z m388 7 c3 -5 -4 -23 -15 -41 -19 -31 -21 -32 -77 -29 -51 3 -57 5 -60 26 -7 46 3 52 77 52 38 0 72 -4 75 -8z m184 -98 c2 -86 0 -103 -13 -108 -9 -3 -25 -1 -36 4 -17 9 -19 22 -19 104 0 51 3 96 7 100 4 4 19 6 33 4 25 -3 25 -4 28 -104z m1010 52 c2 -27 -1 -52 -6 -55 -6 -3 -37 -4 -71 -3 l-61 4 0 54 0 55 68 -3 67 -3 3 -49z m2182 -1 c0 -45 -3 -55 -17 -56 -18 -1 -101 -1 -115 0 -10 1 -11 95 -1 104 3 4 35 7 70 7 l63 0 0 -55z m-3956 19 c9 -8 16 -21 16 -29 0 -23 -30 -25 -51 -4 -16 16 -18 23 -8 35 15 18 24 18 43 -2z m364 10 c16 -5 22 -13 20 -28 -3 -19 -10 -21 -69 -24 -55 -2 -68 0 -73 14 -3 9 -1 23 5 30 12 14 76 18 117 8z m300 -21 c4 -24 -22 -47 -43 -39 -20 7 -19 43 3 55 23 14 36 9 40 -16z m5112 -210 c0 -156 -2 -185 -15 -190 -9 -3 -18 -3 -21 0 -8 8 -6 376 2 388 4 6 11 6 20 -2 11 -9 14 -49 14 -196z m-6580 190 c0 -5 1 -71 2 -148 3 -119 1 -140 -12 -140 -12 0 -15 23 -18 134 -1 74 0 141 2 148 6 14 26 18 26 6z m3133 -140 c7 -140 6 -143 -14 -143 -19 0 -21 4 -15 58 3 31 8 97 12 145 3 49 7 87 9 85 1 -2 5 -67 8 -145z m2452 -49 c0 -161 -2 -189 -15 -189 -13 0 -15 28 -18 180 -3 187 0 209 21 202 9 -3 12 -50 12 -193z m325 0 c0 -152 -3 -195 -12 -192 -10 4 -14 51 -16 183 -3 182 -1 205 18 205 6 0 10 -68 10 -196z m330 0 c0 -152 -3 -195 -12 -192 -10 4 -14 54 -16 196 -2 166 0 192 13 192 13 0 15 -27 15 -196z m-7549 169 c6 -6 9 -61 7 -139 l-3 -129 -215 0 -215 0 -3 120 c-1 66 -1 129 2 140 5 19 13 20 211 19 124 0 209 -4 216 -11z m4967 -54 l3 -67 -46 -31 c-25 -17 -56 -31 -69 -31 -23 0 -23 2 -20 90 1 49 6 95 9 100 4 6 31 10 63 8 l57 -3 3 -66z m308 59 c5 -7 9 -50 10 -95 2 -81 1 -83 -22 -83 -13 0 -24 5 -24 10 0 6 -5 10 -12 10 -31 0 -48 33 -48 95 0 34 3 65 7 68 11 12 82 8 89 -5z m-3520 -100 l-1 -63 -39 -3 c-24 -2 -42 2 -47 10 -10 16 -12 102 -2 111 3 4 25 7 48 7 l42 0 -1 -62z m132 18 c2 -22 1 -50 -3 -63 -5 -21 -10 -24 -48 -21 l-42 3 2 38 c2 22 -2 47 -7 57 -13 25 -2 31 50 28 45 -3 45 -3 48 -42z m887 -1 l0 -40 -350 0 -350 0 -3 34 c-2 20 2 37 10 42 7 5 166 8 353 6 l340 -2 0 -40z m279 -20 l0 -60 -45 0 -44 0 -3 63 -3 63 47 -3 48 -3 0 -60z m136 5 c0 -55 -2 -60 -25 -66 -14 -3 -36 -3 -50 0 -23 6 -25 10 -19 46 4 25 2 45 -5 54 -15 18 -1 24 57 25 l42 1 0 -60z m700 -79 c0 -10 -7 -24 -15 -31 -8 -7 -15 -20 -15 -29 0 -27 -21 -41 -60 -41 -47 0 -60 14 -53 59 8 61 8 61 78 61 57 0 65 -2 65 -19z m2178 -38 c3 -48 1 -53 -21 -58 -13 -4 -43 -5 -68 -3 l-44 3 -3 44 c-5 68 -1 72 70 69 l63 -3 3 -52z m-3293 -9 l0 -49 -335 -1 c-184 -1 -343 0 -352 3 -14 3 -18 15 -18 47 0 23 2 45 4 47 2 2 161 3 353 3 l348 -1 0 -49z m-1854 10 c16 -15 29 -36 29 -46 0 -16 -10 -18 -109 -18 -61 0 -113 4 -116 10 -8 14 23 58 54 76 40 22 106 12 142 -22z m3182 -4 c15 -17 26 -37 24 -43 -4 -14 -216 -22 -229 -9 -11 11 36 70 66 83 12 5 41 7 66 5 34 -3 51 -11 73 -36z m862 -16 l0 -39 -62 0 c-35 0 -64 5 -65 10 -1 6 18 20 42 32 24 13 48 27 54 33 18 18 31 4 31 -36z m269 26 c21 -10 45 -28 53 -39 12 -19 12 -21 -10 -26 -13 -4 -39 -5 -58 -3 -32 3 -34 5 -37 46 -2 23 1 42 5 42 5 0 26 -9 47 -20z m3456 -8 c0 -18 -10 -38 -26 -52 -54 -51 -64 -97 -65 -284 0 -94 -4 -177 -8 -185 -5 -7 -17 -11 -27 -9 -18 3 -19 17 -20 241 l-2 238 39 25 c21 13 43 24 48 24 5 0 14 7 21 15 20 24 40 18 40 -13z m251 12 c9 -11 13 -78 16 -257 2 -133 1 -252 -2 -264 -4 -16 -13 -23 -30 -23 l-25 0 0 273 c0 151 3 277 7 280 10 11 19 8 34 -9z m-6913 -42 l3 -32 -183 2 c-167 3 -183 5 -186 21 -8 38 10 42 190 42 l173 0 3 -33z m1078 28 c85 0 102 -9 88 -45 -5 -13 -33 -15 -193 -13 -170 3 -186 5 -189 21 -2 10 2 25 10 34 11 13 28 15 108 9 52 -3 132 -6 176 -6z m-3585 -171 c-6 -79 -10 -303 -9 -496 1 -194 -2 -356 -5 -360 -5 -5 -161 -8 -218 -4 -13 1 -10 38 15 246 20 162 35 237 86 434 11 44 28 96 75 230 22 63 52 108 63 96 2 -1 -2 -67 -7 -146z m9543 117 l30 -23 -25 -39 c-23 -37 -24 -49 -28 -226 l-3 -188 -24 0 -24 0 0 243 c0 134 3 247 7 250 12 13 38 7 67 -17z m-3648 -42 c9 -35 -2 -56 -28 -52 -26 4 -46 52 -29 72 17 20 50 8 57 -20z m3092 -196 c3 -236 -1 -258 -42 -242 -14 5 -16 32 -16 230 0 202 2 224 18 233 9 6 22 9 27 7 6 -2 11 -89 13 -228z m-7400 186 c6 -2 12 -13 12 -24 0 -20 -5 -20 -281 -20 l-280 0 3 23 c3 22 5 22 208 27 194 5 310 3 338 -6z m504 -2 c6 -6 8 -18 5 -26 -6 -14 -32 -16 -181 -16 -96 0 -177 4 -180 9 -9 14 4 40 22 43 42 8 325 -1 334 -10z m108 -152 c0 -138 -2 -150 -19 -160 -13 -7 -22 -7 -26 0 -11 18 -14 304 -3 317 7 9 16 10 29 2 17 -9 19 -23 19 -159z m2664 164 c11 -4 16 -19 16 -43 0 -30 -5 -40 -24 -49 -19 -8 -27 -8 -36 3 -15 18 -5 81 13 88 7 3 13 6 14 6 1 1 8 -2 17 -5z m164 -3 c10 -6 5 -14 -22 -30 -64 -40 -112 -27 -92 25 6 16 91 20 114 5z m247 -11 c13 -42 -37 -66 -69 -34 -23 23 -4 54 34 54 20 0 31 -6 35 -20z m-4790 -211 l0 -214 -215 0 -215 0 -3 205 c-1 112 -1 209 2 215 2 6 79 10 217 9 l214 -1 0 -214z m403 194 l3 -23 -175 0 c-175 0 -194 4 -182 36 5 12 33 14 178 12 171 -3 173 -3 176 -25z m102 2 c11 -29 2 -154 -13 -172 -5 -7 -18 -13 -28 -13 -17 0 -19 9 -19 93 0 92 8 117 37 117 8 0 18 -11 23 -25z m708 -380 c3 -389 2 -401 -18 -443 -12 -23 -26 -40 -31 -37 -11 7 -13 868 -2 879 4 4 16 6 28 4 20 -3 20 -9 23 -403z m810 287 c2 -97 0 -113 -14 -119 -26 -10 -49 11 -46 41 4 35 -27 86 -53 87 -62 4 -85 -22 -85 -97 0 -42 -4 -55 -19 -64 -48 -25 -51 -19 -51 114 0 68 3 132 6 140 5 14 24 16 133 14 l126 -3 3 -113z m150 105 c12 -14 18 -198 8 -216 -4 -6 -22 -11 -41 -11 -64 0 -65 1 -65 119 0 59 3 111 7 114 11 12 80 7 91 -6z m421 -1 c5 -6 11 -40 12 -75 3 -75 -8 -86 -49 -49 -30 28 -101 58 -135 58 -41 0 -113 -30 -144 -60 -17 -16 -33 -27 -37 -23 -8 8 -8 148 0 156 12 12 343 5 353 -7z m169 -103 l-3 -118 -50 0 -50 0 -3 104 c-1 58 0 111 2 118 4 8 23 13 56 13 l51 0 -3 -117z m312 7 c7 -133 5 -142 -29 -138 -24 3 -26 7 -29 53 -4 63 -23 85 -73 85 -45 0 -59 -19 -59 -79 0 -36 -3 -41 -27 -47 -41 -11 -48 10 -45 130 l3 107 127 -3 127 -3 5 -105z m110 -25 c0 -114 -3 -137 -16 -142 -30 -11 -38 15 -40 130 -3 135 0 147 32 147 l24 0 0 -135z m398 108 l3 -23 -180 0 -181 0 0 25 0 25 178 -2 c175 -3 177 -3 180 -25z m97 -133 l0 -155 -27 -3 -28 -3 0 154 c0 84 3 157 7 161 4 4 16 6 28 4 19 -3 20 -10 20 -158z m609 138 c5 -9 7 -20 4 -23 -10 -11 -551 -6 -561 4 -5 5 -7 17 -4 25 6 14 38 16 278 14 243 -3 273 -5 283 -20z m674 -195 l2 -213 -60 0 c-51 0 -60 3 -60 18 0 9 -1 104 -3 209 -2 106 -1 195 2 198 3 3 30 5 61 3 l55 -3 3 -212z m311 204 c8 -10 8 -38 0 -103 -6 -49 -9 -134 -6 -189 2 -55 3 -106 0 -112 -3 -8 -23 -13 -49 -13 l-44 0 0 208 c0 115 3 212 7 215 12 12 80 7 92 -6z m-600 -11 c16 -19 -10 -38 -45 -34 -35 4 -42 25 -12 37 33 14 44 13 57 -3z m859 -14 c2 -8 -9 -12 -32 -12 -40 0 -55 14 -29 28 19 11 55 1 61 -16z m2860 -186 c-3 -171 -5 -201 -18 -201 -13 0 -16 31 -20 200 -3 115 -1 203 4 207 5 3 15 4 23 1 11 -4 13 -44 11 -207z m292 131 c0 -80 -8 -101 -36 -95 -28 5 -31 75 -4 133 11 25 25 43 30 40 6 -4 10 -39 10 -78z m450 9 c0 -91 -5 -106 -36 -106 -23 0 -24 4 -24 58 0 39 6 67 20 90 30 50 40 40 40 -42z m2950 34 c23 -45 27 -122 6 -139 -23 -19 -39 14 -42 91 -5 99 4 111 36 48z m-2502 -12 c-3 -38 -6 -43 -28 -43 -31 0 -40 38 -14 66 30 33 46 24 42 -23z m73 -12 c10 -27 16 -53 13 -58 -9 -14 -54 -9 -60 7 -9 23 6 107 18 103 6 -2 19 -26 29 -52z m445 -7 c17 -72 17 -85 -3 -104 -16 -16 -17 -16 -30 1 -22 30 -13 169 10 161 6 -2 16 -28 23 -58z m808 39 c10 -40 6 -124 -7 -141 -11 -16 -15 -16 -32 -3 -18 13 -18 18 -6 82 8 38 16 72 18 77 8 14 21 7 27 -15z m416 -61 c0 -46 -3 -87 -6 -90 -9 -9 -40 9 -47 27 -4 9 1 39 9 68 22 77 22 78 34 78 6 0 10 -33 10 -83z m90 -23 c0 -40 -4 -56 -16 -61 -8 -3 -20 -1 -26 5 -11 11 -19 140 -10 156 3 5 16 -3 29 -18 18 -21 23 -39 23 -82z m256 -40 c-8 -32 -35 -38 -45 -11 -13 35 2 125 25 141 18 14 19 12 22 -47 2 -34 1 -71 -2 -83z m78 92 c9 -30 16 -63 16 -74 0 -24 -27 -55 -41 -47 -10 7 -13 158 -2 168 10 11 11 10 27 -47z m266 -30 c0 -65 -3 -85 -15 -90 -9 -3 -21 4 -31 18 -13 20 -13 32 -4 66 32 118 50 121 50 6z m-4050 18 c0 -37 -4 -46 -24 -56 -25 -11 -56 -6 -56 10 0 17 62 102 71 96 5 -3 9 -25 9 -50z m1330 31 c13 -11 14 -41 10 -192 -5 -174 -6 -178 -27 -181 -22 -3 -22 -2 -26 175 -2 98 -7 189 -12 202 -7 21 -6 23 16 16 13 -4 31 -13 39 -20z m727 -50 c-3 -82 -16 -107 -43 -84 -13 11 -15 24 -9 74 7 62 18 85 41 85 11 0 13 -16 11 -75z m443 0 c0 -61 -3 -77 -16 -82 -30 -11 -42 21 -32 79 13 73 15 78 33 78 12 0 15 -14 15 -75z m84 1 c10 -71 2 -94 -28 -83 -12 5 -16 22 -16 75 0 38 3 72 7 76 17 16 29 -5 37 -68z m434 62 c18 -24 24 -121 8 -143 -24 -32 -38 -6 -42 79 -3 60 -1 76 10 76 7 0 18 -6 24 -12z m-2663 -78 c0 -55 -3 -65 -19 -68 -27 -6 -36 15 -36 81 0 58 0 58 28 55 26 -3 27 -5 27 -68z m903 -5 c2 -26 -2 -53 -8 -59 -20 -19 -40 23 -40 82 0 54 0 54 23 40 17 -12 23 -27 25 -63z m-4953 14 c0 -19 -6 -25 -28 -27 -18 -2 -29 2 -33 12 -6 16 -54 23 -54 8 0 -12 -58 -72 -70 -72 -6 0 -15 10 -21 23 -5 12 -16 33 -24 47 l-14 25 112 5 c139 7 132 8 132 -21z m383 15 c25 -17 27 -43 15 -227 l-6 -107 -93 0 c-110 0 -100 -16 -109 167 -7 135 -3 160 28 173 38 15 140 12 165 -6z m764 -7 c2 -7 2 -83 0 -170 l-3 -158 -42 3 -42 3 0 165 0 165 30 6 c35 6 52 2 57 -14z m2818 -33 c0 -52 -2 -55 -22 -52 -48 7 -46 108 2 108 18 0 20 -6 20 -56z m1158 -116 c2 -155 1 -168 -16 -177 -11 -6 -22 -7 -26 -4 -3 3 -6 85 -6 180 l0 174 23 -3 c22 -3 22 -5 25 -170z m-8757 145 c-5 -10 -21 -29 -35 -42 -25 -23 -28 -24 -43 -8 -14 13 -14 21 -5 42 10 21 18 25 52 25 36 0 40 -2 31 -17z m165 1 c-3 -9 -6 -19 -6 -24 0 -4 -12 -15 -26 -25 -29 -18 -40 -13 -75 37 l-20 28 66 0 c57 0 66 -2 61 -16z m174 1 c0 -7 -7 -20 -15 -29 -11 -11 -15 -37 -15 -99 l0 -85 50 -7 c27 -4 54 -4 60 0 17 10 13 170 -5 185 -23 19 -19 50 6 50 11 0 28 -4 39 -10 17 -9 18 -31 14 -416 -2 -224 -5 -409 -8 -411 -8 -8 -407 -9 -413 0 -9 15 -10 151 -1 170 6 11 20 17 43 17 l35 0 0 -54 c0 -61 6 -66 76 -66 57 0 64 17 57 128 -5 74 -4 84 21 129 52 92 52 217 -2 298 -18 28 -27 57 -30 100 -3 33 -11 69 -18 80 -8 11 -14 22 -14 26 0 3 27 7 60 7 45 1 60 -3 60 -13z m2598 -1 c10 -3 12 -32 10 -121 l-3 -117 -60 -19 c-33 -11 -75 -26 -93 -33 -46 -20 -57 -18 -90 14 -15 15 -47 40 -70 55 l-43 28 3 97 3 97 92 3 c85 3 92 1 86 -15 -4 -10 -12 -22 -20 -26 -9 -6 -13 -33 -13 -92 l0 -85 59 0 c35 0 63 5 69 13 16 19 8 141 -11 171 -9 14 -17 30 -17 35 0 8 66 5 98 -5z m235 -1 c-3 -10 -12 -25 -19 -33 -7 -9 -14 -45 -16 -80 -3 -57 -5 -65 -23 -65 -18 0 -20 8 -23 77 -4 96 7 118 53 118 28 0 33 -3 28 -17z m167 -3 c0 -10 -7 -23 -14 -30 -8 -6 -16 -30 -18 -53 -2 -34 -7 -42 -23 -42 -16 0 -21 8 -25 40 -3 22 -13 54 -22 72 l-18 32 60 -1 c50 -1 60 -4 60 -18z m808 -151 c2 -142 0 -168 -13 -173 -38 -14 -42 0 -47 162 -5 164 -1 185 36 180 20 -3 21 -9 24 -169z m883 6 c-2 -88 -5 -163 -8 -167 -2 -5 -44 -8 -94 -8 l-89 0 0 170 0 171 98 -3 97 -3 -4 -160z m-5431 146 c0 -4 -9 -20 -20 -34 -18 -22 -20 -38 -18 -104 l3 -78 44 -3 c87 -6 91 -2 91 86 0 53 -5 84 -15 98 -27 35 -19 45 33 42 l47 -3 3 -87 c2 -70 -1 -95 -16 -125 -36 -73 -46 -128 -32 -180 7 -27 21 -64 32 -83 16 -31 18 -54 16 -195 l-3 -160 -170 1 -170 1 -5 404 c-3 223 -1 410 4 417 10 14 176 18 176 3z m1130 2 c0 -3 -7 -14 -16 -24 -18 -20 -31 -131 -20 -174 6 -25 9 -26 69 -23 l62 3 0 86 c0 69 -4 91 -17 106 -10 11 -18 23 -18 26 0 12 168 8 175 -4 4 -6 7 -65 6 -132 l-1 -122 -52 -45 c-99 -85 -217 -212 -242 -261 -11 -20 -27 -41 -37 -48 -18 -11 -19 0 -19 297 0 170 3 312 7 315 8 9 103 9 103 0z m4408 -17 c34 -19 90 -42 120 -51 22 -6 23 -9 20 -128 l-3 -122 -95 0 -95 0 -2 158 c-2 172 -1 173 55 143z m2370 -149 l3 -157 -26 0 c-19 0 -25 5 -25 21 0 11 -2 76 -4 142 -4 126 3 160 32 155 15 -3 17 -22 20 -161z m1330 150 c7 -8 11 -68 11 -155 0 -127 -2 -143 -18 -152 -10 -5 -21 -6 -25 -3 -3 3 -6 78 -6 165 0 127 3 158 14 158 7 0 18 -6 24 -13z m-5078 -146 c0 -119 -3 -151 -15 -161 -8 -7 -21 -10 -29 -7 -11 5 -15 35 -18 144 -4 146 3 173 44 173 17 0 18 -11 18 -149z m-1874 108 c41 -25 67 -55 59 -68 -9 -16 -28 -13 -47 7 -67 73 -175 70 -234 -7 -12 -15 -44 -9 -44 8 0 20 86 79 120 83 54 7 112 -3 146 -23z m5532 -124 c3 -145 -2 -164 -40 -144 -16 9 -18 24 -18 134 0 100 3 127 16 140 33 32 39 13 42 -130z m1517 115 c0 -32 -30 -39 -45 -10 -14 26 -4 42 23 38 16 -2 22 -10 22 -28z m-9285 -51 c0 -45 -3 -59 -14 -59 -20 0 -32 80 -16 109 18 34 30 15 30 -50z m568 38 c4 -30 -17 -37 -38 -12 -10 12 -10 18 0 30 18 22 34 14 38 -18z m2612 -38 c0 -52 -2 -60 -17 -57 -14 2 -19 15 -21 51 -3 47 11 82 29 71 5 -3 9 -32 9 -65z m397 14 c5 -40 -14 -72 -37 -58 -14 9 -13 88 2 103 17 17 29 2 35 -45z m168 26 c0 -17 -6 -25 -23 -27 -30 -5 -42 26 -17 45 26 18 40 12 40 -18z m-2999 -4 c3 -14 3 -41 0 -61 -6 -29 -11 -35 -29 -32 -18 2 -23 11 -25 47 -4 55 2 71 27 71 14 0 23 -9 27 -25z m379 -35 c0 -43 -3 -55 -17 -58 -12 -2 -19 6 -24 32 -9 49 2 88 24 84 14 -3 17 -14 17 -58z m500 39 c9 -29 -2 -69 -20 -69 -11 0 -15 11 -15 38 0 53 22 73 35 31z m1059 -2 c8 -12 8 -22 0 -34 -16 -25 -38 -22 -42 5 -7 50 18 67 42 29z m1310 17 c13 -5 16 -25 16 -113 0 -137 -4 -151 -42 -151 l-30 0 6 63 c3 34 5 88 5 120 0 32 5 65 12 73 13 16 12 16 33 8z m3684 -140 c-4 -153 -22 -155 -26 -2 -3 117 2 148 19 131 6 -6 8 -59 7 -129z m-3774 58 c-4 -18 -12 -32 -19 -32 -16 0 -24 53 -12 76 16 28 39 -5 31 -44z m-3424 28 c124 -63 174 -209 114 -335 -56 -119 -181 -172 -304 -129 -66 23 -103 56 -136 120 -65 129 -18 275 111 343 54 29 160 29 215 1z m1700 5 c18 -22 7 -29 -50 -30 -41 -1 -50 2 -50 16 0 10 6 20 13 22 26 11 75 6 87 -8z m3550 -3 c14 -7 52 -20 85 -31 l60 -18 0 -79 0 -79 -97 -3 -97 -3 -3 106 c-3 95 3 129 21 122 3 -2 17 -8 31 -15z m3730 -1 c5 -11 10 -58 10 -105 0 -66 -4 -88 -17 -101 -16 -16 -17 -16 -30 1 -13 18 -19 177 -7 208 8 22 31 20 44 -3z m-5622 -54 c3 -41 6 -46 30 -49 21 -2 28 -9 30 -32 2 -15 1 -39 -2 -52 -6 -23 -10 -24 -101 -24 -91 0 -95 1 -101 24 -3 13 -4 37 -2 52 3 26 7 29 46 32 l42 3 0 44 c0 33 4 45 18 48 31 8 37 1 40 -46z m3724 41 c2 -7 2 -55 0 -105 l-3 -93 -69 0 c-79 0 -80 1 -80 94 l0 62 63 27 c71 30 83 32 89 15z m1736 -50 c3 -52 -11 -96 -34 -105 -24 -9 -34 15 -34 83 0 67 11 86 44 75 16 -6 22 -18 24 -53z m62 -24 c0 -56 -3 -74 -14 -74 -17 0 -29 129 -14 147 19 24 28 2 28 -73z m371 75 c26 -14 15 -29 -22 -29 -39 0 -40 29 -1 39 2 1 12 -4 23 -10z m105 -21 c8 -26 -7 -41 -37 -36 -27 3 -40 45 -19 58 19 12 49 0 56 -22z m-1886 -68 c0 -89 0 -90 -25 -90 -25 0 -25 1 -25 90 0 89 0 90 25 90 25 0 25 -1 25 -90z m90 -1 l0 -90 -27 3 c-27 3 -28 5 -31 77 -4 90 0 101 33 101 25 0 25 0 25 -91z m355 1 c0 -84 0 -85 -25 -85 -25 0 -25 2 -28 88 l-3 88 28 -3 28 -3 0 -85z m450 0 l0 -85 -27 -3 -28 -3 0 91 0 91 28 -3 27 -3 0 -85z m95 0 c0 -83 -1 -90 -20 -90 -11 0 -20 3 -20 8 0 4 -2 42 -4 84 -1 43 -1 80 2 83 3 3 14 5 24 5 16 0 18 -9 18 -90z m612 73 c24 -22 26 -153 2 -177 -35 -36 -54 -4 -54 93 0 101 12 121 52 84z m626 -66 c2 -63 0 -78 -13 -83 -31 -12 -45 15 -45 86 0 73 4 82 35 78 18 -3 20 -11 23 -81z m94 3 c4 -97 3 -100 -28 -100 -23 0 -24 2 -24 83 0 88 3 97 31 97 15 0 18 -12 21 -80z m348 71 c0 -6 -4 -12 -9 -15 -13 -8 -42 4 -35 15 7 12 44 12 44 0z m-6872 -29 c5 -17 -27 -27 -41 -13 -9 9 -8 14 3 21 18 11 32 8 38 -8z m-95 -93 l-8 -64 -97 -3 -98 -3 0 40 c0 51 26 71 93 71 34 0 57 6 75 20 14 12 29 17 34 12 5 -5 5 -38 1 -73z m-818 49 c143 -58 241 -143 300 -260 42 -82 55 -136 62 -265 5 -86 4 -91 -16 -98 -12 -3 -29 -4 -38 -1 -10 3 -513 8 -1118 11 -604 3 -1101 8 -1103 10 -3 2 2 15 11 27 9 13 35 51 59 84 137 197 344 400 462 454 134 62 95 59 746 56 523 -2 600 -4 635 -18z m3190 -3 c96 -32 95 -31 95 -75 l0 -40 -94 0 c-106 0 -106 0 -106 79 0 70 1 70 105 36z m1343 -24 c7 -89 5 -91 -104 -91 l-95 0 3 43 c3 40 5 42 48 55 25 7 59 20 75 27 52 24 70 16 73 -34z m2366 27 c10 -16 12 -34 7 -58 -6 -30 -11 -35 -36 -35 -28 0 -30 3 -33 44 -2 24 -1 50 2 57 8 22 44 16 60 -8z m90 -27 c10 -11 16 -30 14 -43 -2 -18 -9 -23 -33 -23 -26 0 -30 4 -33 28 -7 56 19 75 52 38z m-6426 -52 c3 -29 -18 -52 -41 -43 -24 9 -29 35 -10 56 22 25 47 19 51 -13z m6517 10 c8 -24 -16 -55 -34 -45 -12 8 -15 49 -4 59 13 14 32 7 38 -14z m-3624 -15 c100 -33 88 -48 -31 -38 -83 7 -99 16 -86 49 7 21 22 19 117 -11z m824 -4 c0 -24 -3 -25 -82 -33 -121 -12 -136 3 -37 36 96 32 119 31 119 -3z m2889 4 c7 -19 -10 -44 -30 -44 -16 0 -37 37 -29 50 10 16 52 11 59 -6z m-6709 -20 c0 -15 -8 -20 -37 -22 -21 -2 -45 1 -54 6 -13 7 -8 12 27 24 53 18 64 17 64 -8z m6036 -17 c-12 -12 -43 -6 -48 10 -2 6 4 13 14 15 23 6 47 -12 34 -25z m752 8 c1 -5 -6 -11 -15 -13 -11 -2 -18 3 -18 13 0 17 30 18 33 0z m102 -53 c5 -1 -14 -26 -43 -55 l-52 -53 -3445 1 c-3052 0 -3447 2 -3455 15 -5 8 -10 20 -10 26 0 6 -7 17 -15 24 -8 7 -15 20 -15 29 0 15 275 16 3513 16 1931 0 3516 -1 3522 -3z m-10467 -236 c2 -161 -1 -211 -10 -218 -20 -12 -86 -10 -94 4 -4 6 -6 59 -5 116 3 122 -11 161 -67 188 -40 19 -76 12 -117 -20 l-30 -24 -2 -119 c-1 -65 -2 -126 -2 -136 -1 -15 -9 -18 -53 -15 l-53 3 -3 205 c-1 112 0 210 3 217 3 11 50 13 217 11 l213 -3 3 -209z m3577 62 c3 -13 4 -81 3 -153 -3 -126 -4 -130 -25 -133 -17 -2 -24 3 -27 20 -7 34 -14 277 -8 283 3 3 16 5 28 5 16 0 25 -7 29 -22z m91 10 c6 -9 9 -203 5 -286 -1 -8 -10 -12 -23 -10 -22 3 -23 6 -26 142 -2 93 1 143 9 152 14 17 25 18 35 2z m263 -2 c9 -6 11 -29 6 -91 -9 -108 -1 -125 63 -125 27 0 53 5 60 12 8 8 12 47 12 109 l0 98 91 3 c50 2 97 0 104 -5 10 -5 14 -39 14 -142 0 -74 -5 -137 -10 -140 -5 -4 -127 -6 -272 -7 l-262 0 -3 138 c-1 76 -1 143 1 149 5 12 176 13 196 1z m447 2 c6 -9 8 -166 4 -286 0 -8 -9 -12 -22 -10 -22 3 -23 6 -26 143 -1 76 0 145 2 152 7 16 32 17 42 1z m121 0 c4 -7 6 -53 4 -101 -3 -106 3 -117 70 -117 43 0 51 3 59 25 5 13 7 53 3 89 -3 35 -3 75 1 89 6 25 9 26 67 23 33 -2 64 -7 70 -13 6 -6 8 -67 7 -147 l-3 -137 -170 -2 -170 -2 -6 135 c-3 74 -2 143 3 153 10 20 53 23 65 5z m429 1 c12 -10 13 -267 1 -286 -10 -16 -73 -17 -82 -2 -9 13 -9 274 -1 288 8 12 67 12 82 0z m205 -6 c5 -5 8 -71 7 -149 l-3 -139 -65 -2 c-42 -2 -67 2 -72 10 -11 17 -10 271 1 283 13 12 120 9 132 -3z m127 5 c7 -10 11 -251 3 -290 -2 -13 -49 -9 -58 5 -12 18 -12 270 0 285 5 6 17 12 27 12 10 0 22 -6 28 -12z m2493 -20 c-2 -13 -5 -76 -6 -141 -2 -65 -5 -120 -7 -123 -3 -2 -547 -4 -1209 -4 l-1204 0 -3 136 c-1 75 2 141 7 148 7 8 324 10 1218 9 l1208 -3 -4 -22z m195 20 c7 -8 9 -262 1 -275 -5 -7 -55 -9 -144 -4 -10 1 -13 28 -13 100 0 107 17 167 50 179 22 8 97 8 106 0z m102 -136 c2 -123 0 -143 -13 -149 -9 -3 -21 -1 -27 5 -10 10 -12 267 -2 284 3 5 13 8 22 6 15 -3 17 -22 20 -146z m352 -3 c0 -104 -3 -139 -12 -140 -80 -3 -281 1 -286 5 -4 5 -7 224 -3 268 1 11 29 13 167 10 l134 -3 0 -140z m89 137 c8 -9 11 -57 9 -147 -3 -122 -5 -134 -22 -137 -10 -2 -22 2 -27 10 -14 21 -11 262 3 276 16 16 23 15 37 -2z m156 3 c12 -9 13 -258 2 -276 -5 -7 -23 -13 -42 -13 -66 0 -65 -2 -65 150 0 101 3 140 13 143 19 8 81 5 92 -4z m210 -144 l0 -150 -70 0 -70 0 -3 130 c-4 178 -7 171 75 170 l68 -1 0 -149z m428 135 c10 -8 13 -257 4 -266 -9 -10 -359 -6 -369 4 -5 5 -8 31 -6 58 3 49 3 49 41 52 l37 3 0 68 c0 73 -7 86 -50 93 -14 3 56 3 155 0 99 -2 184 -8 188 -12z m96 6 c8 -9 11 -57 9 -147 -3 -126 -4 -134 -23 -134 -19 0 -20 8 -23 134 -1 74 0 141 2 148 7 17 21 17 35 -1z m348 1 c8 -8 8 -265 0 -273 -7 -8 -272 -8 -284 -1 -9 6 -10 257 -1 272 6 10 274 12 285 2z m99 2 c4 -7 8 -70 9 -141 1 -94 -2 -131 -11 -139 -28 -23 -34 3 -34 140 0 76 3 141 7 144 10 10 21 8 29 -4z m352 -95 c2 -84 0 -105 -18 -141 l-21 -41 -122 -4 c-67 -2 -125 -2 -129 0 -12 5 -10 266 2 278 5 5 71 8 147 8 l138 -2 3 -98z m101 89 c12 -24 -9 -88 -29 -88 -17 0 -25 43 -16 81 7 28 31 32 45 7z m-6254 -36 c4 -13 5 -43 3 -68 -2 -36 -6 -44 -23 -44 -17 0 -20 8 -23 54 -2 29 -1 60 2 67 9 22 35 16 41 -9z m553 14 c9 -5 12 -26 10 -67 -3 -51 -6 -59 -23 -59 -17 0 -20 8 -23 54 -4 75 4 93 36 72z m-4765 -14 c15 -11 17 -28 15 -132 l-3 -120 -38 -3 c-63 -5 -69 6 -65 131 3 94 6 111 22 123 24 17 47 18 69 1z m683 -31 c2 -11 4 -66 2 -121 -3 -92 -5 -100 -23 -100 -19 0 -20 9 -26 120 -4 77 -3 122 4 127 16 10 37 -2 43 -26z m352 -32 c-3 -41 -6 -49 -23 -49 -27 0 -33 57 -10 92 23 35 37 17 33 -43z m8099 40 c3 -8 1 -24 -4 -36 -8 -19 -10 -20 -26 -4 -13 13 -15 22 -7 37 13 23 28 25 37 3z m-8329 -42 c9 -6 12 -33 10 -98 l-3 -89 -35 0 -35 0 -3 98 -3 97 28 0 c15 0 34 -4 41 -8z"/>
       <path d="M5778 19163 c-4 -127 -2 -143 22 -143 25 0 30 19 30 125 0 106 -5 125 -30 125 -16 0 -19 -12 -22 -107z"/>
       <path d="M5905 19258 c-3 -8 -4 -63 -3 -124 3 -109 3 -109 28 -109 l25 0 0 120 c0 117 -1 120 -23 123 -12 2 -24 -3 -27 -10z"/>
        <path d="M6034 19257 c-2 -7 -3 -62 -2 -123 3 -102 4 -109 24 -112 28 -4 30 8 26 141 -3 99 -5 107 -23 107 -11 0 -22 -6 -25 -13z"/> <path d="M5186 19063 c-3 -4 -6 -44 -6 -90 0 -82 1 -84 23 -81 15 2 22 10 21 26 0 12 -1 49 -2 81 -1 40 -6 61 -16 64 -8 3 -17 3 -20 0z"/>
         <path d="M5090 18976 c0 -80 1 -86 20 -86 20 0 21 5 18 82 -3 70 -6 83 -20 86 -16 3 -18 -6 -18 -82z"/> 
        <path d="M5270 18976 c0 -78 2 -86 19 -86 26 0 31 22 23 100 -6 50 -11 66 -24 68 -16 3 -18 -6 -18 -82z"/>
         <path d="M6653 19062 c-6 -4 -12 -43 -14 -87 -4 -77 -3 -80 19 -83 21 -3 22 -1 22 82 0 84 -5 101 -27 88z"/> 
         <path d="M6545 19027 c-4 -17 -5 -55 -3 -82 3 -43 6 -50 26 -53 21 -3 22 -1 22 82 0 79 -2 86 -20 86 -14 0 -21 -9 -25 -33z"/> 
         <path d="M6728 18995 c-1 -36 -2 -73 -2 -82 -1 -11 8 -19 22 -21 21 -3 22 -1 22 82 0 79 -2 86 -20 86 -18 0 -20 -7 -22 -65z"/> <path d="M12608 18093 c-44 -50 -49 -76 -46 -255 l3 -173 150 0 150 0 0 185 c0 166 -2 188 -20 218 -38 63 -86 47 -107 -36 l-11 -45 -18 24 c-10 13 -22 33 -25 44 -8 26 -34 55 -49 55 -7 0 -19 -8 -27 -17z m47 -76 c17 -41 24 -292 8 -308 -6 -6 -21 -9 -34 -7 -24 3 -24 4 -27 145 -2 114 1 149 13 173 9 16 18 30 21 30 3 0 11 -15 19 -33z m165 3 c6 -12 9 -77 8 -167 -3 -144 -4 -148 -25 -151 -38 -6 -46 28 -41 177 2 75 7 142 11 149 12 18 35 15 47 -8z"/> 
         <path d="M5231 16681 c-26 -36 -26 -49 -2 -81 27 -34 95 -35 122 -1 24 30 24 52 -2 85 -30 38 -90 37 -118 -3z m74 -46 c0 -28 -29 -25 -33 3 -3 19 0 23 15 20 10 -2 18 -12 18 -23z"/> 
         <path d="M5551 16684 c-28 -35 -26 -59 5 -91 21 -21 32 -24 61 -20 45 8 73 33 73 67 0 65 -98 96 -139 44z m79 -43 c0 -11 -5 -23 -11 -27 -15 -9 -33 12 -26 30 9 23 37 20 37 -3z"/> 
         <path d="M6511 16684 c-28 -35 -26 -59 5 -91 21 -21 32 -24 62 -19 36 5 71 37 72 64 0 8 -9 27 -21 43 -28 40 -88 41 -118 3z m77 -46 c-2 -13 -10 -23 -18 -23 -8 0 -16 10 -18 23 -3 17 2 22 18 22 16 0 21 -5 18 -22z"/> <path d="M756 16831 c-14 -15 -16 -35 -14 -102 l3 -84 60 0 60 0 3 82 c2 46 -2 92 -8 103 -14 27 -80 28 -104 1z m69 -87 c0 -46 -3 -59 -15 -59 -17 0 -26 61 -15 102 11 46 30 19 30 -43z"/> <path d="M6029 16833 c-14 -16 -16 -163 -3 -184 3 -5 28 -9 55 -9 60 0 64 6 64 108 0 61 -3 76 -19 88 -27 19 -80 18 -97 -3z m75 -49 c11 -28 6 -70 -9 -90 -15 -19 -15 -19 -30 1 -9 11 -14 29 -11 40 3 11 6 30 6 43 0 26 34 31 44 6z"/> <path d="M2133 16700 c-12 -5 -29 -21 -39 -35 -14 -21 -15 -31 -6 -51 23 -49 106 -55 136 -9 21 31 20 35 -7 67 -26 31 -53 40 -84 28z m45 -54 c5 -24 -10 -38 -31 -30 -20 7 -22 25 -5 42 16 16 32 10 36 -12z"/> <path d="M2425 16676 c-24 -36 -12 -81 25 -96 69 -29 133 30 97 89 -13 21 -24 27 -61 29 -39 3 -47 0 -61 -22z m83 -30 c5 -24 -10 -38 -31 -30 -20 7 -23 40 -4 47 19 8 32 2 35 -17z"/> <path d="M7710 16697 c-13 -7 -30 -23 -36 -36 -37 -73 85 -124 131 -55 35 54 -35 121 -95 91z m45 -57 c0 -13 -6 -25 -12 -27 -16 -6 -27 21 -19 43 9 23 31 11 31 -16z"/> <path d="M8028 16695 c-71 -39 -26 -137 55 -121 54 11 73 61 39 103 -23 29 -61 36 -94 18z m60 -49 c5 -24 -10 -38 -31 -30 -20 7 -22 25 -5 42 16 16 32 10 36 -12z"/> <path d="M8370 16700 c-35 -8 -57 -51 -44 -87 13 -38 71 -54 108 -29 70 46 21 136 -64 116z m48 -64 c-2 -13 -10 -21 -23 -21 -23 0 -33 34 -14 45 20 13 40 -1 37 -24z"/> <path d="M8700 16703 c-66 -24 -67 -113 -2 -128 40 -8 80 9 88 40 10 42 -3 72 -37 84 -18 6 -32 11 -33 10 -1 0 -8 -3 -16 -6z m43 -56 c8 -20 -9 -41 -27 -34 -23 9 -21 47 3 47 10 0 21 -6 24 -13z"/> <path d="M750 16270 c-30 -30 -27 -85 6 -115 34 -32 65 -32 103 1 41 34 43 83 5 113 -34 27 -88 27 -114 1z m87 -65 c-2 -5 -16 -11 -30 -13 -21 -3 -27 1 -27 17 0 29 31 45 48 23 7 -9 11 -21 9 -27z"/> <path d="M767 15910 c-27 -22 -28 -24 -25 -114 l3 -91 53 -3 c75 -4 82 5 82 98 0 60 -4 83 -17 98 -28 33 -64 37 -96 12z m58 -101 c0 -41 -4 -54 -15 -54 -17 0 -25 52 -15 92 11 44 30 20 30 -38z"/> <path d="M5558 15895 c-14 -18 -18 -43 -18 -104 0 -45 3 -82 8 -82 44 -7 67 -6 88 1 22 9 24 14 24 83 0 62 -4 78 -23 100 -28 33 -57 34 -79 2z m51 -29 c7 -8 11 -36 9 -63 -3 -40 -6 -48 -23 -48 -17 0 -20 8 -23 49 -5 71 10 95 37 62z"/> <path d="M1238 15414 c-16 -5 -18 -19 -18 -113 0 -70 4 -111 12 -119 15 -15 82 -16 109 -2 17 10 19 22 19 120 0 98 -2 110 -17 110 -10 0 -34 2 -53 4 -19 3 -43 2 -52 0z m72 -120 c0 -50 -3 -64 -15 -64 -8 0 -16 6 -16 13 -3 32 0 99 5 113 12 32 26 0 26 -62z"/> <path d="M8153 20011 c-44 -17 -85 -48 -100 -75 -5 -9 -30 -20 -57 -25 -88 -16 -162 -100 -153 -173 3 -20 15 -51 27 -68 l21 -30 289 0 c180 0 291 4 295 10 26 42 -7 149 -52 169 -17 8 -23 19 -23 42 0 72 -49 127 -137 154 -57 17 -56 18 -110 -4z m139 -66 c25 -10 58 -71 58 -106 0 -22 11 -40 41 -69 23 -21 39 -45 37 -52 -4 -10 -60 -14 -256 -16 -245 -2 -251 -2 -262 18 -32 61 54 150 144 150 26 0 36 5 41 20 8 26 63 67 95 72 25 4 71 -4 102 -17z"/> <path d="M4717 20003 c-11 -10 -8 -113 3 -113 6 0 10 27 10 60 0 61 -1 65 -13 53z"/> <path d="M196 19992 c-2 -4 -1 -14 4 -22 5 -8 6 -26 3 -39 -4 -17 -2 -22 6 -17 13 9 15 72 2 81 -5 3 -12 2 -15 -3z"/> <path d="M9230 19951 c0 -53 15 -69 26 -27 8 33 2 69 -13 74 -9 2 -13 -11 -13 -47z"/> <path d="M13437 19993 c-3 -5 -1 -28 3 -53 6 -35 8 -38 9 -15 1 17 4 40 7 53 6 20 -9 32 -19 15z"/> <path d="M835 19977 c-4 -10 -5 -21 -1 -24 10 -10 18 4 13 24 -4 17 -4 17 -12 0z"/> <path d="M9362 19950 c0 -19 2 -27 5 -17 2 9 2 25 0 35 -3 9 -5 1 -5 -18z"/> <path d="M9867 19974 c-8 -8 1 -24 14 -24 5 0 9 7 9 15 0 15 -12 20 -23 9z"/> <path d="M13323 19945 c0 -22 2 -30 4 -17 2 12 2 30 0 40 -3 9 -5 -1 -4 -23z"/> <path d="M3836 19923 c-4 -9 -2 -21 4 -27 7 -7 10 -2 10 17 0 31 -5 34 -14 10z"/> <path d="M737 19903 c-13 -12 -7 -23 13 -23 13 0 18 5 14 15 -7 16 -17 19 -27 8z"/> <path d="M5245 19901 c-8 -15 3 -31 21 -31 9 0 14 7 12 17 -4 20 -24 28 -33 14z"/> <path d="M9772 19893 c5 -25 28 -28 28 -4 0 12 -6 21 -16 21 -9 0 -14 -7 -12 -17z"/> <path d="M13462 19871 c4 -13 18 -16 19 -4 0 4 -5 9 -11 12 -7 2 -11 -2 -8 -8z"/> <path d="M954 19645 c-8 -21 4 -35 31 -35 29 0 41 16 25 35 -16 19 -49 19 -56 0z"/> <path d="M10017 19653 c-19 -3 -27 -10 -25 -20 4 -19 59 -27 69 -11 8 12 1 39 -10 37 -3 -1 -19 -4 -34 -6z"/> <path d="M5472 19633 c2 -13 12 -18 33 -18 43 0 40 29 -3 33 -28 3 -33 0 -30 -15z"/> <path d="M3460 19631 c0 -5 -3 -18 -6 -28 -5 -17 -5 -17 6 0 6 9 18 17 26 17 8 0 12 5 9 10 -8 13 -35 13 -35 1z"/> <path d="M726 19573 c-11 -11 -6 -23 8 -23 8 0 17 4 20 9 7 10 -19 23 -28 14z"/> <path d="M8587 19573 c-13 -12 -7 -23 13 -23 11 0 20 7 20 15 0 15 -21 21 -33 8z"/> <path d="M9750 19565 c0 -9 5 -15 11 -13 6 2 11 8 11 13 0 5 -5 11 -11 13 -6 2 -11 -4 -11 -13z"/> <path d="M9360 19527 c0 -23 4 -36 10 -32 13 8 13 35 0 55 -7 11 -10 5 -10 -23z"/> <path d="M4370 19540 c0 -5 7 -10 15 -10 8 0 15 5 15 10 0 6 -7 10 -15 10 -8 0 -15 -4 -15 -10z"/> <path d="M13400 19540 c0 -5 7 -10 15 -10 8 0 15 5 15 10 0 6 -7 10 -15 10 -8 0 -15 -4 -15 -10z"/> <path d="M3510 19495 c0 -8 5 -15 10 -15 6 0 10 7 10 15 0 8 -4 15 -10 15 -5 0 -10 -7 -10 -15z"/> <path d="M537 19484 c-16 -17 -4 -24 39 -24 32 0 44 4 42 13 -5 13 -69 22 -81 11z"/> <path d="M9583 19484 c-27 -11 -11 -24 28 -24 28 0 39 4 37 13 -5 13 -44 19 -65 11z"/> <path d="M8890 19470 c0 -5 7 -10 15 -10 8 0 15 5 15 10 0 6 -7 10 -15 10 -8 0 -15 -4 -15 -10z"/> <path d="M12034 17530 c0 -58 1 -81 3 -52 2 28 2 76 0 105 -2 28 -3 5 -3 -53z"/> <path d="M330 14909 c-179 -3 -326 -6 -327 -7 -2 -1 -3 -13 -3 -26 0 -21 6 -25 50 -31 48 -7 50 -8 50 -38 l0 -32 -50 3 c-50 4 -50 4 -50 -26 0 -29 2 -30 60 -37 98 -11 981 -11 988 0 6 9 4 186 -2 192 -6 6 -420 7 -716 2z m-103 -50 c7 -7 19 -8 30 -4 10 5 45 10 78 11 51 2 63 -1 78 -19 17 -21 18 -21 32 -3 11 14 22 17 44 13 17 -4 33 -2 36 2 3 5 37 9 75 9 66 -1 72 -3 85 -27 14 -25 15 -25 21 -5 4 17 16 23 57 28 84 10 172 7 185 -6 17 -17 15 -47 -3 -54 -12 -5 -13 -10 -4 -20 6 -7 8 -18 4 -24 -10 -16 -154 -12 -202 6 -39 15 -45 15 -61 1 -20 -18 -139 -22 -159 -6 -7 6 -16 8 -21 5 -5 -3 -23 0 -40 6 -26 10 -34 9 -50 -5 -21 -19 -57 -23 -67 -7 -4 6 -13 7 -23 1 -31 -15 -155 -11 -174 6 -23 20 -22 31 2 71 21 33 55 43 77 21z"/> <path d="M357 14824 c-8 -8 3 -34 14 -34 5 0 9 9 9 20 0 19 -11 26 -23 14z"/> <path d="M530 14810 c0 -11 7 -20 15 -20 8 0 15 9 15 20 0 11 -7 20 -15 20 -8 0 -15 -9 -15 -20z"/> <path d="M792 14818 c-19 -19 -14 -29 8 -16 20 13 27 28 12 28 -4 0 -13 -5 -20 -12z"/> <path d="M870 14815 c-7 -8 -20 -15 -28 -15 -12 0 -13 -3 -5 -11 8 -8 19 -6 42 7 17 10 31 22 31 26 0 14 -27 9 -40 -7z"/> <path d="M8668 14805 c-3 -22 -2 -44 3 -49 15 -17 19 -1 11 45 l-8 44 -6 -40z"/> <path d="M8547 14790 c-3 -14 -3 -28 2 -33 12 -12 20 14 11 37 -6 18 -7 18 -13 -4z"/> <path d="M12750 14768 c0 -36 4 -35 14 5 4 16 2 27 -4 27 -5 0 -10 -14 -10 -32z"/> <path d="M13074 14779 c-3 -6 -1 -16 5 -22 8 -8 11 -5 11 11 0 24 -5 28 -16 11z"/> <path d="M13435 14739 c-4 -6 -5 -12 -2 -15 7 -7 37 7 37 17 0 13 -27 11 -35 -2z"/> <path d="M5247 14668 c-7 -25 0 -41 14 -33 12 8 12 42 0 49 -5 3 -11 -4 -14 -16z"/> <path d="M9775 14660 c-8 -13 4 -32 16 -25 12 8 12 35 0 35 -6 0 -13 -4 -16 -10z"/> <path d="M4005 14650 c-3 -6 1 -13 10 -16 19 -8 30 0 20 15 -8 14 -22 14 -30 1z"/> <path d="M4160 14650 c-20 -12 -9 -21 18 -13 12 3 19 9 16 14 -7 11 -15 11 -34 -1z"/> <path d="M8542 14646 c1 -10 8 -17 13 -17 15 1 12 24 -3 29 -9 3 -13 -2 -10 -12z"/> <path d="M8669 14658 c0 -2 -2 -27 -3 -55 -2 -38 1 -53 10 -53 9 0 11 10 7 35 -3 20 -1 41 6 48 6 8 8 17 4 20 -6 7 -22 10 -24 5z"/> <path d="M13196 14652 c-3 -6 -1 -14 5 -17 15 -10 25 3 12 16 -7 7 -13 7 -17 1z"/> <path d="M13071 14633 c7 -10 15 -20 16 -22 2 -2 3 5 3 17 0 14 -6 22 -16 22 -14 0 -15 -3 -3 -17z"/> <path d="M4293 14585 c0 -22 2 -30 4 -17 2 12 2 30 0 40 -3 9 -5 -1 -4 -23z"/> <path d="M4592 14580 c0 -19 2 -27 5 -17 2 9 2 25 0 35 -3 9 -5 1 -5 -18z"/> <path d="M4704 14584 c-8 -30 10 -54 27 -37 11 11 2 63 -12 63 -5 0 -12 -12 -15 -26z"/> <path d="M9230 14576 c0 -26 4 -36 16 -36 11 0 14 8 12 32 -4 46 -28 49 -28 4z"/> <path d="M13436 14594 c-10 -27 -7 -44 9 -44 10 0 15 10 15 30 0 32 -14 40 -24 14z"/> <path d="M7950 14574 c0 -14 4 -23 9 -20 5 3 7 15 4 26 -7 28 -13 25 -13 -6z"/> <path d="M9356 14584 c-10 -25 -7 -34 9 -34 8 0 15 9 15 19 0 26 -16 35 -24 15z"/> <path d="M9865 14588 c-8 -21 1 -38 21 -38 18 0 18 11 0 36 -13 17 -15 18 -21 2z"/> <path d="M197 14576 c-6 -15 1 -26 15 -26 4 0 8 9 8 20 0 23 -15 27 -23 6z"/> <path d="M835 14580 c-4 -6 -2 -17 4 -23 15 -15 25 -2 13 19 -7 12 -11 13 -17 4z"/> <path d="M3803 14570 c14 -11 29 -20 33 -20 4 0 -2 9 -14 20 -12 11 -26 20 -33 20 -6 0 0 -9 14 -20z"/> <path d="M5340 14581 c0 -13 29 -35 37 -28 7 8 -15 37 -28 37 -5 0 -9 -4 -9 -9z"/> <path d="M8910 14570 c0 -19 3 -21 12 -12 9 9 9 15 0 24 -9 9 -12 7 -12 -12z"/> <path d="M9657 14576 c-4 -10 -5 -21 -2 -24 9 -9 17 6 13 25 -3 17 -4 17 -11 -1z"/> <path d="M13316 14575 c-9 -23 -8 -25 9 -25 17 0 19 9 6 28 -7 11 -10 10 -15 -3z"/> </g> </svg> 